<?xml version="1.0" standalone="no"?>
<!DOCTYPE svg PUBLIC "-//W3C//DTD SVG 1.1//EN" "http://www.w3.org/Graphics/SVG/1.1/DTD/svg11.dtd" >
<svg xmlns="http://www.w3.org/2000/svg" xmlns:xlink="http://www.w3.org/1999/xlink" version="1.1">
<metadata></metadata>
<defs>
<font id="sf_pro_textbold" horiz-adv-x="1800" >
<font-face units-per-em="2048" ascent="1638" descent="-410" />
<missing-glyph horiz-adv-x="528" />
<glyph unicode="&#x31;&#x25cb;" d="M125 720q0 159 61 303t164.5 247.5t247 164.5t302.5 61t302.5 -61t247 -164.5t164.5 -247.5t61 -303t-61 -302.5t-164.5 -247t-247 -164.5t-302.5 -61t-302.5 61t-247 164.5t-164.5 247t-61 302.5zM310 720q0 -162 77.5 -298.5t213.5 -216.5t299 -80t299 80t214 216.5 t78 298.5t-78 298.5t-214 216.5t-299 80t-299 -80t-213.5 -216.5t-77.5 -298.5zM667 786v177l167 111h201v-692h-201v510h-10z" />
<glyph unicode="&#x32;&#x25cb;" d="M125 720q0 159 61 303t164.5 247.5t247 164.5t302.5 61t302.5 -61t247 -164.5t164.5 -247.5t61 -303t-61 -302.5t-164.5 -247t-247 -164.5t-302.5 -61t-302.5 61t-247 164.5t-164.5 247t-61 302.5zM310 720q0 -162 77.5 -298.5t213.5 -216.5t299 -80t299 80t214 216.5 t78 298.5t-78 298.5t-214 216.5t-299 80t-299 -80t-213.5 -216.5t-77.5 -298.5zM630 845v3q0 104 72.5 170.5t199.5 66.5q118 0 190.5 -57.5t72.5 -148.5q0 -55 -31.5 -103.5t-99.5 -111.5l-121 -114v-8h263v-161h-534v127l249 235q41 39 59 64.5t18 53.5q0 29 -21 47 t-53 18q-37 0 -58 -22t-20 -56v-3h-186z" />
<glyph unicode="&#x33;&#x25cb;" d="M125 720q0 159 61 303t164.5 247.5t247 164.5t302.5 61t302.5 -61t247 -164.5t164.5 -247.5t61 -303t-61 -302.5t-164.5 -247t-247 -164.5t-302.5 -61t-302.5 61t-247 164.5t-164.5 247t-61 302.5zM310 720q0 -162 77.5 -298.5t213.5 -216.5t299 -80t299 80t214 216.5 t78 298.5t-78 298.5t-214 216.5t-299 80t-299 -80t-213.5 -216.5t-77.5 -298.5zM613 593h183q2 -32 29 -52t70 -21q45 0 72 19.5t27 50.5q-1 31 -27 50t-70 19h-72v149h70q37 0 60.5 19t23.5 50q0 28 -23.5 45t-60.5 17q-40 0 -64.5 -21.5t-26.5 -53.5h-183 q4 104 75.5 162.5t201.5 58.5q123 0 196.5 -51t75.5 -134q1 -57 -40.5 -99.5t-91.5 -49.5v-10q60 -5 104.5 -49t45.5 -114q1 -95 -80 -151t-212 -56q-129 0 -205 61.5t-78 160.5z" />
<glyph unicode="&#x34;&#x25cb;" d="M125 720q0 159 61 303t164.5 247.5t247 164.5t302.5 61t302.5 -61t247 -164.5t164.5 -247.5t61 -303t-61 -302.5t-164.5 -247t-247 -164.5t-302.5 -61t-302.5 61t-247 164.5t-164.5 247t-61 302.5zM310 720q0 -162 77.5 -298.5t213.5 -216.5t299 -80t299 80t214 216.5 t78 298.5t-78 298.5t-214 216.5t-299 80t-299 -80t-213.5 -216.5t-77.5 -298.5zM581 494v155q75 145 243 425h271v-428h95v-152h-95v-112h-168v112h-346zM753 646h174v287h-14q-116 -199 -160 -285v-2z" />
<glyph unicode="&#x35;&#x25cb;" d="M125 720q0 159 61 303t164.5 247.5t247 164.5t302.5 61t302.5 -61t247 -164.5t164.5 -247.5t61 -303t-61 -302.5t-164.5 -247t-247 -164.5t-302.5 -61t-302.5 61t-247 164.5t-164.5 247t-61 302.5zM310 720q0 -162 77.5 -298.5t213.5 -216.5t299 -80t299 80t214 216.5 t78 298.5t-78 298.5t-214 216.5t-299 80t-299 -80t-213.5 -216.5t-77.5 -298.5zM631 591h185q6 -30 33 -46.5t62 -16.5q40 0 68.5 26.5t28.5 68.5q0 39 -28.5 64.5t-69.5 25.5q-31 0 -54 -13.5t-34 -33.5h-177l27 414h481v-147h-330l-12 -147h9q15 27 55.5 46t94.5 19 q101 0 165 -60t64 -162q0 -116 -78.5 -184.5t-211.5 -68.5q-121 0 -198.5 60.5t-79.5 154.5z" />
<glyph unicode="&#x36;&#x25cb;" d="M125 720q0 159 61 303t164.5 247.5t247 164.5t302.5 61t302.5 -61t247 -164.5t164.5 -247.5t61 -303t-61 -302.5t-164.5 -247t-247 -164.5t-302.5 -61t-302.5 61t-247 164.5t-164.5 247t-61 302.5zM310 720q0 -162 77.5 -298.5t213.5 -216.5t299 -80t299 80t214 216.5 t78 298.5t-78 298.5t-214 216.5t-299 80t-299 -80t-213.5 -216.5t-77.5 -298.5zM608 635q0 69 22.5 131t73.5 136q29 45 134 173h232q-38 -43 -99.5 -117.5t-80.5 -103.5q-22 -33 -27 -43h9q48 33 110 33q89 0 148.5 -61t59.5 -152q0 -117 -79 -189t-208 -72 q-131 0 -213 73.5t-82 191.5zM806 620q0 -40 27 -65.5t69 -25.5t69 25.5t27 65.5q0 39 -27 65t-69 26t-69 -26t-27 -65z" />
<glyph unicode="&#x37;&#x25cb;" d="M125 720q0 159 61 303t164.5 247.5t247 164.5t302.5 61t302.5 -61t247 -164.5t164.5 -247.5t61 -303t-61 -302.5t-164.5 -247t-247 -164.5t-302.5 -61t-302.5 61t-247 164.5t-164.5 247t-61 302.5zM310 720q0 -162 77.5 -298.5t213.5 -216.5t299 -80t299 80t214 216.5 t78 298.5t-78 298.5t-214 216.5t-299 80t-299 -80t-213.5 -216.5t-77.5 -298.5zM638 909v161h543v-162l-274 -531h-213l284 525v7h-340z" />
<glyph unicode="&#x38;&#x25cb;" d="M125 720q0 159 61 303t164.5 247.5t247 164.5t302.5 61t302.5 -61t247 -164.5t164.5 -247.5t61 -303t-61 -302.5t-164.5 -247t-247 -164.5t-302.5 -61t-302.5 61t-247 164.5t-164.5 247t-61 302.5zM310 720q0 -162 77.5 -298.5t213.5 -216.5t299 -80t299 80t214 216.5 t78 298.5t-78 298.5t-214 216.5t-299 80t-299 -80t-213.5 -216.5t-77.5 -298.5zM595 577q0 66 42.5 110.5t113.5 55.5v9q-127 37 -127 147q0 84 75.5 135t200.5 51t200.5 -51t75.5 -135q0 -112 -127 -147v-9q71 -11 113.5 -55.5t42.5 -110.5q0 -95 -83 -151t-223 -56 q-139 0 -221.5 56t-82.5 151zM798 592q0 -37 29 -61.5t73 -24.5t73 24.5t29 61.5q0 38 -28.5 63t-73.5 25q-44 0 -73 -25t-29 -63zM816 877q0 -32 24 -53t60 -21q37 0 60.5 21t23.5 53q0 31 -24 52t-60 21t-60 -21t-24 -52z" />
<glyph unicode="&#x39;&#x25cb;" d="M125 720q0 159 61 303t164.5 247.5t247 164.5t302.5 61t302.5 -61t247 -164.5t164.5 -247.5t61 -303t-61 -302.5t-164.5 -247t-247 -164.5t-302.5 -61t-302.5 61t-247 164.5t-164.5 247t-61 302.5zM310 720q0 -162 77.5 -298.5t213.5 -216.5t299 -80t299 80t214 216.5 t78 298.5t-78 298.5t-214 216.5t-299 80t-299 -80t-213.5 -216.5t-77.5 -298.5zM609 824q0 118 78.5 190t208.5 72q131 0 213 -73.5t82 -191.5q0 -130 -97 -267q-26 -43 -133 -173h-232q139 162 180 221q23 34 27 42l-9 1q-46 -33 -110 -33q-89 0 -148.5 61t-59.5 151z M801 836q0 -39 27 -65t69 -26t69 26t27 65t-27 65t-69 26t-69 -26t-27 -65z" />
<glyph unicode="A&#x25cb;" d="M125 720q0 159 61 303t164.5 247.5t247 164.5t302.5 61t302.5 -61t247 -164.5t164.5 -247.5t61 -303t-61 -302.5t-164.5 -247t-247 -164.5t-302.5 -61t-302.5 61t-247 164.5t-164.5 247t-61 302.5zM310 720q0 -162 77.5 -298.5t213.5 -216.5t299 -80t299 80t214 216.5 t78 298.5t-78 298.5t-214 216.5t-299 80t-299 -80t-213.5 -216.5t-77.5 -298.5zM554 407l226 693h241l225 -693h-196l-40 135h-220l-39 -135h-197zM824 687h153l-69 240h-15z" />
<glyph unicode="B&#x25cb;" d="M125 720q0 159 61 303t164.5 247.5t247 164.5t302.5 61t302.5 -61t247 -164.5t164.5 -247.5t61 -303t-61 -302.5t-164.5 -247t-247 -164.5t-302.5 -61t-302.5 61t-247 164.5t-164.5 247t-61 302.5zM310 720q0 -162 77.5 -298.5t213.5 -216.5t299 -80t299 80t214 216.5 t78 298.5t-78 298.5t-214 216.5t-299 80t-299 -80t-213.5 -216.5t-77.5 -298.5zM631 382v692h343q100 0 158 -45.5t58 -124.5q0 -59 -36 -99t-96 -51v-9q75 -8 119 -53t44 -119q0 -86 -67 -138.5t-173 -52.5h-350zM817 519h87q122 0 122 82q0 38 -27.5 60t-76.5 22h-105 v-164zM817 796h79q109 0 109 76q0 34 -24 53t-65 19h-99v-148z" />
<glyph unicode="C&#x25cb;" d="M125 720q0 159 61 303t164.5 247.5t247 164.5t302.5 61t302.5 -61t247 -164.5t164.5 -247.5t61 -303t-61 -302.5t-164.5 -247t-247 -164.5t-302.5 -61t-302.5 61t-247 164.5t-164.5 247t-61 302.5zM310 720q0 -162 77.5 -298.5t213.5 -216.5t299 -80t299 80t214 216.5 t78 298.5t-78 298.5t-214 216.5t-299 80t-299 -80t-213.5 -216.5t-77.5 -298.5zM562 727q0 164 94.5 261t243.5 97q136 0 222.5 -74.5t94.5 -194.5h-185q-4 45 -40.5 74.5t-88.5 29.5q-65 0 -104 -51.5t-39 -141.5t39 -141t104 -51q50 0 86.5 29t40.5 72h186 q-9 -119 -95.5 -192.5t-220.5 -73.5q-148 0 -243 96.5t-95 260.5z" />
<glyph unicode="D&#x25cb;" d="M125 720q0 159 61 303t164.5 247.5t247 164.5t302.5 61t302.5 -61t247 -164.5t164.5 -247.5t61 -303t-61 -302.5t-164.5 -247t-247 -164.5t-302.5 -61t-302.5 61t-247 164.5t-164.5 247t-61 302.5zM310 720q0 -162 77.5 -298.5t213.5 -216.5t299 -80t299 80t214 216.5 t78 298.5t-78 298.5t-214 216.5t-299 80t-299 -80t-213.5 -216.5t-77.5 -298.5zM630 382v692h298q159 0 241.5 -89t82.5 -257t-82.5 -257t-241.5 -89h-298zM822 538h74q81 0 118 45.5t37 143.5q0 99 -37 145t-118 46h-74v-380z" />
<glyph unicode="E&#x25cb;" d="M125 720q0 159 61 303t164.5 247.5t247 164.5t302.5 61t302.5 -61t247 -164.5t164.5 -247.5t61 -303t-61 -302.5t-164.5 -247t-247 -164.5t-302.5 -61t-302.5 61t-247 164.5t-164.5 247t-61 302.5zM310 720q0 -162 77.5 -298.5t213.5 -216.5t299 -80t299 80t214 216.5 t78 298.5t-78 298.5t-214 216.5t-299 80t-299 -80t-213.5 -216.5t-77.5 -298.5zM663 382v692h495v-154h-306v-123h287v-133h-287v-128h306v-154h-495z" />
<glyph unicode="F&#x25cb;" d="M125 720q0 159 61 303t164.5 247.5t247 164.5t302.5 61t302.5 -61t247 -164.5t164.5 -247.5t61 -303t-61 -302.5t-164.5 -247t-247 -164.5t-302.5 -61t-302.5 61t-247 164.5t-164.5 247t-61 302.5zM310 720q0 -162 77.5 -298.5t213.5 -216.5t299 -80t299 80t214 216.5 t78 298.5t-78 298.5t-214 216.5t-299 80t-299 -80t-213.5 -216.5t-77.5 -298.5zM680 382v692h493v-156h-295v-133h268v-156h-268v-247h-198z" />
<glyph unicode="G&#x25cb;" d="M125 720q0 159 61 303t164.5 247.5t247 164.5t302.5 61t302.5 -61t247 -164.5t164.5 -247.5t61 -303t-61 -302.5t-164.5 -247t-247 -164.5t-302.5 -61t-302.5 61t-247 164.5t-164.5 247t-61 302.5zM310 720q0 -162 77.5 -298.5t213.5 -216.5t299 -80t299 80t214 216.5 t78 298.5t-78 298.5t-214 216.5t-299 80t-299 -80t-213.5 -216.5t-77.5 -298.5zM562 727q0 160 93.5 259t245.5 99q128 0 215 -67t101 -178h-190q-5 41 -39 66t-84 25q-65 0 -104.5 -55.5t-39.5 -148.5t40 -150.5t104 -57.5q61 0 95 26t34 68v28h-127v125h309v-121 q0 -120 -84.5 -197.5t-229.5 -77.5q-152 0 -245.5 98.5t-93.5 258.5z" />
<glyph unicode="H&#x25cb;" d="M125 720q0 159 61 303t164.5 247.5t247 164.5t302.5 61t302.5 -61t247 -164.5t164.5 -247.5t61 -303t-61 -302.5t-164.5 -247t-247 -164.5t-302.5 -61t-302.5 61t-247 164.5t-164.5 247t-61 302.5zM310 720q0 -162 77.5 -298.5t213.5 -216.5t299 -80t299 80t214 216.5 t78 298.5t-78 298.5t-214 216.5t-299 80t-299 -80t-213.5 -216.5t-77.5 -298.5zM591 382v692h187v-263h245v263h187v-692h-187v265h-245v-265h-187z" />
<glyph unicode="I&#x25cb;" d="M125 720q0 159 61 303t164.5 247.5t247 164.5t302.5 61t302.5 -61t247 -164.5t164.5 -247.5t61 -303t-61 -302.5t-164.5 -247t-247 -164.5t-302.5 -61t-302.5 61t-247 164.5t-164.5 247t-61 302.5zM310 720q0 -162 77.5 -298.5t213.5 -216.5t299 -80t299 80t214 216.5 t78 298.5t-78 298.5t-214 216.5t-299 80t-299 -80t-213.5 -216.5t-77.5 -298.5zM793 382v692h214v-692h-214z" />
<glyph unicode="J&#x25cb;" d="M125 720q0 159 61 303t164.5 247.5t247 164.5t302.5 61t302.5 -61t247 -164.5t164.5 -247.5t61 -303t-61 -302.5t-164.5 -247t-247 -164.5t-302.5 -61t-302.5 61t-247 164.5t-164.5 247t-61 302.5zM310 720q0 -162 77.5 -298.5t213.5 -216.5t299 -80t299 80t214 216.5 t78 298.5t-78 298.5t-214 216.5t-299 80t-299 -80t-213.5 -216.5t-77.5 -298.5zM602 621h194q0 -39 19.5 -59.5t54.5 -20.5q73 0 73 89v433h201v-437q0 -125 -72 -196t-198 -71t-199 72t-73 190z" />
<glyph unicode="K&#x25cb;" d="M125 720q0 159 61 303t164.5 247.5t247 164.5t302.5 61t302.5 -61t247 -164.5t164.5 -247.5t61 -303t-61 -302.5t-164.5 -247t-247 -164.5t-302.5 -61t-302.5 61t-247 164.5t-164.5 247t-61 302.5zM310 720q0 -162 77.5 -298.5t213.5 -216.5t299 -80t299 80t214 216.5 t78 298.5t-78 298.5t-214 216.5t-299 80t-299 -80t-213.5 -216.5t-77.5 -298.5zM611 382v692h182v-274h14l214 274h213l-229 -314l235 -378h-225l-158 254l-64 -74v-180h-182z" />
<glyph unicode="L&#x25cb;" d="M125 720q0 159 61 303t164.5 247.5t247 164.5t302.5 61t302.5 -61t247 -164.5t164.5 -247.5t61 -303t-61 -302.5t-164.5 -247t-247 -164.5t-302.5 -61t-302.5 61t-247 164.5t-164.5 247t-61 302.5zM310 720q0 -162 77.5 -298.5t213.5 -216.5t299 -80t299 80t214 216.5 t78 298.5t-78 298.5t-214 216.5t-299 80t-299 -80t-213.5 -216.5t-77.5 -298.5zM694 393v692h204v-522h284v-170h-488z" />
<glyph unicode="M&#x25cb;" d="M125 720q0 159 61 303t164.5 247.5t247 164.5t302.5 61t302.5 -61t247 -164.5t164.5 -247.5t61 -303t-61 -302.5t-164.5 -247t-247 -164.5t-302.5 -61t-302.5 61t-247 164.5t-164.5 247t-61 302.5zM310 720q0 -162 77.5 -298.5t213.5 -216.5t299 -80t299 80t214 216.5 t78 298.5t-78 298.5t-214 216.5t-299 80t-299 -80t-213.5 -216.5t-77.5 -298.5zM547 382v692h190l162 -448h5l162 448h189v-692h-152v420h-15l-140 -381h-96l-139 381h-15v-420h-151z" />
<glyph unicode="N&#x25cb;" d="M125 720q0 159 61 303t164.5 247.5t247 164.5t302.5 61t302.5 -61t247 -164.5t164.5 -247.5t61 -303t-61 -302.5t-164.5 -247t-247 -164.5t-302.5 -61t-302.5 61t-247 164.5t-164.5 247t-61 302.5zM310 720q0 -162 77.5 -298.5t213.5 -216.5t299 -80t299 80t214 216.5 t78 298.5t-78 298.5t-214 216.5t-299 80t-299 -80t-213.5 -216.5t-77.5 -298.5zM598 382v692h144l276 -379h14v379h170v-692h-142l-278 384h-13v-384h-171z" />
<glyph unicode="O&#x25cb;" d="M125 720q0 159 61 303t164.5 247.5t247 164.5t302.5 61t302.5 -61t247 -164.5t164.5 -247.5t61 -303t-61 -302.5t-164.5 -247t-247 -164.5t-302.5 -61t-302.5 61t-247 164.5t-164.5 247t-61 302.5zM310 720q0 -162 77.5 -298.5t213.5 -216.5t299 -80t299 80t214 216.5 t78 298.5t-78 298.5t-214 216.5t-299 80t-299 -80t-213.5 -216.5t-77.5 -298.5zM561 727q0 167 96 262.5t243 95.5t243 -95.5t96 -262.5q0 -166 -96 -261.5t-243 -95.5t-243 95.5t-96 261.5zM759 727q0 -92 39.5 -142t101.5 -50t101.5 50t39.5 142q0 93 -39.5 143t-101.5 50 t-101.5 -50t-39.5 -143z" />
<glyph unicode="P&#x25cb;" d="M125 720q0 159 61 303t164.5 247.5t247 164.5t302.5 61t302.5 -61t247 -164.5t164.5 -247.5t61 -303t-61 -302.5t-164.5 -247t-247 -164.5t-302.5 -61t-302.5 61t-247 164.5t-164.5 247t-61 302.5zM310 720q0 -162 77.5 -298.5t213.5 -216.5t299 -80t299 80t214 216.5 t78 298.5t-78 298.5t-214 216.5t-299 80t-299 -80t-213.5 -216.5t-77.5 -298.5zM657 382v692h315q118 0 188 -69.5t70 -183.5q0 -113 -70 -181t-190 -68h-111v-190h-202zM848 722h89q98 0 98 99q0 100 -98 100h-89v-199z" />
<glyph unicode="Q&#x25cb;" d="M125 720q0 159 61 303t164.5 247.5t247 164.5t302.5 61t302.5 -61t247 -164.5t164.5 -247.5t61 -303t-61 -302.5t-164.5 -247t-247 -164.5t-302.5 -61t-302.5 61t-247 164.5t-164.5 247t-61 302.5zM310 720q0 -162 77.5 -298.5t213.5 -216.5t299 -80t299 80t214 216.5 t78 298.5t-78 298.5t-214 216.5t-299 80t-299 -80t-213.5 -216.5t-77.5 -298.5zM561 727q0 167 96 262.5t243 95.5t243 -95.5t96 -262.5q0 -177 -111 -275l91 -130h-190l-35 60q-43 -12 -94 -12q-147 0 -243 95.5t-96 261.5zM759 727q0 -92 39.5 -142t101.5 -50q18 0 31 4 l-54 96h110l22 -27q32 46 32 119q0 93 -39.5 143t-101.5 50t-101.5 -50t-39.5 -143z" />
<glyph unicode="R&#x25cb;" d="M125 720q0 159 61 303t164.5 247.5t247 164.5t302.5 61t302.5 -61t247 -164.5t164.5 -247.5t61 -303t-61 -302.5t-164.5 -247t-247 -164.5t-302.5 -61t-302.5 61t-247 164.5t-164.5 247t-61 302.5zM310 720q0 -162 77.5 -298.5t213.5 -216.5t299 -80t299 80t214 216.5 t78 298.5t-78 298.5t-214 216.5t-299 80t-299 -80t-213.5 -216.5t-77.5 -298.5zM624 382v692h312q131 0 203 -59t72 -166q0 -71 -37 -122t-98 -71l149 -274h-208l-117 238h-93v-238h-183zM807 754h105q47 0 73.5 21.5t26.5 62.5q0 42 -26 64.5t-72 22.5h-107v-171z" />
<glyph unicode="S&#x25cb;" d="M125 720q0 159 61 303t164.5 247.5t247 164.5t302.5 61t302.5 -61t247 -164.5t164.5 -247.5t61 -303t-61 -302.5t-164.5 -247t-247 -164.5t-302.5 -61t-302.5 61t-247 164.5t-164.5 247t-61 302.5zM310 720q0 -162 77.5 -298.5t213.5 -216.5t299 -80t299 80t214 216.5 t78 298.5t-78 298.5t-214 216.5t-299 80t-299 -80t-213.5 -216.5t-77.5 -298.5zM601 585h190q5 -32 35.5 -50.5t78.5 -18.5q49 0 78 18.5t29 49.5q0 25 -23.5 39t-85.5 25l-90 16q-97 16 -148 67.5t-51 131.5q0 100 78.5 161t208.5 61q122 0 200 -57t85 -152h-184 q-5 31 -31.5 48.5t-69.5 17.5t-69 -17.5t-26 -46.5q0 -46 99 -61l97 -17q198 -34 198 -199q0 -106 -82 -168t-220 -62q-134 0 -213 57t-84 157z" />
<glyph unicode="T&#x25cb;" d="M125 720q0 159 61 303t164.5 247.5t247 164.5t302.5 61t302.5 -61t247 -164.5t164.5 -247.5t61 -303t-61 -302.5t-164.5 -247t-247 -164.5t-302.5 -61t-302.5 61t-247 164.5t-164.5 247t-61 302.5zM310 720q0 -162 77.5 -298.5t213.5 -216.5t299 -80t299 80t214 216.5 t78 298.5t-78 298.5t-214 216.5t-299 80t-299 -80t-213.5 -216.5t-77.5 -298.5zM603 885v167h594v-167h-195v-526h-204v526h-195z" />
<glyph unicode="U&#x25cb;" d="M125 720q0 159 61 303t164.5 247.5t247 164.5t302.5 61t302.5 -61t247 -164.5t164.5 -247.5t61 -303t-61 -302.5t-164.5 -247t-247 -164.5t-302.5 -61t-302.5 61t-247 164.5t-164.5 247t-61 302.5zM310 720q0 -162 77.5 -298.5t213.5 -216.5t299 -80t299 80t214 216.5 t78 298.5t-78 298.5t-214 216.5t-299 80t-299 -80t-213.5 -216.5t-77.5 -298.5zM594 598v454h195v-436q0 -48 30.5 -76t80.5 -28q51 0 81 28t30 76v436h196v-454q0 -109 -84.5 -180t-222.5 -71q-137 0 -221.5 71t-84.5 180z" />
<glyph unicode="V&#x25cb;" d="M125 720q0 159 61 303t164.5 247.5t247 164.5t302.5 61t302.5 -61t247 -164.5t164.5 -247.5t61 -303t-61 -302.5t-164.5 -247t-247 -164.5t-302.5 -61t-302.5 61t-247 164.5t-164.5 247t-61 302.5zM310 720q0 -162 77.5 -298.5t213.5 -216.5t299 -80t299 80t214 216.5 t78 298.5t-78 298.5t-214 216.5t-299 80t-299 -80t-213.5 -216.5t-77.5 -298.5zM554 1046h221l120 -496h11l120 496h220l-213 -692h-266z" />
<glyph unicode="W&#x25cb;" d="M125 720q0 159 61 303t164.5 247.5t247 164.5t302.5 61t302.5 -61t247 -164.5t164.5 -247.5t61 -303t-61 -302.5t-164.5 -247t-247 -164.5t-302.5 -61t-302.5 61t-247 164.5t-164.5 247t-61 302.5zM310 720q0 -162 77.5 -298.5t213.5 -216.5t299 -80t299 80t214 216.5 t78 298.5t-78 298.5t-214 216.5t-299 80t-299 -80t-213.5 -216.5t-77.5 -298.5zM462 1052h179l81 -462h9l101 462h137l101 -462h9l81 462h178l-161 -693h-169l-105 424h-6l-104 -424h-169z" />
<glyph unicode="X&#x25cb;" d="M125 720q0 159 61 303t164.5 247.5t247 164.5t302.5 61t302.5 -61t247 -164.5t164.5 -247.5t61 -303t-61 -302.5t-164.5 -247t-247 -164.5t-302.5 -61t-302.5 61t-247 164.5t-164.5 247t-61 302.5zM310 720q0 -162 77.5 -298.5t213.5 -216.5t299 -80t299 80t214 216.5 t78 298.5t-78 298.5t-214 216.5t-299 80t-299 -80t-213.5 -216.5t-77.5 -298.5zM556 382l219 347l-218 345h222l117 -222h10l118 222h210l-216 -346l215 -346h-212l-120 222h-10l-119 -222h-216z" />
<glyph unicode="Y&#x25cb;" d="M125 720q0 159 61 303t164.5 247.5t247 164.5t302.5 61t302.5 -61t247 -164.5t164.5 -247.5t61 -303t-61 -302.5t-164.5 -247t-247 -164.5t-302.5 -61t-302.5 61t-247 164.5t-164.5 247t-61 302.5zM310 720q0 -162 77.5 -298.5t213.5 -216.5t299 -80t299 80t214 216.5 t78 298.5t-78 298.5t-214 216.5t-299 80t-299 -80t-213.5 -216.5t-77.5 -298.5zM558 1058h220l120 -273h6l120 273h218l-237 -467v-225h-209v224z" />
<glyph unicode="Z&#x25cb;" d="M125 720q0 159 61 303t164.5 247.5t247 164.5t302.5 61t302.5 -61t247 -164.5t164.5 -247.5t61 -303t-61 -302.5t-164.5 -247t-247 -164.5t-302.5 -61t-302.5 61t-247 164.5t-164.5 247t-61 302.5zM310 720q0 -162 77.5 -298.5t213.5 -216.5t299 -80t299 80t214 216.5 t78 298.5t-78 298.5t-214 216.5t-299 80t-299 -80t-213.5 -216.5t-77.5 -298.5zM627 382v130l298 391v10h-297v161h540v-130l-298 -391v-10h309v-161h-552z" />
<glyph unicode="&#x30;&#x25cb;" d="M125 720q0 159 61 303t164.5 247.5t247 164.5t302.5 61t302.5 -61t247 -164.5t164.5 -247.5t61 -303t-61 -302.5t-164.5 -247t-247 -164.5t-302.5 -61t-302.5 61t-247 164.5t-164.5 247t-61 302.5zM310 720q0 -162 77.5 -298.5t213.5 -216.5t299 -80t299 80t214 216.5 t78 298.5t-78 298.5t-214 216.5t-299 80t-299 -80t-213.5 -216.5t-77.5 -298.5zM608 727q0 166 79 261.5t211 95.5t213 -95.5t81 -261.5t-81 -261.5t-213 -95.5t-211 95.5t-79 261.5zM798 727q0 -198 102 -198q48 0 75.5 49t27.5 149q0 197 -103 197q-102 0 -102 -197z" />
<glyph unicode="A&#x25a1;" d="M152 229v986q0 106 76.5 181.5t184.5 75.5h975q108 0 184 -75t76 -182v-986q0 -107 -76 -182t-184 -75h-975q-108 0 -184.5 75.5t-76.5 181.5zM332 270q0 -52 39.5 -89.5t93.5 -37.5h870q55 0 94 37.5t39 89.5v904q0 53 -38.5 90t-94.5 37h-870q-55 0 -94 -36.5 t-39 -90.5v-904zM554 398l226 693h241l225 -693h-196l-40 135h-220l-39 -135h-197zM824 678h153l-69 240h-15z" />
<glyph unicode="B&#x25a1;" d="M152 229v986q0 106 76.5 181.5t184.5 75.5h975q108 0 184 -75t76 -182v-986q0 -107 -76 -182t-184 -75h-975q-108 0 -184.5 75.5t-76.5 181.5zM332 270q0 -52 39.5 -89.5t93.5 -37.5h870q55 0 94 37.5t39 89.5v904q0 53 -38.5 90t-94.5 37h-870q-55 0 -94 -36.5 t-39 -90.5v-904zM631 382v692h343q100 0 158 -45.5t58 -124.5q0 -59 -36 -99t-96 -51v-9q75 -8 119 -53t44 -119q0 -86 -67 -138.5t-173 -52.5h-350zM817 519h87q122 0 122 82q0 38 -27.5 60t-76.5 22h-105v-164zM817 796h79q109 0 109 76q0 34 -24 53t-65 19h-99v-148z" />
<glyph unicode="C&#x25a1;" d="M152 229v986q0 106 76.5 181.5t184.5 75.5h975q108 0 184 -75t76 -182v-986q0 -107 -76 -182t-184 -75h-975q-108 0 -184.5 75.5t-76.5 181.5zM332 270q0 -52 39.5 -89.5t93.5 -37.5h870q55 0 94 37.5t39 89.5v904q0 53 -38.5 90t-94.5 37h-870q-55 0 -94 -36.5 t-39 -90.5v-904zM562 727q0 164 94.5 261t243.5 97q136 0 222.5 -74.5t94.5 -194.5h-185q-4 45 -40.5 74.5t-88.5 29.5q-65 0 -104 -51.5t-39 -141.5t39 -141t104 -51q50 0 86.5 29t40.5 72h186q-9 -119 -95.5 -192.5t-220.5 -73.5q-148 0 -243 96.5t-95 260.5z" />
<glyph unicode="D&#x25a1;" d="M152 229v986q0 106 76.5 181.5t184.5 75.5h975q108 0 184 -75t76 -182v-986q0 -107 -76 -182t-184 -75h-975q-108 0 -184.5 75.5t-76.5 181.5zM332 270q0 -52 39.5 -89.5t93.5 -37.5h870q55 0 94 37.5t39 89.5v904q0 53 -38.5 90t-94.5 37h-870q-55 0 -94 -36.5 t-39 -90.5v-904zM618 382v692h298q160 0 242 -89t82 -257t-82.5 -257t-241.5 -89h-298zM810 538h75q80 0 117 45.5t37 143.5q0 99 -37 145t-117 46h-75v-380z" />
<glyph unicode="E&#x25a1;" d="M152 229v986q0 106 76.5 181.5t184.5 75.5h975q108 0 184 -75t76 -182v-986q0 -107 -76 -182t-184 -75h-975q-108 0 -184.5 75.5t-76.5 181.5zM332 270q0 -52 39.5 -89.5t93.5 -37.5h870q55 0 94 37.5t39 89.5v904q0 53 -38.5 90t-94.5 37h-870q-55 0 -94 -36.5 t-39 -90.5v-904zM663 382v692h495v-154h-306v-123h287v-133h-287v-128h306v-154h-495z" />
<glyph unicode="F&#x25a1;" d="M152 229v986q0 106 76.5 181.5t184.5 75.5h975q108 0 184 -75t76 -182v-986q0 -107 -76 -182t-184 -75h-975q-108 0 -184.5 75.5t-76.5 181.5zM332 270q0 -52 39.5 -89.5t93.5 -37.5h870q55 0 94 37.5t39 89.5v904q0 53 -38.5 90t-94.5 37h-870q-55 0 -94 -36.5 t-39 -90.5v-904zM680 382v692h493v-156h-295v-133h268v-156h-268v-247h-198z" />
<glyph unicode="G&#x25a1;" d="M152 229v986q0 106 76.5 181.5t184.5 75.5h975q108 0 184 -75t76 -182v-986q0 -107 -76 -182t-184 -75h-975q-108 0 -184.5 75.5t-76.5 181.5zM332 270q0 -52 39.5 -89.5t93.5 -37.5h870q55 0 94 37.5t39 89.5v904q0 53 -38.5 90t-94.5 37h-870q-55 0 -94 -36.5 t-39 -90.5v-904zM562 727q0 160 93.5 259t245.5 99q128 0 215 -67t101 -178h-190q-5 41 -39 66t-84 25q-65 0 -104.5 -55.5t-39.5 -148.5t40 -150.5t104 -57.5q61 0 95 26t34 68v28h-127v125h309v-121q0 -120 -84.5 -197.5t-229.5 -77.5q-152 0 -245.5 98.5t-93.5 258.5z " />
<glyph unicode="H&#x25a1;" d="M152 229v986q0 106 76.5 181.5t184.5 75.5h975q108 0 184 -75t76 -182v-986q0 -107 -76 -182t-184 -75h-975q-108 0 -184.5 75.5t-76.5 181.5zM332 270q0 -52 39.5 -89.5t93.5 -37.5h870q55 0 94 37.5t39 89.5v904q0 53 -38.5 90t-94.5 37h-870q-55 0 -94 -36.5 t-39 -90.5v-904zM591 382v692h187v-263h245v263h187v-692h-187v265h-245v-265h-187z" />
<glyph unicode="I&#x25a1;" d="M152 229v986q0 106 76.5 181.5t184.5 75.5h975q108 0 184 -75t76 -182v-986q0 -107 -76 -182t-184 -75h-975q-108 0 -184.5 75.5t-76.5 181.5zM332 270q0 -52 39.5 -89.5t93.5 -37.5h870q55 0 94 37.5t39 89.5v904q0 53 -38.5 90t-94.5 37h-870q-55 0 -94 -36.5 t-39 -90.5v-904zM793 382v692h214v-692h-214z" />
<glyph unicode="J&#x25a1;" d="M152 229v986q0 106 76.5 181.5t184.5 75.5h975q108 0 184 -75t76 -182v-986q0 -107 -76 -182t-184 -75h-975q-108 0 -184.5 75.5t-76.5 181.5zM332 270q0 -52 39.5 -89.5t93.5 -37.5h870q55 0 94 37.5t39 89.5v904q0 53 -38.5 90t-94.5 37h-870q-55 0 -94 -36.5 t-39 -90.5v-904zM602 621h194q0 -39 19.5 -59.5t54.5 -20.5q73 0 73 89v433h201v-437q0 -125 -72 -196t-198 -71t-199 72t-73 190z" />
<glyph unicode="K&#x25a1;" d="M152 229v986q0 106 76.5 181.5t184.5 75.5h975q108 0 184 -75t76 -182v-986q0 -107 -76 -182t-184 -75h-975q-108 0 -184.5 75.5t-76.5 181.5zM332 270q0 -52 39.5 -89.5t93.5 -37.5h870q55 0 94 37.5t39 89.5v904q0 53 -38.5 90t-94.5 37h-870q-55 0 -94 -36.5 t-39 -90.5v-904zM611 382v692h182v-274h14l214 274h213l-229 -314l235 -378h-225l-158 254l-64 -74v-180h-182z" />
<glyph unicode="L&#x25a1;" d="M152 229v986q0 106 76.5 181.5t184.5 75.5h975q108 0 184 -75t76 -182v-986q0 -107 -76 -182t-184 -75h-975q-108 0 -184.5 75.5t-76.5 181.5zM332 270q0 -52 39.5 -89.5t93.5 -37.5h870q55 0 94 37.5t39 89.5v904q0 53 -38.5 90t-94.5 37h-870q-55 0 -94 -36.5 t-39 -90.5v-904zM699 393v692h204v-522h284v-170h-488z" />
<glyph unicode="M&#x25a1;" d="M152 229v986q0 106 76.5 181.5t184.5 75.5h975q108 0 184 -75t76 -182v-986q0 -107 -76 -182t-184 -75h-975q-108 0 -184.5 75.5t-76.5 181.5zM332 270q0 -52 39.5 -89.5t93.5 -37.5h870q55 0 94 37.5t39 89.5v904q0 53 -38.5 90t-94.5 37h-870q-55 0 -94 -36.5 t-39 -90.5v-904zM547 382v692h190l162 -448h5l162 448h189v-692h-152v420h-15l-140 -381h-96l-139 381h-15v-420h-151z" />
<glyph unicode="N&#x25a1;" d="M152 229v986q0 106 76.5 181.5t184.5 75.5h975q108 0 184 -75t76 -182v-986q0 -107 -76 -182t-184 -75h-975q-108 0 -184.5 75.5t-76.5 181.5zM332 270q0 -52 39.5 -89.5t93.5 -37.5h870q55 0 94 37.5t39 89.5v904q0 53 -38.5 90t-94.5 37h-870q-55 0 -94 -36.5 t-39 -90.5v-904zM598 382v692h144l276 -379h14v379h170v-692h-142l-278 384h-13v-384h-171z" />
<glyph unicode="O&#x25a1;" d="M152 229v986q0 106 76.5 181.5t184.5 75.5h975q108 0 184 -75t76 -182v-986q0 -107 -76 -182t-184 -75h-975q-108 0 -184.5 75.5t-76.5 181.5zM332 270q0 -52 39.5 -89.5t93.5 -37.5h870q55 0 94 37.5t39 89.5v904q0 53 -38.5 90t-94.5 37h-870q-55 0 -94 -36.5 t-39 -90.5v-904zM561 727q0 167 96 262.5t243 95.5t243 -95.5t96 -262.5q0 -166 -96 -261.5t-243 -95.5t-243 95.5t-96 261.5zM759 727q0 -92 39.5 -142t101.5 -50t101.5 50t39.5 142q0 93 -39.5 143t-101.5 50t-101.5 -50t-39.5 -143z" />
<glyph unicode="P&#x25a1;" d="M152 229v986q0 106 76.5 181.5t184.5 75.5h975q108 0 184 -75t76 -182v-986q0 -107 -76 -182t-184 -75h-975q-108 0 -184.5 75.5t-76.5 181.5zM332 270q0 -52 39.5 -89.5t93.5 -37.5h870q55 0 94 37.5t39 89.5v904q0 53 -38.5 90t-94.5 37h-870q-55 0 -94 -36.5 t-39 -90.5v-904zM657 382v692h315q118 0 188 -69.5t70 -183.5q0 -113 -70 -181t-190 -68h-111v-190h-202zM848 722h89q98 0 98 99q0 100 -98 100h-89v-199z" />
<glyph unicode="Q&#x25a1;" d="M152 229v986q0 106 76.5 181.5t184.5 75.5h975q108 0 184 -75t76 -182v-986q0 -107 -76 -182t-184 -75h-975q-108 0 -184.5 75.5t-76.5 181.5zM332 270q0 -52 39.5 -89.5t93.5 -37.5h870q55 0 94 37.5t39 89.5v904q0 53 -38.5 90t-94.5 37h-870q-55 0 -94 -36.5 t-39 -90.5v-904zM561 727q0 167 96 262.5t243 95.5t243 -95.5t96 -262.5q0 -177 -111 -275l91 -130h-190l-35 60q-43 -12 -94 -12q-147 0 -243 95.5t-96 261.5zM759 727q0 -92 39.5 -142t101.5 -50q18 0 31 4l-54 96h110l22 -27q32 46 32 119q0 93 -39.5 143t-101.5 50 t-101.5 -50t-39.5 -143z" />
<glyph unicode="R&#x25a1;" d="M152 229v986q0 106 76.5 181.5t184.5 75.5h975q108 0 184 -75t76 -182v-986q0 -107 -76 -182t-184 -75h-975q-108 0 -184.5 75.5t-76.5 181.5zM332 270q0 -52 39.5 -89.5t93.5 -37.5h870q55 0 94 37.5t39 89.5v904q0 53 -38.5 90t-94.5 37h-870q-55 0 -94 -36.5 t-39 -90.5v-904zM624 382v692h312q131 0 203 -59t72 -166q0 -71 -37 -122t-98 -71l149 -274h-208l-117 238h-93v-238h-183zM807 754h105q47 0 73.5 21.5t26.5 62.5q0 42 -26 64.5t-72 22.5h-107v-171z" />
<glyph unicode="S&#x25a1;" d="M152 229v986q0 106 76.5 181.5t184.5 75.5h975q108 0 184 -75t76 -182v-986q0 -107 -76 -182t-184 -75h-975q-108 0 -184.5 75.5t-76.5 181.5zM332 270q0 -52 39.5 -89.5t93.5 -37.5h870q55 0 94 37.5t39 89.5v904q0 53 -38.5 90t-94.5 37h-870q-55 0 -94 -36.5 t-39 -90.5v-904zM601 585h190q5 -32 35.5 -50.5t78.5 -18.5q49 0 78 18.5t29 49.5q0 25 -23.5 39t-85.5 25l-90 16q-97 16 -148 67.5t-51 131.5q0 100 78.5 161t208.5 61q122 0 200 -57t85 -152h-184q-5 31 -31.5 48.5t-69.5 17.5t-69 -17.5t-26 -46.5q0 -46 99 -61l97 -17 q198 -34 198 -199q0 -106 -82 -168t-220 -62q-134 0 -213 57t-84 157z" />
<glyph unicode="T&#x25a1;" d="M152 229v986q0 106 76.5 181.5t184.5 75.5h975q108 0 184 -75t76 -182v-986q0 -107 -76 -182t-184 -75h-975q-108 0 -184.5 75.5t-76.5 181.5zM332 270q0 -52 39.5 -89.5t93.5 -37.5h870q55 0 94 37.5t39 89.5v904q0 53 -38.5 90t-94.5 37h-870q-55 0 -94 -36.5 t-39 -90.5v-904zM603 894v167h594v-167h-195v-526h-204v526h-195z" />
<glyph unicode="U&#x25a1;" d="M152 229v986q0 106 76.5 181.5t184.5 75.5h975q108 0 184 -75t76 -182v-986q0 -107 -76 -182t-184 -75h-975q-108 0 -184.5 75.5t-76.5 181.5zM332 270q0 -52 39.5 -89.5t93.5 -37.5h870q55 0 94 37.5t39 89.5v904q0 53 -38.5 90t-94.5 37h-870q-55 0 -94 -36.5 t-39 -90.5v-904zM594 607v454h195v-436q0 -48 30.5 -76t80.5 -28q51 0 81 28t30 76v436h196v-454q0 -109 -84.5 -180t-222.5 -71q-137 0 -221.5 71t-84.5 180z" />
<glyph unicode="V&#x25a1;" d="M152 229v986q0 106 76.5 181.5t184.5 75.5h975q108 0 184 -75t76 -182v-986q0 -107 -76 -182t-184 -75h-975q-108 0 -184.5 75.5t-76.5 181.5zM332 270q0 -52 39.5 -89.5t93.5 -37.5h870q55 0 94 37.5t39 89.5v904q0 53 -38.5 90t-94.5 37h-870q-55 0 -94 -36.5 t-39 -90.5v-904zM554 1055h221l120 -496h11l120 496h220l-213 -692h-266z" />
<glyph unicode="W&#x25a1;" d="M152 229v986q0 106 76.5 181.5t184.5 75.5h975q108 0 184 -75t76 -182v-986q0 -107 -76 -182t-184 -75h-975q-108 0 -184.5 75.5t-76.5 181.5zM332 270q0 -52 39.5 -89.5t93.5 -37.5h870q55 0 94 37.5t39 89.5v904q0 53 -38.5 90t-94.5 37h-870q-55 0 -94 -36.5 t-39 -90.5v-904zM462 1061h179l81 -462h9l101 462h137l101 -462h9l81 462h178l-161 -693h-169l-105 424h-6l-104 -424h-169z" />
<glyph unicode="X&#x25a1;" d="M152 229v986q0 106 76.5 181.5t184.5 75.5h975q108 0 184 -75t76 -182v-986q0 -107 -76 -182t-184 -75h-975q-108 0 -184.5 75.5t-76.5 181.5zM332 270q0 -52 39.5 -89.5t93.5 -37.5h870q55 0 94 37.5t39 89.5v904q0 53 -38.5 90t-94.5 37h-870q-55 0 -94 -36.5 t-39 -90.5v-904zM556 382l219 347l-218 345h222l117 -222h10l118 222h210l-216 -346l215 -346h-212l-120 222h-10l-119 -222h-216z" />
<glyph unicode="Y&#x25a1;" d="M152 229v986q0 106 76.5 181.5t184.5 75.5h975q108 0 184 -75t76 -182v-986q0 -107 -76 -182t-184 -75h-975q-108 0 -184.5 75.5t-76.5 181.5zM332 270q0 -52 39.5 -89.5t93.5 -37.5h870q55 0 94 37.5t39 89.5v904q0 53 -38.5 90t-94.5 37h-870q-55 0 -94 -36.5 t-39 -90.5v-904zM558 1061h220l120 -274h6l120 274h218l-237 -468v-225h-209v224z" />
<glyph unicode="Z&#x25a1;" d="M152 229v986q0 106 76.5 181.5t184.5 75.5h975q108 0 184 -75t76 -182v-986q0 -107 -76 -182t-184 -75h-975q-108 0 -184.5 75.5t-76.5 181.5zM332 270q0 -52 39.5 -89.5t93.5 -37.5h870q55 0 94 37.5t39 89.5v904q0 53 -38.5 90t-94.5 37h-870q-55 0 -94 -36.5 t-39 -90.5v-904zM627 382v130l298 391v10h-297v161h540v-130l-298 -391v-10h309v-161h-552z" />
<glyph unicode="&#x2b;&#x25cb;" d="M125 720q0 159 61 303t164.5 247.5t247 164.5t302.5 61t302.5 -61t247 -164.5t164.5 -247.5t61 -303t-61 -302.5t-164.5 -247t-247 -164.5t-302.5 -61t-302.5 61t-247 164.5t-164.5 247t-61 302.5zM310 720q0 -162 77.5 -298.5t213.5 -216.5t299 -80t299 80t214 216.5 t78 298.5t-78 298.5t-214 216.5t-299 80t-299 -80t-213.5 -216.5t-77.5 -298.5zM608 641v171h206v207h173v-207h205v-171h-205v-210h-173v210h-206z" />
<glyph unicode="&#x2212;&#x25cb;" d="M125 720q0 159 61 303t164.5 247.5t247 164.5t302.5 61t302.5 -61t247 -164.5t164.5 -247.5t61 -303t-61 -302.5t-164.5 -247t-247 -164.5t-302.5 -61t-302.5 61t-247 164.5t-164.5 247t-61 302.5zM310 720q0 -162 77.5 -298.5t213.5 -216.5t299 -80t299 80t214 216.5 t78 298.5t-78 298.5t-214 216.5t-299 80t-299 -80t-213.5 -216.5t-77.5 -298.5zM635 636v178h530v-178h-530z" />
<glyph unicode="&#xd7;&#x25cb;" d="M125 720q0 159 61 303t164.5 247.5t247 164.5t302.5 61t302.5 -61t247 -164.5t164.5 -247.5t61 -303t-61 -302.5t-164.5 -247t-247 -164.5t-302.5 -61t-302.5 61t-247 164.5t-164.5 247t-61 302.5zM310 720q0 -162 77.5 -298.5t213.5 -216.5t299 -80t299 80t214 216.5 t78 298.5t-78 298.5t-214 216.5t-299 80t-299 -80t-213.5 -216.5t-77.5 -298.5zM618 881l122 125l160 -155l159 155l123 -126l-159 -155l159 -156l-123 -124l-159 155l-160 -155l-121 124l159 156z" />
<glyph unicode="&#xf7;&#x25cb;" d="M125 720q0 159 61 303t164.5 247.5t247 164.5t302.5 61t302.5 -61t247 -164.5t164.5 -247.5t61 -303t-61 -302.5t-164.5 -247t-247 -164.5t-302.5 -61t-302.5 61t-247 164.5t-164.5 247t-61 302.5zM310 720q0 -162 77.5 -298.5t213.5 -216.5t299 -80t299 80t214 216.5 t78 298.5t-78 298.5t-214 216.5t-299 80t-299 -80t-213.5 -216.5t-77.5 -298.5zM635 656v138h530v-138h-530zM803 502q0 39 27.5 64t69.5 25t70.5 -25t28.5 -64q0 -38 -28.5 -63t-70.5 -25q-41 0 -69 25t-28 63zM803 949q0 39 27.5 64.5t69.5 25.5t70.5 -25.5t28.5 -64.5 q0 -37 -28.5 -62t-70.5 -25q-41 0 -69 25t-28 62z" />
<glyph unicode="&#x3d;&#x25cb;" d="M125 720q0 159 61 303t164.5 247.5t247 164.5t302.5 61t302.5 -61t247 -164.5t164.5 -247.5t61 -303t-61 -302.5t-164.5 -247t-247 -164.5t-302.5 -61t-302.5 61t-247 164.5t-164.5 247t-61 302.5zM310 720q0 -162 77.5 -298.5t213.5 -216.5t299 -80t299 80t214 216.5 t78 298.5t-78 298.5t-214 216.5t-299 80t-299 -80t-213.5 -216.5t-77.5 -298.5zM628 514v156h545v-156h-545zM628 779v155h545v-155h-545z" />
<glyph unicode="&#x3e;&#x25cb;" d="M125 720q0 159 61 303t164.5 247.5t247 164.5t302.5 61t302.5 -61t247 -164.5t164.5 -247.5t61 -303t-61 -302.5t-164.5 -247t-247 -164.5t-302.5 -61t-302.5 61t-247 164.5t-164.5 247t-61 302.5zM310 720q0 -162 77.5 -298.5t213.5 -216.5t299 -80t299 80t214 216.5 t78 298.5t-78 298.5t-214 216.5t-299 80t-299 -80t-213.5 -216.5t-77.5 -298.5zM666 414v189l284 118v8l-284 114v194l521 -259v-112z" />
<glyph unicode="&#x3c;&#x25cb;" d="M125 720q0 159 61 303t164.5 247.5t247 164.5t302.5 61t302.5 -61t247 -164.5t164.5 -247.5t61 -303t-61 -302.5t-164.5 -247t-247 -164.5t-302.5 -61t-302.5 61t-247 164.5t-164.5 247t-61 302.5zM310 720q0 -162 77.5 -298.5t213.5 -216.5t299 -80t299 80t214 216.5 t78 298.5t-78 298.5t-214 216.5t-299 80t-299 -80t-213.5 -216.5t-77.5 -298.5zM614 666v112l521 259v-194l-285 -114v-8l285 -118v-189z" />
<glyph unicode="&#x23;&#x25cb;" d="M125 720q0 159 61 303t164.5 247.5t247 164.5t302.5 61t302.5 -61t247 -164.5t164.5 -247.5t61 -303t-61 -302.5t-164.5 -247t-247 -164.5t-302.5 -61t-302.5 61t-247 164.5t-164.5 247t-61 302.5zM310 720q0 -162 77.5 -298.5t213.5 -216.5t299 -80t299 80t214 216.5 t78 298.5t-78 298.5t-214 216.5t-299 80t-299 -80t-213.5 -216.5t-77.5 -298.5zM581 550l26 133h97l20 94h-97l25 134h97l33 161h139l-34 -161h94l32 161h139l-32 -161h99l-25 -134h-99l-20 -94h99l-26 -133h-100l-35 -170h-139l35 170h-93l-35 -170h-139l36 170h-97z M827 663h119l25 125h-118z" />
<glyph unicode="&#x25bc;&#x25cb;" d="M125 720q0 159 61 303t164.5 247.5t247 164.5t302.5 61t302.5 -61t247 -164.5t164.5 -247.5t61 -303t-61 -302.5t-164.5 -247t-247 -164.5t-302.5 -61t-302.5 61t-247 164.5t-164.5 247t-61 302.5zM310 720q0 -162 77.5 -298.5t213.5 -216.5t299 -80t299 80t214 216.5 t78 298.5t-78 298.5t-214 216.5t-299 80t-299 -80t-213.5 -216.5t-77.5 -298.5zM573 947h655l-328 -571z" />
<glyph unicode="&#x25b2;&#x25cb;" d="M125 720q0 159 61 303t164.5 247.5t247 164.5t302.5 61t302.5 -61t247 -164.5t164.5 -247.5t61 -303t-61 -302.5t-164.5 -247t-247 -164.5t-302.5 -61t-302.5 61t-247 164.5t-164.5 247t-61 302.5zM310 720q0 -162 77.5 -298.5t213.5 -216.5t299 -80t299 80t214 216.5 t78 298.5t-78 298.5t-214 216.5t-299 80t-299 -80t-213.5 -216.5t-77.5 -298.5zM573 504l327 570l328 -570h-655z" />
<glyph unicode="&#x25c0;&#x25cb;" d="M125 720q0 159 61 303t164.5 247.5t247 164.5t302.5 61t302.5 -61t247 -164.5t164.5 -247.5t61 -303t-61 -302.5t-164.5 -247t-247 -164.5t-302.5 -61t-302.5 61t-247 164.5t-164.5 247t-61 302.5zM310 720q0 -162 77.5 -298.5t213.5 -216.5t299 -80t299 80t214 216.5 t78 298.5t-78 298.5t-214 216.5t-299 80t-299 -80t-213.5 -216.5t-77.5 -298.5zM551 728l568 328v-657z" />
<glyph unicode="&#x25b6;&#x25cb;" d="M125 720q0 159 61 303t164.5 247.5t247 164.5t302.5 61t302.5 -61t247 -164.5t164.5 -247.5t61 -303t-61 -302.5t-164.5 -247t-247 -164.5t-302.5 -61t-302.5 61t-247 164.5t-164.5 247t-61 302.5zM310 720q0 -162 77.5 -298.5t213.5 -216.5t299 -80t299 80t214 216.5 t78 298.5t-78 298.5t-214 216.5t-299 80t-299 -80t-213.5 -216.5t-77.5 -298.5zM682 399v657l568 -328z" />
<glyph unicode="&#x3f;&#x25cb;" d="M125 720q0 159 61 303t164.5 247.5t247 164.5t302.5 61t302.5 -61t247 -164.5t164.5 -247.5t61 -303t-61 -302.5t-164.5 -247t-247 -164.5t-302.5 -61t-302.5 61t-247 164.5t-164.5 247t-61 302.5zM310 720q0 -162 77.5 -298.5t213.5 -216.5t299 -80t299 80t214 216.5 t78 298.5t-78 298.5t-214 216.5t-299 80t-299 -80t-213.5 -216.5t-77.5 -298.5zM651 867q-1 108 71 163t192 55q109 0 179 -53.5t70 -146.5q0 -56 -26 -94t-76 -70q-59 -40 -75.5 -57.5t-16.5 -46.5v-12h-169q-2 5 -2 31q-3 92 87 149q46 30 64 49t18 43q0 29 -19.5 44 t-49.5 15q-32 0 -51.5 -19.5t-20.5 -49.5h-175zM777 461q0 43 31 67t84 24t83.5 -24t30.5 -67q0 -41 -30.5 -65.5t-83.5 -24.5t-84 24.5t-31 65.5z" />
<glyph unicode="&#x21;&#x25cb;" d="M125 720q0 159 61 303t164.5 247.5t247 164.5t302.5 61t302.5 -61t247 -164.5t164.5 -247.5t61 -303t-61 -302.5t-164.5 -247t-247 -164.5t-302.5 -61t-302.5 61t-247 164.5t-164.5 247t-61 302.5zM310 720q0 -162 77.5 -298.5t213.5 -216.5t299 -80t299 80t214 216.5 t78 298.5t-78 298.5t-214 216.5t-299 80t-299 -80t-213.5 -216.5t-77.5 -298.5zM789 461q0 43 31 67.5t84 24.5t83.5 -24.5t30.5 -67.5q0 -41 -30.5 -65.5t-83.5 -24.5t-84 24.5t-31 65.5zM798 1074h213l-23 -456h-168z" />
<glyph unicode="&#x2717;&#x25cb;" d="M125 720q0 159 61 303t164.5 247.5t247 164.5t302.5 61t302.5 -61t247 -164.5t164.5 -247.5t61 -303t-61 -302.5t-164.5 -247t-247 -164.5t-302.5 -61t-302.5 61t-247 164.5t-164.5 247t-61 302.5zM310 720q0 -162 77.5 -298.5t213.5 -216.5t299 -80t299 80t214 216.5 t78 298.5t-78 298.5t-214 216.5t-299 80t-299 -80t-213.5 -216.5t-77.5 -298.5zM558 500l226 223l-225 223l118 123l227 -223l226 222l119 -122l-225 -223l225 -222l-119 -123l-226 221l-227 -222z" />
<glyph unicode="&#x2713;&#x25cb;" d="M125 720q0 159 61 303t164.5 247.5t247 164.5t302.5 61t302.5 -61t247 -164.5t164.5 -247.5t61 -303t-61 -302.5t-164.5 -247t-247 -164.5t-302.5 -61t-302.5 61t-247 164.5t-164.5 247t-61 302.5zM310 720q0 -162 77.5 -298.5t213.5 -216.5t299 -80t299 80t214 216.5 t78 298.5t-78 298.5t-214 216.5t-299 80t-299 -80t-213.5 -216.5t-77.5 -298.5zM474 683l125 126l188 -187l419 415l122 -130l-543 -532z" />
<glyph unicode="&#x30;&#x25a1;" d="M152 229v986q0 106 76.5 181.5t184.5 75.5h975q108 0 184 -75t76 -182v-986q0 -107 -76 -182t-184 -75h-975q-108 0 -184.5 75.5t-76.5 181.5zM332 270q0 -52 39.5 -89.5t93.5 -37.5h870q55 0 94 37.5t39 89.5v904q0 53 -38.5 90t-94.5 37h-870q-55 0 -94 -36.5 t-39 -90.5v-904zM608 727q0 166 79 261.5t211 95.5t213 -95.5t81 -261.5t-81 -261.5t-213 -95.5t-211 95.5t-79 261.5zM798 727q0 -198 102 -198q48 0 75.5 49t27.5 149q0 197 -103 197q-102 0 -102 -197z" />
<glyph unicode="&#x31;&#x25a1;" d="M152 229v986q0 106 76.5 181.5t184.5 75.5h975q108 0 184 -75t76 -182v-986q0 -107 -76 -182t-184 -75h-975q-108 0 -184.5 75.5t-76.5 181.5zM332 270q0 -52 39.5 -89.5t93.5 -37.5h870q55 0 94 37.5t39 89.5v904q0 53 -38.5 90t-94.5 37h-870q-55 0 -94 -36.5 t-39 -90.5v-904zM672 786v177l167 111h201v-692h-201v510h-10z" />
<glyph unicode="&#x32;&#x25a1;" d="M152 229v986q0 106 76.5 181.5t184.5 75.5h975q108 0 184 -75t76 -182v-986q0 -107 -76 -182t-184 -75h-975q-108 0 -184.5 75.5t-76.5 181.5zM332 270q0 -52 39.5 -89.5t93.5 -37.5h870q55 0 94 37.5t39 89.5v904q0 53 -38.5 90t-94.5 37h-870q-55 0 -94 -36.5 t-39 -90.5v-904zM630 845v3q0 104 72.5 170.5t199.5 66.5q118 0 190.5 -57.5t72.5 -148.5q0 -55 -31.5 -103.5t-99.5 -111.5l-121 -114v-8h263v-161h-534v127l249 235q41 39 59 64.5t18 53.5q0 29 -21 47t-53 18q-37 0 -58 -22t-20 -56v-3h-186z" />
<glyph unicode="&#x33;&#x25a1;" d="M152 229v986q0 106 76.5 181.5t184.5 75.5h975q108 0 184 -75t76 -182v-986q0 -107 -76 -182t-184 -75h-975q-108 0 -184.5 75.5t-76.5 181.5zM332 270q0 -52 39.5 -89.5t93.5 -37.5h870q55 0 94 37.5t39 89.5v904q0 53 -38.5 90t-94.5 37h-870q-55 0 -94 -36.5 t-39 -90.5v-904zM613 593h183q2 -32 29 -52t70 -21q45 0 72 19.5t27 50.5q-1 31 -27 50t-70 19h-72v149h70q37 0 60.5 19t23.5 50q0 28 -23.5 45t-60.5 17q-40 0 -64.5 -21.5t-26.5 -53.5h-183q4 104 75.5 162.5t201.5 58.5q123 0 196.5 -51t75.5 -134q1 -57 -40.5 -99.5 t-91.5 -49.5v-10q60 -5 104.5 -49t45.5 -114q1 -95 -80 -151t-212 -56q-129 0 -205 61.5t-78 160.5z" />
<glyph unicode="&#x34;&#x25a1;" d="M152 229v986q0 106 76.5 181.5t184.5 75.5h975q108 0 184 -75t76 -182v-986q0 -107 -76 -182t-184 -75h-975q-108 0 -184.5 75.5t-76.5 181.5zM332 270q0 -52 39.5 -89.5t93.5 -37.5h870q55 0 94 37.5t39 89.5v904q0 53 -38.5 90t-94.5 37h-870q-55 0 -94 -36.5 t-39 -90.5v-904zM591 494v155q75 145 243 425h271v-428h95v-152h-95v-112h-168v112h-346zM763 646h174v287h-14q-116 -199 -160 -285v-2z" />
<glyph unicode="&#x35;&#x25a1;" d="M152 229v986q0 106 76.5 181.5t184.5 75.5h975q108 0 184 -75t76 -182v-986q0 -107 -76 -182t-184 -75h-975q-108 0 -184.5 75.5t-76.5 181.5zM332 270q0 -52 39.5 -89.5t93.5 -37.5h870q55 0 94 37.5t39 89.5v904q0 53 -38.5 90t-94.5 37h-870q-55 0 -94 -36.5 t-39 -90.5v-904zM631 591h185q6 -30 33 -46.5t62 -16.5q40 0 68.5 26.5t28.5 68.5q0 39 -28.5 64.5t-69.5 25.5q-31 0 -54 -13.5t-34 -33.5h-177l27 414h481v-147h-330l-12 -147h9q15 27 55.5 46t94.5 19q101 0 165 -60t64 -162q0 -116 -78.5 -184.5t-211.5 -68.5 q-121 0 -198.5 60.5t-79.5 154.5z" />
<glyph unicode="&#x36;&#x25a1;" d="M152 229v986q0 106 76.5 181.5t184.5 75.5h975q108 0 184 -75t76 -182v-986q0 -107 -76 -182t-184 -75h-975q-108 0 -184.5 75.5t-76.5 181.5zM332 270q0 -52 39.5 -89.5t93.5 -37.5h870q55 0 94 37.5t39 89.5v904q0 53 -38.5 90t-94.5 37h-870q-55 0 -94 -36.5 t-39 -90.5v-904zM608 635q0 127 94 263q33 53 136 177h232q-38 -42 -99.5 -118t-81.5 -105q-16 -22 -26 -41h9q48 33 110 33q89 0 148.5 -61t59.5 -152q0 -117 -79 -189t-208 -72q-131 0 -213 73.5t-82 191.5zM806 620q0 -40 27 -65.5t69 -25.5t69 25.5t27 65.5q0 39 -27 65 t-69 26t-69 -26t-27 -65z" />
<glyph unicode="&#x37;&#x25a1;" d="M152 229v986q0 106 76.5 181.5t184.5 75.5h975q108 0 184 -75t76 -182v-986q0 -107 -76 -182t-184 -75h-975q-108 0 -184.5 75.5t-76.5 181.5zM332 270q0 -52 39.5 -89.5t93.5 -37.5h870q55 0 94 37.5t39 89.5v904q0 53 -38.5 90t-94.5 37h-870q-55 0 -94 -36.5 t-39 -90.5v-904zM633 914v160h543v-162l-274 -530h-213l284 524v8h-340z" />
<glyph unicode="&#x38;&#x25a1;" d="M152 229v986q0 106 76.5 181.5t184.5 75.5h975q108 0 184 -75t76 -182v-986q0 -107 -76 -182t-184 -75h-975q-108 0 -184.5 75.5t-76.5 181.5zM332 270q0 -52 39.5 -89.5t93.5 -37.5h870q55 0 94 37.5t39 89.5v904q0 53 -38.5 90t-94.5 37h-870q-55 0 -94 -36.5 t-39 -90.5v-904zM595 577q0 66 42.5 110.5t113.5 55.5v9q-127 37 -127 147q0 84 75.5 135t200.5 51t200.5 -51t75.5 -135q0 -112 -127 -147v-9q71 -11 113.5 -55.5t42.5 -110.5q0 -95 -83 -151t-223 -56q-139 0 -221.5 56t-82.5 151zM798 592q0 -37 29 -61.5t73 -24.5 t73 24.5t29 61.5q0 38 -28.5 63t-73.5 25q-44 0 -73 -25t-29 -63zM816 877q0 -32 24 -53t60 -21q37 0 60.5 21t23.5 53q0 31 -24 52t-60 21t-60 -21t-24 -52z" />
<glyph unicode="&#x39;&#x25a1;" d="M152 229v986q0 106 76.5 181.5t184.5 75.5h975q108 0 184 -75t76 -182v-986q0 -107 -76 -182t-184 -75h-975q-108 0 -184.5 75.5t-76.5 181.5zM332 270q0 -52 39.5 -89.5t93.5 -37.5h870q55 0 94 37.5t39 89.5v904q0 53 -38.5 90t-94.5 37h-870q-55 0 -94 -36.5 t-39 -90.5v-904zM609 824q0 118 78.5 190t208.5 72q131 0 213 -73.5t82 -191.5q0 -68 -23 -131t-75 -138q-34 -50 -132 -171h-232q137 159 178 218q12 18 29 45l-9 1q-46 -33 -110 -33q-89 0 -148.5 61t-59.5 151zM801 836q0 -39 27 -65t69 -26t69 26t27 65t-27 65t-69 26 t-69 -26t-27 -65z" />
<glyph unicode="&#x2b;&#x25a1;" d="M152 229v986q0 106 76.5 181.5t184.5 75.5h975q108 0 184 -75t76 -182v-986q0 -107 -76 -182t-184 -75h-975q-108 0 -184.5 75.5t-76.5 181.5zM332 270q0 -52 39.5 -89.5t93.5 -37.5h870q55 0 94 37.5t39 89.5v904q0 53 -38.5 90t-94.5 37h-870q-55 0 -94 -36.5 t-39 -90.5v-904zM608 641v171h206v207h173v-207h205v-171h-205v-210h-173v210h-206z" />
<glyph unicode="&#x2212;&#x25a1;" d="M152 229v986q0 106 76.5 181.5t184.5 75.5h975q108 0 184 -75t76 -182v-986q0 -107 -76 -182t-184 -75h-975q-108 0 -184.5 75.5t-76.5 181.5zM332 270q0 -52 39.5 -89.5t93.5 -37.5h870q55 0 94 37.5t39 89.5v904q0 53 -38.5 90t-94.5 37h-870q-55 0 -94 -36.5 t-39 -90.5v-904zM635 636v178h530v-178h-530z" />
<glyph unicode="&#xd7;&#x25a1;" d="M152 229v986q0 106 76.5 181.5t184.5 75.5h975q108 0 184 -75t76 -182v-986q0 -107 -76 -182t-184 -75h-975q-108 0 -184.5 75.5t-76.5 181.5zM332 270q0 -52 39.5 -89.5t93.5 -37.5h870q55 0 94 37.5t39 89.5v904q0 53 -38.5 90t-94.5 37h-870q-55 0 -94 -36.5 t-39 -90.5v-904zM618 570l159 156l-159 156l122 125l160 -156l159 156l123 -125l-160 -156l160 -156l-123 -126l-159 156l-160 -156z" />
<glyph unicode="&#xf7;&#x25a1;" d="M152 229v986q0 106 76.5 181.5t184.5 75.5h975q108 0 184 -75t76 -182v-986q0 -107 -76 -182t-184 -75h-975q-108 0 -184.5 75.5t-76.5 181.5zM332 270q0 -52 39.5 -89.5t93.5 -37.5h870q55 0 94 37.5t39 89.5v904q0 53 -38.5 90t-94.5 37h-870q-55 0 -94 -36.5 t-39 -90.5v-904zM635 656v138h530v-138h-530zM803 502q0 39 27.5 64t69.5 25t70.5 -25t28.5 -64q0 -38 -28.5 -63t-70.5 -25q-41 0 -69 25t-28 63zM803 949q0 39 27.5 64.5t69.5 25.5t70.5 -25.5t28.5 -64.5q0 -37 -28.5 -62t-70.5 -25q-41 0 -69 25t-28 62z" />
<glyph unicode="&#x3d;&#x25a1;" d="M152 229v986q0 106 76.5 181.5t184.5 75.5h975q108 0 184 -75t76 -182v-986q0 -107 -76 -182t-184 -75h-975q-108 0 -184.5 75.5t-76.5 181.5zM332 270q0 -52 39.5 -89.5t93.5 -37.5h870q55 0 94 37.5t39 89.5v904q0 53 -38.5 90t-94.5 37h-870q-55 0 -94 -36.5 t-39 -90.5v-904zM628 514v156h545v-156h-545zM628 779v155h545v-155h-545z" />
<glyph unicode="&#x3e;&#x25a1;" d="M152 229v986q0 106 76.5 181.5t184.5 75.5h975q108 0 184 -75t76 -182v-986q0 -107 -76 -182t-184 -75h-975q-108 0 -184.5 75.5t-76.5 181.5zM332 270q0 -52 39.5 -89.5t93.5 -37.5h870q55 0 94 37.5t39 89.5v904q0 53 -38.5 90t-94.5 37h-870q-55 0 -94 -36.5 t-39 -90.5v-904zM666 414v189l284 118v8l-284 114v194l521 -259v-112z" />
<glyph unicode="&#x3c;&#x25a1;" d="M152 229v986q0 106 76.5 181.5t184.5 75.5h975q108 0 184 -75t76 -182v-986q0 -107 -76 -182t-184 -75h-975q-108 0 -184.5 75.5t-76.5 181.5zM332 270q0 -52 39.5 -89.5t93.5 -37.5h870q55 0 94 37.5t39 89.5v904q0 53 -38.5 90t-94.5 37h-870q-55 0 -94 -36.5 t-39 -90.5v-904zM614 666v112l521 259v-194l-285 -114v-8l285 -118v-189z" />
<glyph unicode="&#x23;&#x25a1;" d="M152 229v986q0 106 76.5 181.5t184.5 75.5h975q108 0 184 -75t76 -182v-986q0 -107 -76 -182t-184 -75h-975q-108 0 -184.5 75.5t-76.5 181.5zM332 270q0 -52 39.5 -89.5t93.5 -37.5h870q55 0 94 37.5t39 89.5v904q0 53 -38.5 90t-94.5 37h-870q-55 0 -94 -36.5 t-39 -90.5v-904zM581 550l26 133h97l20 94h-97l25 134h97l33 161h139l-34 -161h94l32 161h139l-32 -161h99l-25 -134h-99l-20 -94h99l-26 -133h-100l-35 -170h-139l35 170h-93l-35 -170h-139l36 170h-97zM827 663h119l25 125h-118z" />
<glyph unicode="&#x25bc;&#x25a1;" d="M152 229v986q0 106 76.5 181.5t184.5 75.5h975q108 0 184 -75t76 -182v-986q0 -107 -76 -182t-184 -75h-975q-108 0 -184.5 75.5t-76.5 181.5zM332 270q0 -52 39.5 -89.5t93.5 -37.5h870q55 0 94 37.5t39 89.5v904q0 53 -38.5 90t-94.5 37h-870q-55 0 -94 -36.5 t-39 -90.5v-904zM573 947h656l-328 -571z" />
<glyph unicode="&#x25b2;&#x25a1;" d="M152 229v986q0 106 76.5 181.5t184.5 75.5h975q108 0 184 -75t76 -182v-986q0 -107 -76 -182t-184 -75h-975q-108 0 -184.5 75.5t-76.5 181.5zM332 270q0 -52 39.5 -89.5t93.5 -37.5h870q55 0 94 37.5t39 89.5v904q0 53 -38.5 90t-94.5 37h-870q-55 0 -94 -36.5 t-39 -90.5v-904zM573 504l327 570l328 -570h-655z" />
<glyph unicode="&#x25c0;&#x25a1;" d="M152 229v986q0 106 76.5 181.5t184.5 75.5h975q108 0 184 -75t76 -182v-986q0 -107 -76 -182t-184 -75h-975q-108 0 -184.5 75.5t-76.5 181.5zM332 270q0 -52 39.5 -89.5t93.5 -37.5h870q55 0 94 37.5t39 89.5v904q0 53 -38.5 90t-94.5 37h-870q-55 0 -94 -36.5 t-39 -90.5v-904zM551 728l568 328v-657z" />
<glyph unicode="&#x25b6;&#x25a1;" d="M152 229v986q0 106 76.5 181.5t184.5 75.5h975q108 0 184 -75t76 -182v-986q0 -107 -76 -182t-184 -75h-975q-108 0 -184.5 75.5t-76.5 181.5zM332 270q0 -52 39.5 -89.5t93.5 -37.5h870q55 0 94 37.5t39 89.5v904q0 53 -38.5 90t-94.5 37h-870q-55 0 -94 -36.5 t-39 -90.5v-904zM682 399v657l568 -328z" />
<glyph unicode="&#x3f;&#x25a1;" d="M152 229v986q0 106 76.5 181.5t184.5 75.5h975q108 0 184 -75t76 -182v-986q0 -107 -76 -182t-184 -75h-975q-108 0 -184.5 75.5t-76.5 181.5zM332 270q0 -52 39.5 -89.5t93.5 -37.5h870q55 0 94 37.5t39 89.5v904q0 53 -38.5 90t-94.5 37h-870q-55 0 -94 -36.5 t-39 -90.5v-904zM651 867q-1 108 71 163t192 55q109 0 179 -53.5t70 -146.5q0 -56 -26 -94t-76 -70q-59 -40 -75.5 -57.5t-16.5 -46.5v-12h-169q-2 5 -2 31q-3 92 87 149q46 30 64 49t18 43q0 29 -19.5 44t-49.5 15q-32 0 -51.5 -19.5t-20.5 -49.5h-175zM777 461q0 43 31 67 t84 24t83.5 -24t30.5 -67q0 -41 -30.5 -65.5t-83.5 -24.5t-84 24.5t-31 65.5z" />
<glyph unicode="&#x21;&#x25a1;" d="M152 229v986q0 106 76.5 181.5t184.5 75.5h975q108 0 184 -75t76 -182v-986q0 -107 -76 -182t-184 -75h-975q-108 0 -184.5 75.5t-76.5 181.5zM332 270q0 -52 39.5 -89.5t93.5 -37.5h870q55 0 94 37.5t39 89.5v904q0 53 -38.5 90t-94.5 37h-870q-55 0 -94 -36.5 t-39 -90.5v-904zM789 461q0 43 31 67.5t84 24.5t83.5 -24.5t30.5 -67.5q0 -41 -30.5 -65.5t-83.5 -24.5t-84 24.5t-31 65.5zM798 1074h213l-23 -456h-168z" />
<glyph unicode="&#x2717;&#x25a1;" d="M152 229v986q0 106 76.5 181.5t184.5 75.5h975q108 0 184 -75t76 -182v-986q0 -107 -76 -182t-184 -75h-975q-108 0 -184.5 75.5t-76.5 181.5zM332 270q0 -52 39.5 -89.5t93.5 -37.5h870q55 0 94 37.5t39 89.5v904q0 53 -38.5 90t-94.5 37h-870q-55 0 -94 -36.5 t-39 -90.5v-904zM558 500l226 223l-225 223l118 123l227 -223l226 222l119 -122l-225 -223l225 -222l-119 -123l-226 221l-227 -222z" />
<glyph unicode="&#x2713;&#x25a1;" d="M152 229v986q0 106 76.5 181.5t184.5 75.5h975q108 0 184 -75t76 -182v-986q0 -107 -76 -182t-184 -75h-975q-108 0 -184.5 75.5t-76.5 181.5zM332 270q0 -52 39.5 -89.5t93.5 -37.5h870q55 0 94 37.5t39 89.5v904q0 53 -38.5 90t-94.5 37h-870q-55 0 -94 -36.5 t-39 -90.5v-904zM474 683l125 126l188 -187l419 415l122 -130l-543 -532z" />
<glyph unicode="&#xd;" horiz-adv-x="0" />
<glyph unicode=" "  horiz-adv-x="528" />
<glyph unicode="&#x09;" horiz-adv-x="528" />
<glyph unicode="&#xa0;" horiz-adv-x="528" />
<glyph unicode="!" horiz-adv-x="730" d="M183 140q0 79 49 125t133 46q85 0 133.5 -45.5t48.5 -125.5q0 -79 -48.5 -124.5t-133.5 -45.5q-84 0 -133 45.5t-49 124.5zM205 1443h320l-27 -968h-267z" />
<glyph unicode="&#x22;" horiz-adv-x="1016" d="M152 831v612h250v-612h-250zM614 831v612h250v-612h-250z" />
<glyph unicode="#" horiz-adv-x="1360" d="M64 382l42 223h207l52 252h-205l42 221h206l74 366h221l-74 -366h234l74 366h222l-74 -366h209l-41 -221h-211l-53 -252h209l-41 -223h-210l-77 -382h-222l77 382h-234l-77 -382h-221l77 382h-206zM516 585h261l61 291h-263z" />
<glyph unicode="$" horiz-adv-x="1415" d="M141 410h286q5 -74 64.5 -125t152.5 -61v372l-105 25q-181 42 -275 144.5t-94 258.5q0 184 125 297t349 131v136h140v-136q209 -20 334 -133.5t128 -286.5h-279q-2 68 -53 119t-130 62v-356l107 -22q383 -82 383 -404q0 -191 -127.5 -305t-362.5 -134v-127h-140v125 q-235 13 -368.5 125t-134.5 295zM460 1052q0 -63 47 -105.5t137 -60.5v328q-81 -4 -132.5 -49.5t-51.5 -112.5zM784 223q97 6 151.5 52t54.5 122q0 136 -206 174v-348z" />
<glyph unicode="%" horiz-adv-x="1701" d="M65 1111q0 164 93.5 264.5t244.5 100.5q152 0 245 -100.5t93 -264.5q0 -165 -93 -266t-245 -101q-151 0 -244.5 101t-93.5 266zM224 0l545 756l434 687h281l-554 -762l-424 -681h-282zM288 1111q0 -81 31 -128t84 -47t84 47t31 128q0 82 -30.5 128.5t-84.5 46.5 q-53 0 -84 -47t-31 -128zM961 333q0 164 93 265t244 101q152 0 245 -100.5t93 -265.5q0 -164 -93 -265t-245 -101q-151 0 -244 101t-93 265zM1183 334q0 -81 31 -128t84 -47t84 47t31 128q0 82 -30.5 128t-84.5 46q-53 0 -84 -46.5t-31 -127.5z" />
<glyph unicode="&#x26;" horiz-adv-x="1525" d="M107 377q0 124 64.5 216t204.5 169q3 1 32.5 17.5t31.5 17.5q-98 101 -138.5 176t-40.5 155q0 146 116.5 241.5t294.5 95.5q177 0 290 -92.5t113 -238.5q0 -112 -71.5 -204t-222.5 -174l277 -287q51 90 51 263v71h245v-90q0 -265 -123 -431l268 -282h-327l-111 117 q-80 -68 -198.5 -106.5t-250.5 -38.5q-230 0 -367.5 110t-137.5 295zM380 402q0 -94 72.5 -152.5t189.5 -58.5q79 0 151 26.5t115 71.5l-331 349q-16 -6 -42 -20q-155 -84 -155 -216zM512 1112q0 -49 29.5 -96.5t104.5 -118.5q99 49 142.5 100t43.5 115q0 68 -44 110.5 t-115 42.5t-116 -43t-45 -110z" />
<glyph unicode="'" horiz-adv-x="553" d="M152 831v612h250v-612h-250z" />
<glyph unicode="(" horiz-adv-x="803" d="M159 600q0 257 66 455.5t214 387.5h269q-109 -126 -178.5 -362.5t-69.5 -479.5q0 -235 58.5 -445t186.5 -433h-275q-129 162 -200 391.5t-71 485.5z" />
<glyph unicode=")" horiz-adv-x="803" d="M95 1443h269q148 -189 214 -387.5t66 -455.5q0 -255 -71 -484.5t-200 -392.5h-276q128 223 186.5 433t58.5 445q0 244 -69 480t-178 362z" />
<glyph unicode="*" horiz-adv-x="1032" d="M144 965l256 100l-256 106l94 169l217 -174l-33 277h188l-33 -277l217 174l94 -169l-255 -106l255 -100l-94 -167l-216 162l32 -266h-188l32 266l-216 -162z" />
<glyph unicode="+" horiz-adv-x="1415" d="M168 455v258h412v408h255v-408h413v-258h-413v-409h-255v409h-412z" />
<glyph unicode="," horiz-adv-x="712" d="M151 -388l79 635h288l-134 -635h-233z" />
<glyph unicode="&#x2011;" horiz-adv-x="992" d="M168 446v273h657v-273h-657z" />
<glyph unicode="-" horiz-adv-x="992" d="M168 446v273h657v-273h-657z" />
<glyph unicode="." horiz-adv-x="712" d="M179 147q0 76 48.5 124.5t128.5 48.5t128.5 -48t48.5 -125t-48.5 -125.5t-128.5 -48.5t-128.5 48.5t-48.5 125.5z" />
<glyph unicode="/" horiz-adv-x="772" d="M42 -288l414 1731h274l-420 -1731h-268z" />
<glyph unicode="0" horiz-adv-x="1402" d="M128 724q0 357 152.5 556.5t420.5 199.5q267 0 420 -200t153 -557t-152.5 -558.5t-420.5 -201.5t-420.5 201.5t-152.5 559.5zM434 724q0 -249 70.5 -382t196.5 -133t196.5 132.5t70.5 382.5q0 248 -70.5 378.5t-196.5 130.5q-125 0 -196 -131t-71 -378z" />
<glyph unicode="1" horiz-adv-x="1051" d="M123 905v281l373 257h301v-1443h-302v1149h-18z" />
<glyph unicode="2" horiz-adv-x="1318" d="M129 1006v5q0 209 146 339t380 130q226 0 368.5 -117.5t142.5 -303.5q0 -118 -74 -234.5t-261 -292.5l-276 -263v-18h632v-251h-1041v211l471 461q152 148 203 222t51 145q0 87 -63.5 142.5t-162.5 55.5q-105 0 -170.5 -62.5t-65.5 -162.5v-6h-280z" />
<glyph unicode="3" horiz-adv-x="1370" d="M126 413h289q7 -92 79 -145.5t188 -53.5q113 0 184.5 58t71.5 150q0 95 -70 149.5t-191 54.5h-179v225h176q103 0 166.5 55t63.5 143q0 87 -62.5 138.5t-168.5 51.5q-105 0 -170 -55t-71 -149h-279q8 205 150 325t378 120q222 0 365.5 -109.5t143.5 -279.5 q0 -125 -72.5 -215t-193.5 -115v-18q149 -17 235.5 -109.5t86.5 -234.5q0 -125 -72.5 -224.5t-202.5 -155.5t-292 -56q-241 0 -392 123t-161 327z" />
<glyph unicode="4" horiz-adv-x="1410" d="M114 252v267q169 319 571 924h423v-940h189v-251h-189v-252h-288v252h-706zM385 494h442v714h-16q-231 -345 -426 -698v-16z" />
<glyph unicode="5" horiz-adv-x="1359" d="M154 410h279q13 -90 85 -145t175 -55q117 0 189.5 72t72.5 189q0 119 -73 192t-188 73q-167 0 -247 -130h-270l72 837h907v-251h-673l-32 -371h18q98 141 306 141q205 0 336.5 -136t131.5 -348q0 -230 -152 -372.5t-400 -142.5q-233 0 -381.5 125.5t-155.5 321.5z" />
<glyph unicode="6" horiz-adv-x="1401" d="M125 711q0 359 160 564t442 205q206 0 351.5 -111t176.5 -292h-299q-21 71 -83.5 113t-147.5 42q-148 0 -232.5 -132.5t-79.5 -357.5h18q49 102 145.5 157.5t222.5 55.5q205 0 340 -136t135 -343q0 -225 -155 -369t-397 -144q-157 0 -279.5 67t-196.5 194 q-121 186 -121 487zM458 470q0 -110 75 -184.5t186 -74.5t186.5 73.5t75.5 182.5q0 110 -74 182.5t-187 72.5t-187.5 -72t-74.5 -180z" />
<glyph unicode="7" horiz-adv-x="1239" d="M97 1195v249h1032v-252l-603 -1192h-316l615 1177v18h-728z" />
<glyph unicode="8" horiz-adv-x="1421" d="M128 385q0 136 86.5 236.5t231.5 132.5v18q-118 27 -189 113t-71 201q0 173 147.5 283.5t377.5 110.5q229 0 376.5 -110.5t147.5 -283.5q0 -115 -70.5 -200.5t-189.5 -113.5v-18q144 -27 231.5 -127.5t87.5 -238.5q0 -190 -162 -307.5t-422 -117.5t-421 117t-161 305z M442 413q0 -98 74.5 -160t193.5 -62t194 62t75 160q0 99 -75 161t-194 62t-193.5 -62t-74.5 -161zM484 1057q0 -87 63 -142.5t163 -55.5t163.5 55.5t63.5 142.5q0 88 -63.5 143.5t-163.5 55.5t-163 -55.5t-63 -143.5z" />
<glyph unicode="9" horiz-adv-x="1401" d="M127 967q0 225 155 369t397 144q156 0 278.5 -66.5t197.5 -193.5q121 -188 121 -487q0 -360 -160 -565t-442 -205q-205 0 -351 111.5t-177 291.5h299q21 -71 83.5 -113t147.5 -42q148 0 232.5 133t79.5 358h-9h-7h-2q-49 -102 -145.5 -157.5t-222.5 -55.5 q-206 0 -340.5 135.5t-134.5 342.5zM420 977q0 -111 74 -183t187 -72t187.5 71.5t74.5 180.5q0 110 -75 184.5t-186 74.5t-186.5 -74t-75.5 -182z" />
<glyph unicode=":" horiz-adv-x="712" d="M179 147q0 76 48.5 124.5t128.5 48.5t128.5 -48t48.5 -125t-48.5 -125.5t-128.5 -48.5t-128.5 48.5t-48.5 125.5zM179 885q0 76 48.5 124.5t128.5 48.5t128.5 -48t48.5 -125t-48.5 -125.5t-128.5 -48.5t-128.5 48.5t-48.5 125.5z" />
<glyph unicode=";" horiz-adv-x="712" d="M138 -388l79 635h288l-133 -635h-234zM179 885q0 76 48.5 124.5t128.5 48.5t128.5 -48t48.5 -125t-48.5 -125.5t-128.5 -48.5t-128.5 48.5t-48.5 125.5z" />
<glyph unicode="&#x3c;" horiz-adv-x="1415" d="M231 474v235l953 496v-301l-657 -303v-19l657 -303v-301z" />
<glyph unicode="=" horiz-adv-x="1415" d="M171 216v259h1073v-259h-1073zM171 695v259h1073v-259h-1073z" />
<glyph unicode="&#x3e;" horiz-adv-x="1415" d="M231 -22v301l657 303v19l-657 303v301l953 -496v-235z" />
<glyph unicode="?" horiz-adv-x="1141" d="M78 1035q4 191 132 306t354 115q214 0 344.5 -108t130.5 -282q0 -111 -53 -193t-161 -145q-100 -58 -135 -104t-35 -118v-53h-265l-2 55q-10 118 32.5 193.5t147.5 137.5q98 58 133 103.5t35 114.5q0 70 -52.5 114.5t-137.5 44.5q-86 0 -139 -49t-58 -132h-271zM351 140 q0 79 49 125t133 46t132.5 -46t48.5 -125t-48.5 -124.5t-132.5 -45.5t-133 45.5t-49 124.5z" />
<glyph unicode="@" horiz-adv-x="1899" d="M127 616q0 244 106.5 434t299 295t439.5 105q237 0 420.5 -93.5t285 -262.5t101.5 -387q0 -239 -106 -378t-287 -139q-94 0 -157.5 42t-80.5 114h-18q-64 -153 -240 -153q-156 0 -251 116t-95 306q0 182 93 295t243 113q80 0 142 -37t92 -104h18v119h202v-530 q0 -53 25 -82.5t71 -29.5q76 0 121 89.5t45 241.5q0 271 -172.5 434.5t-457.5 163.5q-290 0 -473 -189t-183 -488q0 -304 187.5 -483t506.5 -179q180 0 272 33v-163q-122 -36 -287 -36q-258 0 -453.5 103t-302 292t-106.5 438zM771 609q0 -107 44.5 -167.5t123.5 -60.5 q80 0 127 61t47 167t-46.5 167t-126.5 61q-79 0 -124 -60.5t-45 -167.5z" />
<glyph unicode="A" horiz-adv-x="1500" d="M72 0l501 1443h355l501 -1443h-327l-109 344h-507l-111 -344h-303zM551 577h378l-179 566h-18z" />
<glyph unicode="B" horiz-adv-x="1420" d="M175 0v1443h631q209 0 328 -96t119 -264q0 -115 -75 -203t-186 -105v-18q143 -11 236.5 -108t93.5 -236q0 -190 -134 -301.5t-365 -111.5h-648zM477 231h269q130 0 199 53.5t69 154.5q0 99 -70.5 150.5t-204.5 51.5h-262v-410zM477 845h227q122 0 187 48t65 135 t-59.5 135.5t-167.5 48.5h-252v-367z" />
<glyph unicode="C" horiz-adv-x="1518" d="M111 722q0 352 181.5 555t495.5 203q256 0 432.5 -152.5t193.5 -388.5h-294q-22 125 -112.5 200t-219.5 75q-170 0 -269 -132t-99 -360t99 -360.5t270 -132.5q130 0 220 71t112 190h294q-19 -234 -192.5 -380.5t-434.5 -146.5q-314 0 -495.5 203.5t-181.5 555.5z" />
<glyph unicode="D" horiz-adv-x="1530" d="M175 0v1444h568q322 0 499.5 -186.5t177.5 -525.5q0 -351 -176.5 -541.5t-500.5 -190.5h-568zM477 258h218q201 0 309 120.5t108 348.5q0 218 -110 338.5t-307 120.5h-218v-928z" />
<glyph unicode="E" horiz-adv-x="1274" d="M175 0v1443h956v-258h-654v-337h617v-239h-617v-351h654v-258h-956z" />
<glyph unicode="F" horiz-adv-x="1224" d="M175 0v1443h945v-258h-643v-376h587v-247h-587v-562h-302z" />
<glyph unicode="G" horiz-adv-x="1557" d="M111 723q0 349 185 553t500 204q256 0 429 -136t205 -361h-300q-34 110 -121 170.5t-213 60.5q-175 0 -275.5 -130.5t-100.5 -357.5q0 -231 104.5 -364t283.5 -133q148 0 242 80t99 211l1 26h-313v227h606v-184q0 -289 -172 -457.5t-468 -168.5q-322 0 -507 203t-185 557 z" />
<glyph unicode="H" horiz-adv-x="1604" d="M175 0v1443h302v-582h650v582h302v-1443h-302v603h-650v-603h-302z" />
<glyph unicode="I" horiz-adv-x="652" d="M175 0v1443h302v-1443h-302z" />
<glyph unicode="J" horiz-adv-x="1231" d="M76 424h292q2 -87 54.5 -139t139.5 -52q93 0 142.5 55.5t49.5 161.5v993h302v-995q0 -232 -129.5 -358.5t-360.5 -126.5q-223 0 -356.5 125t-133.5 336z" />
<glyph unicode="K" horiz-adv-x="1453" d="M175 0v1443h302v-643h18l533 643h336l-526 -633l563 -810h-362l-419 604l-143 -169v-435h-302z" />
<glyph unicode="L" horiz-adv-x="1218" d="M175 0v1443h302v-1180h642v-263h-944z" />
<glyph unicode="M" horiz-adv-x="1878" d="M175 0v1443h356l399 -970h18l400 970h355v-1443h-280v965h-16l-367 -882h-201l-368 882h-16v-965h-280z" />
<glyph unicode="N" horiz-adv-x="1573" d="M175 0v1443h252l664 -899h18v899h289v-1443h-250l-666 903h-18v-903h-289z" />
<glyph unicode="O" horiz-adv-x="1610" d="M111 722q0 350 188 554t507 204q320 0 506.5 -204t186.5 -554q0 -351 -186.5 -555t-506.5 -204q-321 0 -508 204t-187 555zM420 722q0 -226 104.5 -360t281.5 -134q176 0 280.5 134t104.5 360t-104.5 359.5t-280.5 133.5t-281 -133.5t-105 -359.5z" />
<glyph unicode="P" horiz-adv-x="1380" d="M175 0v1443h602q223 0 361.5 -137.5t138.5 -361.5q0 -222 -143 -359t-372 -137h-285v-448h-302zM477 693h219q131 0 202.5 64.5t71.5 185.5q0 122 -71 187t-202 65h-220v-502z" />
<glyph unicode="Q" horiz-adv-x="1610" d="M111 722q0 350 188 554t507 204t506 -204t187 -554q0 -194 -58.5 -345.5t-168.5 -245.5l179 -272h-292l-100 142q-116 -38 -253 -38q-321 0 -508 203.5t-187 555.5zM420 722q0 -228 105 -361t282 -133q49 0 104 13l-164 240h274l67 -81q103 111 103 322q0 226 -105 359.5 t-280 133.5q-176 0 -281 -133.5t-105 -359.5z" />
<glyph unicode="R" horiz-adv-x="1422" d="M175 0v1443h606q238 0 375 -124t137 -339q0 -140 -69.5 -250.5t-192.5 -159.5l304 -570h-342l-269 523h-247v-523h-302zM477 755h265q114 0 177.5 58.5t63.5 162.5q0 103 -66 163t-178 60h-262v-444z" />
<glyph unicode="S" horiz-adv-x="1383" d="M110 401h292q10 -88 92 -140t210 -52q118 0 193 51.5t75 133.5q0 69 -58 112t-191 71l-188 40q-392 82 -392 412q0 204 151 327.5t401 123.5q238 0 391.5 -121t160.5 -314h-284q-11 86 -84 138t-182 52q-114 0 -182.5 -49t-68.5 -131q0 -67 55.5 -108t182.5 -68l174 -37 q217 -46 316 -144t99 -266q0 -218 -156.5 -343.5t-428.5 -125.5q-258 0 -414 118t-164 320z" />
<glyph unicode="T" horiz-adv-x="1352" d="M92 1185v258h1168v-258h-433v-1185h-302v1185h-433z" />
<glyph unicode="U" horiz-adv-x="1564" d="M178 498v945h302v-914q0 -138 79.5 -218t222.5 -80q144 0 223.5 80t79.5 218v914h302v-945q0 -241 -164.5 -388t-440.5 -147q-275 0 -439.5 147t-164.5 388z" />
<glyph unicode="V" horiz-adv-x="1477" d="M72 1443h341l328 -1103h18l322 1103h325l-481 -1443h-365z" />
<glyph unicode="W" horiz-adv-x="2067" d="M88 1443h314l225 -1017h16l263 1017h255l268 -1017h16l223 1017h312l-383 -1443h-283l-273 955h-16l-270 -955h-285z" />
<glyph unicode="X" horiz-adv-x="1494" d="M88 0l461 727l-458 716h355l301 -505h18l304 505h338l-475 -721l468 -722h-344l-310 489h-18l-314 -489h-326z" />
<glyph unicode="Y" horiz-adv-x="1451" d="M72 1443h327l318 -604h18l317 604h327l-502 -912v-531h-302v531z" />
<glyph unicode="Z" horiz-adv-x="1384" d="M135 0v204l726 963v18h-709v258h1077v-203l-724 -964v-18h744v-258h-1114z" />
<glyph unicode="[" horiz-adv-x="848" d="M159 -240v1684h575v-223h-294v-1239h306v-222h-587z" />
<glyph unicode="\" horiz-adv-x="772" d="M42 1443h274l414 -1731h-268z" />
<glyph unicode="]" horiz-adv-x="848" d="M102 -18h307v1239h-294v223h574v-1684h-587v222z" />
<glyph unicode="^" horiz-adv-x="1066" d="M85 772l319 636h259l319 -636h-257l-183 410h-18l-182 -410h-257z" />
<glyph unicode="_" horiz-adv-x="945" d="M-2 -107h949v-227h-949v227z" />
<glyph unicode="`" horiz-adv-x="1098" d="M270 1634h309l247 -353h-269z" />
<glyph unicode="a" horiz-adv-x="1208" d="M87 315q0 149 110.5 234.5t316.5 97.5l267 16v90q0 69 -48 106.5t-138 37.5q-162 0 -199 -102h-268q14 153 144.5 242.5t338.5 89.5q218 0 337.5 -98t119.5 -276v-753h-282v144h-18q-43 -76 -128 -118.5t-192 -42.5q-160 0 -260.5 91t-100.5 241zM372 334 q0 -61 47.5 -96.5t124.5 -35.5q101 0 169 57t68 141v81l-223 -14q-186 -13 -186 -133z" />
<glyph unicode="b" horiz-adv-x="1334" d="M156 0v1524h291v-597h18q42 91 130 142.5t201 51.5q209 0 328 -151t119 -418q0 -265 -119.5 -417t-327.5 -152q-117 0 -206.5 50t-133.5 140h-18v-173h-282zM444 551q1 -150 68.5 -237.5t182.5 -87.5q116 0 182.5 87t66.5 239q0 151 -67 238t-182 87t-182.5 -87.5 t-68.5 -238.5z" />
<glyph unicode="c" horiz-adv-x="1203" d="M92 554q0 275 140 424t399 149q216 0 344.5 -111t146.5 -302h-272q-15 81 -71.5 127.5t-147.5 46.5q-118 0 -181.5 -86t-63.5 -248q0 -164 63.5 -251.5t181.5 -87.5q90 0 146.5 43t72.5 124h272q-18 -187 -148 -296.5t-343 -109.5q-258 0 -398.5 150.5t-140.5 427.5z" />
<glyph unicode="d" horiz-adv-x="1334" d="M92 553q0 263 120.5 415.5t328.5 152.5q112 0 199 -51.5t130 -142.5h17v597h291v-1524h-282v173h-18q-44 -89 -133 -139.5t-204 -50.5q-208 0 -328.5 153t-120.5 417zM391 552q0 -153 66 -239.5t183 -86.5t183.5 86.5t66.5 238.5q0 151 -67 238.5t-183 87.5t-182.5 -86.5 t-66.5 -238.5z" />
<glyph unicode="e" horiz-adv-x="1231" d="M92 546q0 269 142 425t388 156q244 0 380.5 -147t136.5 -410v-89h-757v-15q3 -123 70.5 -194.5t181.5 -71.5q86 0 144 29.5t81 84.5h271q-33 -157 -167.5 -247.5t-336.5 -90.5q-252 0 -393 150.5t-141 419.5zM383 667h470q-5 110 -66.5 173.5t-163.5 63.5 q-101 0 -166.5 -65t-73.5 -172z" />
<glyph unicode="f" horiz-adv-x="836" d="M53 863v229h178v108q0 164 97 239.5t295 75.5q68 0 136 -11v-209q-38 8 -95 8q-77 0 -112.5 -31.5t-35.5 -98.5v-81h234v-229h-228v-863h-291v863h-178z" />
<glyph unicode="g" horiz-adv-x="1322" d="M89 561q0 257 121.5 408.5t330.5 151.5q112 0 201.5 -52t133.5 -143h18v177h282v-1099q0 -194 -147 -308t-397 -114q-218 0 -354.5 88.5t-150.5 234.5h288q11 -51 70 -81t153 -30q117 0 182 51.5t65 144.5v204h-18q-94 -178 -332 -178q-206 0 -326 147.5t-120 397.5z M388 562q0 -147 65 -231.5t183 -84.5t185 84.5t67 230.5t-67.5 231t-184.5 85t-182.5 -84.5t-65.5 -230.5z" />
<glyph unicode="h" horiz-adv-x="1307" d="M156 0v1524h286v-602h18q39 95 125.5 148.5t207.5 53.5q179 0 278.5 -108t99.5 -306v-710h-291v641q0 114 -52 173t-151 59q-108 0 -169 -65.5t-61 -174.5v-633h-291z" />
<glyph unicode="i" horiz-adv-x="587" d="M122 1404q0 66 47 106.5t125 40.5t125 -40.5t47 -106.5q0 -65 -47.5 -106t-124.5 -41q-78 0 -125 41t-47 106zM148 0v1103h291v-1103h-291z" />
<glyph unicode="j" horiz-adv-x="587" d="M-29 -149q6 -1 37 -1q76 0 108 29t32 95v1129h291v-1137q0 -169 -99 -255.5t-291 -86.5q-54 0 -78 4v223zM122 1404q0 66 47 106.5t125 40.5t125 -40.5t47 -106.5q0 -65 -47.5 -106t-124.5 -41q-78 0 -125 41t-47 106z" />
<glyph unicode="k" horiz-adv-x="1232" d="M156 0v1524h291v-852h18l369 431h331l-420 -473l449 -630h-345l-322 448l-80 -82v-366h-291z" />
<glyph unicode="l" horiz-adv-x="603" d="M156 0v1524h291v-1524h-291z" />
<glyph unicode="m" horiz-adv-x="1899" d="M146 0v1103h282v-180h18q34 95 115.5 149.5t189.5 54.5q115 0 193.5 -53.5t111.5 -150.5h18q39 93 128 148.5t204 55.5q165 0 261 -100t96 -270v-757h-291v680q0 196 -184 196q-88 0 -141 -56t-53 -145v-675h-280v692q0 87 -48 135.5t-134 48.5q-85 0 -140 -60t-55 -152 v-664h-291z" />
<glyph unicode="n" horiz-adv-x="1285" d="M146 0v1103h282v-177h18q39 95 122.5 148t203.5 53q183 0 280 -107.5t97 -306.5v-713h-291v644q0 232 -203 232q-101 0 -159.5 -65.5t-58.5 -174.5v-636h-291z" />
<glyph unicode="o" horiz-adv-x="1269" d="M92 552q0 268 145.5 421.5t397.5 153.5t397.5 -153.5t145.5 -421.5q0 -270 -144.5 -423t-398.5 -153t-398.5 153t-144.5 423zM391 552q0 -161 63.5 -249.5t180.5 -88.5q116 0 180 88.5t64 249.5q0 159 -64.5 248t-179.5 89q-116 0 -180 -89t-64 -248z" />
<glyph unicode="p" horiz-adv-x="1324" d="M146 -366v1469h282v-181h18q45 93 134 146t203 53q210 0 330 -151t120 -418q0 -266 -119 -417.5t-326 -151.5q-118 0 -205 49t-128 137h-18v-535h-291zM434 551q0 -151 67 -238t183 -87q118 0 184 86.5t66 239.5q0 152 -66.5 238.5t-182.5 86.5t-183.5 -87.5 t-67.5 -238.5z" />
<glyph unicode="q" horiz-adv-x="1324" d="M92 553q0 263 121.5 415.5t329.5 152.5q111 0 200.5 -53.5t133.5 -145.5h18v181h283v-1469h-292v535h-18q-45 -89 -130 -137.5t-201 -48.5q-207 0 -326 152.5t-119 417.5zM391 552q0 -153 65.5 -239.5t181.5 -86.5q117 0 184.5 87t67.5 238t-67.5 238.5t-183.5 87.5 t-182 -86.5t-66 -238.5z" />
<glyph unicode="r" horiz-adv-x="891" d="M146 0v1103h282v-176h18q22 84 100.5 139t182.5 55q75 0 114 -14v-265q-46 18 -138 18q-121 0 -194.5 -67t-73.5 -182v-611h-291z" />
<glyph unicode="s" horiz-adv-x="1160" d="M94 307h284q35 -118 209 -118q85 0 138 32.5t53 85.5q0 41 -33 66.5t-106 41.5l-200 45q-161 35 -239.5 113.5t-78.5 205.5q0 157 126.5 252.5t332.5 95.5q210 0 329.5 -85t131.5 -243h-269q-11 54 -60.5 84.5t-129.5 30.5q-79 0 -130 -32.5t-51 -84.5q0 -40 36 -66.5 t113 -43.5l207 -45q161 -35 235.5 -107t74.5 -195q0 -164 -134 -264t-352 -100t-345 86t-142 245z" />
<glyph unicode="t" horiz-adv-x="845" d="M57 863v229h172v273h291v-273h229v-229h-229v-496q0 -72 34.5 -106t108.5 -34q49 0 86 4v-222q-67 -13 -146 -13q-201 0 -287.5 70t-86.5 232v565h-172z" />
<glyph unicode="u" horiz-adv-x="1290" d="M136 384v719h291v-644q0 -230 203 -230q107 0 165 63t58 175v636h291v-1103h-282v177h-18q-82 -201 -322 -201q-179 0 -282.5 108.5t-103.5 299.5z" />
<glyph unicode="v" horiz-adv-x="1194" d="M51 1103h313l228 -822h18l226 822h307l-381 -1103h-328z" />
<glyph unicode="w" horiz-adv-x="1735" d="M61 1103h295l164 -791h18l193 791h278l194 -791h18l164 791h289l-293 -1103h-310l-197 761h-18l-195 -761h-306z" />
<glyph unicode="x" horiz-adv-x="1190" d="M64 1103h334l195 -362h18l195 362h318l-346 -545l349 -558h-324l-205 360h-18l-205 -360h-309l346 545z" />
<glyph unicode="y" horiz-adv-x="1223" d="M56 1103h321l232 -836h18l232 836h308l-380 -1120q-70 -212 -183.5 -298t-320.5 -86q-93 0 -111 3v234q10 -2 66 -2q83 0 130 28.5t65 90.5l10 40z" />
<glyph unicode="z" horiz-adv-x="1160" d="M121 0v172l558 681v18h-550v232h898v-192l-526 -661v-18h539v-232h-919z" />
<glyph unicode="{" horiz-adv-x="927" d="M132 472v277q94 0 131 45.5t37 162.5v185q0 199 102 287.5t331 88.5h105v-220h-45q-122 0 -168 -43.5t-46 -161.5v-237q0 -110 -51 -168.5t-157 -68.5v-18q102 -10 155 -75.5t53 -180.5v-260q0 -117 46 -160.5t168 -43.5h45v-219h-105q-228 0 -330.5 90.5t-102.5 294.5 v218q0 116 -37 161.5t-131 45.5z" />
<glyph unicode="|" horiz-adv-x="749" d="M241 -289v1732h267v-1732h-267z" />
<glyph unicode="}" horiz-adv-x="927" d="M89 -119h45q122 0 168 43.5t46 160.5v260q0 115 53 180.5t155 75.5v18q-106 10 -157 68.5t-51 168.5v237q0 118 -46 161.5t-168 43.5h-45v220h105q229 0 331 -88.5t102 -287.5v-185q0 -117 36.5 -162.5t131.5 -45.5v-277q-94 0 -131 -45.5t-37 -161.5v-218 q0 -204 -102.5 -294.5t-330.5 -90.5h-105v219z" />
<glyph unicode="~" horiz-adv-x="1225" d="M82 525q-2 432 321 432q68 0 127 -30t132 -101q44 -43 74.5 -61t60.5 -18q113 0 119 178h227q1 -218 -76.5 -325t-239.5 -107q-70 0 -130 29.5t-131 99.5q-47 46 -76.5 63.5t-60.5 17.5q-115 0 -119 -178h-228z" />
<glyph unicode="&#xa1;" horiz-adv-x="730" d="M183 982q0 79 49 124.5t133 45.5q85 0 133.5 -45.5t48.5 -124.5q0 -80 -48.5 -125.5t-133.5 -45.5q-84 0 -133 46t-49 125zM205 -322l26 969h267l27 -969h-320z" />
<glyph unicode="&#xa2;" horiz-adv-x="1415" d="M158 700q0 224 120.5 373t319.5 187v189h242v-185q171 -29 284 -137t129 -267h-272q-22 80 -89 127t-159 47q-122 0 -201.5 -90t-79.5 -244q0 -156 79.5 -247t200.5 -91q100 0 165 44t84 122h272q-16 -160 -127.5 -264.5t-285.5 -131.5v-184h-242v188q-200 39 -320 188.5 t-120 375.5z" />
<glyph unicode="&#xa3;" horiz-adv-x="1415" d="M141 0v240q134 19 218.5 109t84.5 215q0 35 -6 68h-293v213h224q-59 148 -59 243q0 186 146.5 289t411.5 103q90 0 184 -14.5t146 -35.5v-244q-49 22 -131 36.5t-161 14.5q-139 0 -216 -52t-77 -146q0 -72 44 -194h415v-213h-348q3 -24 3 -49q0 -100 -49.5 -185 t-126.5 -122v-19h714v-257h-1124z" />
<glyph unicode="&#xa4;" horiz-adv-x="1415" d="M168 275l148 149q-58 105 -58 224q0 121 58 224l-148 149l166 172l148 -150q104 62 226 62t225 -61l149 149l166 -172l-147 -149q58 -103 58 -224q0 -122 -59 -224l148 -149l-166 -172l-149 150q-103 -61 -225 -61t-225 61l-149 -150zM474 648q0 -95 69 -163.5t165 -68.5 t165.5 68.5t69.5 163.5t-69.5 164t-165.5 69t-165 -69t-69 -164z" />
<glyph unicode="&#xa5;" horiz-adv-x="1415" d="M54 1443h327l318 -604h18l317 604h327l-426 -766h195v-169h-271v-133h271v-169h-271v-206h-302v206h-271v169h271v133h-271v169h195z" />
<glyph unicode="&#xa6;" horiz-adv-x="749" d="M241 -289v669h267v-669h-267zM241 773v670h267v-670h-267z" />
<glyph unicode="&#xa7;" horiz-adv-x="1032" d="M68 536q0 94 57.5 165.5t157.5 102.5v18q-107 49 -156 114.5t-49 159.5q0 152 120 244.5t318 92.5q184 0 301.5 -90t128.5 -239h-251q-8 53 -58 86t-123 33q-76 0 -123.5 -35t-47.5 -91q0 -42 34 -70.5t113 -53.5l171 -60q160 -55 232 -125.5t72 -173.5 q0 -97 -63.5 -172.5t-167.5 -103.5v-19q116 -45 169.5 -108t53.5 -159q0 -151 -122 -244.5t-320 -93.5q-187 0 -308 92.5t-128 241.5h253q7 -55 59.5 -89.5t127.5 -34.5q77 0 125.5 35.5t48.5 91.5q0 42 -35 71.5t-114 52.5l-175 60q-158 51 -229.5 122.5t-71.5 178.5z M322 593q0 -47 37.5 -83.5t104.5 -55.5l109 -38q59 9 99 48.5t40 89.5q0 47 -37 83.5t-104 55.5l-109 38q-59 -9 -99.5 -49t-40.5 -89z" />
<glyph unicode="&#xa8;" horiz-adv-x="1176" d="M199 1419q0 66 43.5 108.5t111.5 42.5t111.5 -42.5t43.5 -108.5t-44 -109t-111 -43t-111 43t-44 109zM667 1419q0 66 44 108.5t111 42.5q68 0 112 -42.5t44 -108.5t-44 -109t-112 -43q-67 0 -111 43t-44 109z" />
<glyph unicode="&#xa9;" horiz-adv-x="1742" d="M83 652q0 162 61.5 308.5t167 251.5t251.5 167t308 62q163 0 309 -62t251.5 -167t167 -251.5t61.5 -308.5t-62 -308t-167 -251t-251.5 -167t-308.5 -62t-308 62t-251 167t-167 251t-62 308zM247 652q0 -128 49 -243t132 -198t198.5 -132t244.5 -49t245 48.5t199 132 t132 198.5t49 243q0 172 -82.5 315t-226.5 225.5t-316 82.5q-129 0 -244.5 -49t-198.5 -132t-132 -198.5t-49 -243.5zM505 654q0 182 103 288.5t278 106.5q146 0 242 -79t110 -211h-188q-11 58 -55 92t-107 34q-85 0 -133.5 -61.5t-48.5 -169.5q0 -110 48.5 -172t133.5 -62 q66 0 108.5 31.5t53.5 88.5h188q-14 -132 -108 -208t-243 -76q-177 0 -279.5 107t-102.5 291z" />
<glyph unicode="&#xaa;" horiz-adv-x="1031" d="M91 783q0 127 93 199t271 83l207 11v75q1 50 -37.5 78.5t-106.5 28.5q-59 0 -96 -21.5t-45 -60.5h-252q10 135 117.5 212t285.5 77q185 0 291 -85t106 -234v-631h-256v113h-18q-33 -61 -101.5 -96t-157.5 -35q-137 0 -219 78t-82 208zM354 799q0 -49 36.5 -77.5 t100.5 -28.5q75 0 124 44t49 111v70l-167 -12q-143 -9 -143 -107z" />
<glyph unicode="&#xab;" horiz-adv-x="1447" d="M158 562v8l349 411h271l-347 -409v-11l347 -410h-276zM669 562v8l349 411h271l-347 -409v-11l347 -410h-276z" />
<glyph unicode="&#xac;" horiz-adv-x="1415" d="M185 455v258h1045v-654h-255v396h-790z" />
<glyph unicode="&#xad;" horiz-adv-x="992" d="M168 446v273h657v-273h-657z" />
<glyph unicode="&#xae;" horiz-adv-x="1260" d="M100 969q0 145 71 267t193 193t266 71q145 0 267 -71t192.5 -193t70.5 -267t-70.5 -267t-192.5 -193t-267 -71q-144 0 -266 71t-193 193t-71 267zM233 969q0 -164 116 -279.5t281 -115.5q166 0 281.5 115.5t115.5 279.5q0 165 -115.5 280t-281.5 115q-165 0 -281 -115 t-116 -280zM421 733v487h256q80 0 130 -43t50 -113q0 -56 -27 -95t-76 -53l127 -183h-149l-111 165h-75v-165h-125zM546 995h99q78 0 78 60q0 61 -76 61h-101v-121z" />
<glyph unicode="&#xaf;" horiz-adv-x="1048" d="M157 1316v180h735v-180h-735z" />
<glyph unicode="&#xb0;" horiz-adv-x="924" d="M102 1102q0 152 103 256t257 104t257 -104t103 -256t-103 -256t-257 -104t-257 104t-103 256zM280 1102q0 -79 50.5 -131.5t131.5 -52.5t132 52.5t51 131.5t-51 131t-132 52t-131.5 -52t-50.5 -131z" />
<glyph unicode="&#xb1;" horiz-adv-x="1415" d="M208 71v225h997v-225h-997zM208 650v224h375v234h249v-234h375v-224h-375v-234h-249v234h-375z" />
<glyph unicode="&#xb2;" horiz-adv-x="914" d="M80 1525v5q0 145 102 232.5t271 87.5q163 0 260.5 -77t97.5 -206q0 -89 -54.5 -168t-184.5 -175l-114 -97v-18h368v-213h-727v189l277 239q107 89 141.5 132t34.5 86t-31 70.5t-80 27.5q-52 0 -84 -30t-32 -79v-6h-245z" />
<glyph unicode="&#xb3;" horiz-adv-x="950" d="M85 1189h246q2 -49 39.5 -77.5t97.5 -28.5q59 0 95 27.5t36 71.5q0 46 -34 71t-96 25h-115v177h113q53 0 84.5 25.5t31.5 68.5q0 40 -32.5 65.5t-85.5 25.5q-56 0 -90.5 -28t-37.5 -76h-243q1 142 103 226.5t273 84.5q162 0 261.5 -71t99.5 -186q0 -79 -48.5 -135.5 t-127.5 -69.5v-19q97 -8 153.5 -66t56.5 -147q0 -127 -109.5 -205.5t-285.5 -78.5q-175 0 -279.5 87t-105.5 233z" />
<glyph unicode="&#xb4;" horiz-adv-x="1098" d="M260 1281l247 353h309l-287 -353h-269z" />
<glyph unicode="&#x3bc;" horiz-adv-x="1365" d="M146 -366v1469h291v-644q0 -230 201 -230q96 0 155.5 65t59.5 171v638h291v-760q0 -70 20 -96.5t69 -26.5q19 0 54 8v-221q-61 -18 -130 -18q-116 0 -178.5 43.5t-87.5 144.5l-3 14h-19q-44 -215 -244 -215q-122 0 -170 78h-18v-420h-291z" />
<glyph unicode="&#xb5;" horiz-adv-x="1365" d="M146 -366v1469h291v-644q0 -230 201 -230q96 0 155.5 65t59.5 171v638h291v-760q0 -70 20 -96.5t69 -26.5q19 0 54 8v-221q-61 -18 -130 -18q-116 0 -178.5 43.5t-87.5 144.5l-3 14h-19q-44 -215 -244 -215q-122 0 -170 78h-18v-420h-291z" />
<glyph unicode="&#xb6;" horiz-adv-x="1580" d="M142 939q0 219 147 361.5t378 142.5h299v-1702h-280v702h-20q-224 0 -374 143t-150 353zM1135 -259v1702h280v-1702h-280z" />
<glyph unicode="&#xb7;" horiz-adv-x="723" d="M181 733q0 78 50 127.5t131 49.5t130.5 -49.5t49.5 -127.5q0 -77 -49.5 -127t-130.5 -50t-131 50t-50 127z" />
<glyph unicode="&#xb8;" horiz-adv-x="1098" d="M367 -338q42 -14 116 -14q112 0 112 59q0 30 -30.5 43t-99.5 13h-60v116l64 148h161v-27l-45 -108q95 -5 145.5 -50.5t50.5 -126.5q0 -97 -70 -151t-197 -54q-86 0 -147 18v134z" />
<glyph unicode="&#xb9;" horiz-adv-x="761" d="M87 1434v235q91 68 232 155h270v-928h-267v679h-18q-7 -4 -111.5 -72t-105.5 -69z" />
<glyph unicode="&#xba;" horiz-adv-x="1107" d="M95 980q0 223 123 352.5t335 129.5q214 0 336 -128.5t122 -353.5q0 -228 -121 -355.5t-337 -127.5q-215 0 -336.5 128t-121.5 355zM367 980q0 -129 48.5 -199.5t137.5 -70.5t137.5 70.5t48.5 199.5q0 128 -49 198.5t-137 70.5t-137 -71t-49 -198z" />
<glyph unicode="&#xbb;" horiz-adv-x="1447" d="M158 151l347 410v11l-347 409h271l349 -411v-8l-344 -411h-276zM669 151l347 410v11l-347 409h271l349 -411v-8l-344 -411h-276z" />
<glyph unicode="&#xbc;" horiz-adv-x="2242" d="M87 1053v235q91 68 232 155h270v-928h-267v679h-18q-7 -4 -111.5 -72t-105.5 -69zM569 0l394 749l305 694h274l-399 -742l-300 -701h-274zM1318 134v214q49 100 125.5 224.5t233.5 355.5h367v-588h110v-196h-119v-144h-236v134h-481zM1546 334h254v393h-14 q-191 -295 -240 -390v-3z" />
<glyph unicode="&#xbd;" horiz-adv-x="2243" d="M87 1053v235q91 68 232 155h270v-928h-267v679h-18q-7 -4 -111.5 -72t-105.5 -69zM569 0l394 749l305 694h274l-399 -742l-300 -701h-274zM1410 629v5q0 145 102 232.5t271 87.5q163 0 260.5 -77t97.5 -206q0 -89 -54.5 -168t-184.5 -175l-114 -97v-18h368v-213h-727v189 l277 239q107 89 141.5 132t34.5 86t-31 70.5t-80 27.5q-52 0 -84 -30t-32 -79v-6h-245z" />
<glyph unicode="&#xbe;" horiz-adv-x="2402" d="M85 808h246q2 -49 39.5 -77.5t97.5 -28.5q59 0 95 27.5t36 71.5q0 46 -34 71t-96 25h-115v177h113q53 0 84.5 25.5t31.5 68.5q0 40 -32.5 65.5t-85.5 25.5q-56 0 -90.5 -28t-37.5 -76h-243q1 142 103 226.5t273 84.5q162 0 261.5 -71t99.5 -186q0 -79 -48.5 -135.5 t-127.5 -69.5v-19q97 -8 153.5 -66t56.5 -147q0 -127 -109.5 -205.5t-285.5 -78.5q-175 0 -279.5 87t-105.5 233zM729 0l394 749l305 694h274l-399 -742l-300 -701h-274zM1478 134v214q49 100 125.5 224.5t233.5 355.5h367v-588h110v-196h-119v-144h-236v134h-481zM1706 334 h254v393h-14q-191 -295 -240 -390v-3z" />
<glyph unicode="&#xbf;" horiz-adv-x="1141" d="M103 56q0 110 53.5 191.5t160.5 145.5q100 59 135 104.5t35 117.5v53h264l2 -54q10 -119 -32 -194.5t-148 -137.5q-97 -58 -132.5 -103.5t-35.5 -113.5q0 -71 53 -115.5t138 -44.5t138 49.5t58 132.5h272q-4 -191 -132 -306.5t-353 -115.5q-214 0 -345 108t-131 283z M427 981q0 79 49 124.5t133 45.5q85 0 133.5 -45.5t48.5 -124.5t-48.5 -124.5t-133.5 -45.5q-84 0 -133 45.5t-49 124.5z" />
<glyph unicode="&#xc0;" horiz-adv-x="1500" d="M72 0l501 1443h355l501 -1443h-327l-109 344h-507l-111 -344h-303zM309 1908h315l276 -318h-277zM551 577h378l-179 566h-18z" />
<glyph unicode="&#xc1;" horiz-adv-x="1500" d="M72 0l501 1443h355l501 -1443h-327l-109 344h-507l-111 -344h-303zM551 577h378l-179 566h-18zM609 1590l277 318h315l-314 -318h-278z" />
<glyph unicode="&#xc2;" horiz-adv-x="1500" d="M72 0l501 1443h355l501 -1443h-327l-109 344h-507l-111 -344h-303zM330 1590l284 335h272l284 -335h-265l-146 187h-18l-146 -187h-265zM551 577h378l-179 566h-18z" />
<glyph unicode="&#xc3;" horiz-adv-x="1500" d="M72 0l501 1443h355l501 -1443h-327l-109 344h-507l-111 -344h-303zM343 1575q0 145 71.5 233t189.5 88q42 0 79 -15t62.5 -36t48 -42t45 -36t43.5 -15q87 0 88 138h187q0 -144 -71.5 -231t-189.5 -87q-42 0 -79 15t-62.5 36t-48 42t-45 36t-43.5 15q-86 0 -88 -141h-187z M551 577h378l-179 566h-18z" />
<glyph unicode="&#xc4;" horiz-adv-x="1500" d="M72 0l501 1443h355l501 -1443h-327l-109 344h-507l-111 -344h-303zM361 1731q0 66 43.5 108.5t111.5 42.5t111.5 -42.5t43.5 -108.5t-44 -109t-111 -43t-111 43t-44 109zM551 577h378l-179 566h-18zM829 1731q0 66 44 108.5t111 42.5q68 0 112 -42.5t44 -108.5t-44 -109 t-112 -43q-67 0 -111 43t-44 109z" />
<glyph unicode="&#xc5;" horiz-adv-x="1500" d="M72 0l501 1443h355l501 -1443h-327l-109 344h-507l-111 -344h-303zM545 1746q0 86 58.5 142.5t147.5 56.5q87 0 145.5 -56.5t58.5 -142.5q0 -87 -58.5 -143.5t-145.5 -56.5q-89 0 -147.5 56.5t-58.5 143.5zM551 577h378l-179 566h-18zM655 1745q0 -40 27 -66.5t68 -26.5 q42 0 68.5 26.5t26.5 66.5q0 41 -27 67.5t-68 26.5t-68 -26.5t-27 -67.5z" />
<glyph unicode="&#xc6;" horiz-adv-x="2059" d="M72 0l595 1443h1250v-258h-651v-341h614v-239h-614v-347h651v-258h-927v364h-465l-154 -364h-299zM612 598h378v604h-129z" />
<glyph unicode="&#xc7;" horiz-adv-x="1518" d="M111 722q0 352 181.5 555t495.5 203q256 0 432.5 -152.5t193.5 -388.5h-294q-22 125 -112.5 200t-219.5 75q-170 0 -269 -132t-99 -360t99 -360.5t270 -132.5q130 0 220 71t112 190h294q-17 -215 -166.5 -357.5t-379.5 -165.5l-31 -74q95 -5 145.5 -50.5t50.5 -126.5 q0 -97 -70 -151t-197 -54q-86 0 -147 18v134q42 -14 116 -14q112 0 112 59q0 30 -30.5 43t-99.5 13h-60v116l38 88q-274 30 -429.5 229.5t-155.5 524.5z" />
<glyph unicode="&#xc8;" horiz-adv-x="1274" d="M175 0v1443h956v-258h-654v-337h617v-239h-617v-351h654v-258h-956zM212 1908h315l276 -318h-277z" />
<glyph unicode="&#xc9;" horiz-adv-x="1274" d="M175 0v1443h956v-258h-654v-337h617v-239h-617v-351h654v-258h-956zM512 1590l277 318h315l-314 -318h-278z" />
<glyph unicode="&#xca;" horiz-adv-x="1274" d="M175 0v1443h956v-258h-654v-337h617v-239h-617v-351h654v-258h-956zM233 1590l284 335h272l284 -335h-265l-146 187h-18l-146 -187h-265z" />
<glyph unicode="&#xcb;" horiz-adv-x="1274" d="M175 0v1443h956v-258h-654v-337h617v-239h-617v-351h654v-258h-956zM264 1731q0 66 43.5 108.5t111.5 42.5t111.5 -42.5t43.5 -108.5t-44 -109t-111 -43t-111 43t-44 109zM732 1731q0 66 44 108.5t111 42.5q68 0 112 -42.5t44 -108.5t-44 -109t-112 -43q-67 0 -111 43 t-44 109z" />
<glyph unicode="&#xcc;" horiz-adv-x="652" d="M-115 1908h315l276 -318h-277zM175 0v1443h302v-1443h-302z" />
<glyph unicode="&#xcd;" horiz-adv-x="652" d="M175 0v1443h302v-1443h-302zM185 1590l277 318h315l-314 -318h-278z" />
<glyph unicode="&#xce;" horiz-adv-x="652" d="M-94 1590l284 335h272l284 -335h-265l-146 187h-18l-146 -187h-265zM175 0v1443h302v-1443h-302z" />
<glyph unicode="&#xcf;" horiz-adv-x="652" d="M-63 1731q0 66 43.5 108.5t111.5 42.5t111.5 -42.5t43.5 -108.5t-44 -109t-111 -43t-111 43t-44 109zM175 0v1443h302v-1443h-302zM405 1731q0 66 44 108.5t111 42.5q68 0 112 -42.5t44 -108.5t-44 -109t-112 -43q-67 0 -111 43t-44 109z" />
<glyph unicode="&#xd0;" horiz-adv-x="1530" d="M50 618v227h125v599h568q322 0 499.5 -186.5t177.5 -525.5q0 -351 -176.5 -541.5t-500.5 -190.5h-568v618h-125zM477 258h218q201 0 309 120.5t108 348.5q0 218 -110 338.5t-307 120.5h-218v-341h228v-227h-228v-360z" />
<glyph unicode="&#xd1;" horiz-adv-x="1573" d="M175 0v1443h252l664 -899h18v899h289v-1443h-250l-666 903h-18v-903h-289zM376 1575q0 145 71.5 233t189.5 88q42 0 79 -15t62.5 -36t48 -42t45 -36t43.5 -15q87 0 88 138h187q0 -144 -71.5 -231t-189.5 -87q-42 0 -79 15t-62.5 36t-48 42t-45 36t-43.5 15 q-86 0 -88 -141h-187z" />
<glyph unicode="&#xd2;" horiz-adv-x="1610" d="M111 722q0 350 188 554t507 204q320 0 506.5 -204t186.5 -554q0 -351 -186.5 -555t-506.5 -204q-321 0 -508 204t-187 555zM365 1908h315l276 -318h-277zM420 722q0 -226 104.5 -360t281.5 -134q176 0 280.5 134t104.5 360t-104.5 359.5t-280.5 133.5t-281 -133.5 t-105 -359.5z" />
<glyph unicode="&#xd3;" horiz-adv-x="1610" d="M111 722q0 350 188 554t507 204q320 0 506.5 -204t186.5 -554q0 -351 -186.5 -555t-506.5 -204q-321 0 -508 204t-187 555zM420 722q0 -226 104.5 -360t281.5 -134q176 0 280.5 134t104.5 360t-104.5 359.5t-280.5 133.5t-281 -133.5t-105 -359.5zM665 1590l277 318h315 l-314 -318h-278z" />
<glyph unicode="&#xd4;" horiz-adv-x="1610" d="M111 722q0 350 188 554t507 204q320 0 506.5 -204t186.5 -554q0 -351 -186.5 -555t-506.5 -204q-321 0 -508 204t-187 555zM386 1590l284 335h272l284 -335h-265l-146 187h-18l-146 -187h-265zM420 722q0 -226 104.5 -360t281.5 -134q176 0 280.5 134t104.5 360 t-104.5 359.5t-280.5 133.5t-281 -133.5t-105 -359.5z" />
<glyph unicode="&#xd5;" horiz-adv-x="1610" d="M111 722q0 350 188 554t507 204q320 0 506.5 -204t186.5 -554q0 -351 -186.5 -555t-506.5 -204q-321 0 -508 204t-187 555zM399 1575q0 145 71.5 233t189.5 88q42 0 79 -15t62.5 -36t48 -42t45 -36t43.5 -15q87 0 88 138h187q0 -144 -71.5 -231t-189.5 -87q-42 0 -79 15 t-62.5 36t-48 42t-45 36t-43.5 15q-86 0 -88 -141h-187zM420 722q0 -226 104.5 -360t281.5 -134q176 0 280.5 134t104.5 360t-104.5 359.5t-280.5 133.5t-281 -133.5t-105 -359.5z" />
<glyph unicode="&#xd6;" horiz-adv-x="1610" d="M111 722q0 350 188 554t507 204q320 0 506.5 -204t186.5 -554q0 -351 -186.5 -555t-506.5 -204q-321 0 -508 204t-187 555zM417 1731q0 66 43.5 108.5t111.5 42.5t111.5 -42.5t43.5 -108.5t-44 -109t-111 -43t-111 43t-44 109zM420 722q0 -226 104.5 -360t281.5 -134 q176 0 280.5 134t104.5 360t-104.5 359.5t-280.5 133.5t-281 -133.5t-105 -359.5zM885 1731q0 66 44 108.5t111 42.5q68 0 112 -42.5t44 -108.5t-44 -109t-112 -43q-67 0 -111 43t-44 109z" />
<glyph unicode="&#xd7;" horiz-adv-x="1415" d="M228 280l304 304l-304 305l175 182l305 -304l304 304l175 -182l-304 -305l304 -304l-175 -182l-304 304l-305 -304z" />
<glyph unicode="&#xd8;" horiz-adv-x="1592" d="M111 722q0 350 188 554t507 204q207 0 360 -88l76 115l108 -59l-84 -127q113 -98 173 -251t60 -348q0 -351 -186.5 -555t-506.5 -204q-217 0 -377 97l-85 -128l-102 66l90 135q-107 100 -164 249.5t-57 339.5zM420 722q0 -201 83 -330l506 763q-88 60 -203 60 q-176 0 -281 -133.5t-105 -359.5zM587 299q93 -71 219 -71q176 0 280.5 134t104.5 360q0 216 -94 345z" />
<glyph unicode="&#xd9;" horiz-adv-x="1565" d="M178 498v945h302v-914q0 -138 79.5 -218t222.5 -80q144 0 223.5 80t79.5 218v914h302v-945q0 -241 -164.5 -388t-440.5 -147q-275 0 -439.5 147t-164.5 388zM341 1908h315l276 -318h-277z" />
<glyph unicode="&#xda;" horiz-adv-x="1565" d="M178 498v945h302v-914q0 -138 79.5 -218t222.5 -80q144 0 223.5 80t79.5 218v914h302v-945q0 -241 -164.5 -388t-440.5 -147q-275 0 -439.5 147t-164.5 388zM641 1590l277 318h315l-314 -318h-278z" />
<glyph unicode="&#xdb;" horiz-adv-x="1565" d="M178 498v945h302v-914q0 -138 79.5 -218t222.5 -80q144 0 223.5 80t79.5 218v914h302v-945q0 -241 -164.5 -388t-440.5 -147q-275 0 -439.5 147t-164.5 388zM362 1590l284 335h272l284 -335h-265l-146 187h-18l-146 -187h-265z" />
<glyph unicode="&#xdc;" horiz-adv-x="1565" d="M178 498v945h302v-914q0 -138 79.5 -218t222.5 -80q144 0 223.5 80t79.5 218v914h302v-945q0 -241 -164.5 -388t-440.5 -147q-275 0 -439.5 147t-164.5 388zM393 1731q0 66 43.5 108.5t111.5 42.5t111.5 -42.5t43.5 -108.5t-44 -109t-111 -43t-111 43t-44 109zM861 1731 q0 66 44 108.5t111 42.5q68 0 112 -42.5t44 -108.5t-44 -109t-112 -43q-67 0 -111 43t-44 109z" />
<glyph unicode="&#xdd;" horiz-adv-x="1452" d="M72 1443h327l318 -604h18l317 604h327l-502 -912v-531h-302v531zM585 1590l277 318h315l-314 -318h-278z" />
<glyph unicode="&#xde;" horiz-adv-x="1378" d="M175 0v1443h304v-232h307q209 0 342 -125t133 -337q0 -211 -138 -336t-352 -125h-294v-288h-302zM477 533h226q117 0 184 55.5t67 160.5q0 104 -66.5 159t-183.5 55h-227v-430z" />
<glyph unicode="&#xdf;" horiz-adv-x="1402" d="M192 0v1079q0 186 135.5 294t364.5 108q219 0 356.5 -105t137.5 -272q0 -119 -60.5 -207t-157.5 -115v-19q151 -10 243 -107.5t92 -254.5q0 -187 -132 -301.5t-353 -114.5q-114 0 -181 16v241q54 -18 129 -18q115 0 178 52.5t63 142.5q0 91 -72.5 143.5t-201.5 52.5h-72 v245h49q88 0 140.5 51t52.5 141q0 83 -55.5 134t-150.5 51q-104 0 -159.5 -56.5t-55.5 -163.5v-1017h-290z" />
<glyph unicode="&#xe0;" horiz-adv-x="1208" d="M87 315q0 149 110.5 234.5t316.5 97.5l267 16v90q0 69 -48 106.5t-138 37.5q-162 0 -199 -102h-268q14 153 144.5 242.5t338.5 89.5q218 0 337.5 -98t119.5 -276v-753h-282v144h-18q-43 -76 -128 -118.5t-192 -42.5q-160 0 -260.5 91t-100.5 241zM214 1634h309l247 -353 h-269zM372 334q0 -61 47.5 -96.5t124.5 -35.5q101 0 169 57t68 141v81l-223 -14q-186 -13 -186 -133z" />
<glyph unicode="&#xe1;" horiz-adv-x="1208" d="M87 315q0 149 110.5 234.5t316.5 97.5l267 16v90q0 69 -48 106.5t-138 37.5q-162 0 -199 -102h-268q14 153 144.5 242.5t338.5 89.5q218 0 337.5 -98t119.5 -276v-753h-282v144h-18q-43 -76 -128 -118.5t-192 -42.5q-160 0 -260.5 91t-100.5 241zM372 334 q0 -61 47.5 -96.5t124.5 -35.5q101 0 169 57t68 141v81l-223 -14q-186 -13 -186 -133zM456 1281l247 353h309l-287 -353h-269z" />
<glyph unicode="&#xe2;" horiz-adv-x="1208" d="M87 315q0 149 110.5 234.5t316.5 97.5l267 16v90q0 69 -48 106.5t-138 37.5q-162 0 -199 -102h-268q14 153 144.5 242.5t338.5 89.5q218 0 337.5 -98t119.5 -276v-753h-282v144h-18q-43 -76 -128 -118.5t-192 -42.5q-160 0 -260.5 91t-100.5 241zM190 1251l275 354h291 l275 -354h-263l-148 209h-18l-149 -209h-263zM372 334q0 -61 47.5 -96.5t124.5 -35.5q101 0 169 57t68 141v81l-223 -14q-186 -13 -186 -133z" />
<glyph unicode="&#xe3;" horiz-adv-x="1208" d="M87 315q0 149 110.5 234.5t316.5 97.5l267 16v90q0 69 -48 106.5t-138 37.5q-162 0 -199 -102h-268q14 153 144.5 242.5t338.5 89.5q218 0 337.5 -98t119.5 -276v-753h-282v144h-18q-43 -76 -128 -118.5t-192 -42.5q-160 0 -260.5 91t-100.5 241zM209 1256 q0 145 71.5 233t189.5 88q42 0 79 -15t62.5 -36t48 -42t45 -36t43.5 -15q87 0 88 138h187q0 -144 -71.5 -231t-189.5 -87q-42 0 -79 15t-62.5 36t-48 42t-45 36t-43.5 15q-86 0 -88 -141h-187zM372 334q0 -61 47.5 -96.5t124.5 -35.5q101 0 169 57t68 141v81l-223 -14 q-186 -13 -186 -133z" />
<glyph unicode="&#xe4;" horiz-adv-x="1208" d="M87 315q0 149 110.5 234.5t316.5 97.5l267 16v90q0 69 -48 106.5t-138 37.5q-162 0 -199 -102h-268q14 153 144.5 242.5t338.5 89.5q218 0 337.5 -98t119.5 -276v-753h-282v144h-18q-43 -76 -128 -118.5t-192 -42.5q-160 0 -260.5 91t-100.5 241zM222 1403 q0 66 43.5 108.5t111.5 42.5t111.5 -42.5t43.5 -108.5t-44 -109t-111 -43t-111 43t-44 109zM372 334q0 -61 47.5 -96.5t124.5 -35.5q101 0 169 57t68 141v81l-223 -14q-186 -13 -186 -133zM690 1403q0 66 44 108.5t111 42.5q68 0 112 -42.5t44 -108.5t-44 -109t-112 -43 q-67 0 -111 43t-44 109z" />
<glyph unicode="&#xe5;" horiz-adv-x="1208" d="M87 315q0 149 110.5 234.5t316.5 97.5l267 16v90q0 69 -48 106.5t-138 37.5q-162 0 -199 -102h-268q14 153 144.5 242.5t338.5 89.5q218 0 337.5 -98t119.5 -276v-753h-282v144h-18q-43 -76 -128 -118.5t-192 -42.5q-160 0 -260.5 91t-100.5 241zM365 1492 q0 102 70.5 170t175.5 68t175 -67.5t70 -170.5q0 -104 -70 -172.5t-175 -68.5t-175.5 68.5t-70.5 172.5zM372 334q0 -61 47.5 -96.5t124.5 -35.5q101 0 169 57t68 141v81l-223 -14q-186 -13 -186 -133zM505 1491q0 -46 30 -75t76 -29t75.5 29.5t29.5 74.5q0 44 -30 73.5 t-75 29.5q-46 0 -76 -29.5t-30 -73.5z" />
<glyph unicode="&#xe6;" horiz-adv-x="1894" d="M87 315q0 149 110.5 234.5t316.5 97.5l267 16v73q0 80 -49.5 120.5t-136.5 40.5q-162 0 -199 -102h-268q13 146 139 239t313 93q251 0 357 -158h18q58 72 151.5 115t204.5 43q228 0 360 -148t132 -401v-94h-747v-26q4 -117 74 -187.5t182 -70.5q155 0 212 114h269 q-33 -156 -161 -247t-317 -91q-130 0 -235 53.5t-156 144.5h-18q-64 -93 -169.5 -145.5t-237.5 -52.5q-187 0 -299.5 94t-112.5 245zM372 332q0 -62 48.5 -97.5t128.5 -35.5q103 0 167.5 58t64.5 140v84l-223 -14q-186 -13 -186 -135zM1056 669h462q-4 105 -66.5 170 t-158.5 65q-102 0 -166.5 -64.5t-70.5 -170.5z" />
<glyph unicode="&#xe7;" horiz-adv-x="1203" d="M92 554q0 275 140 424t399 149q216 0 344.5 -111t146.5 -302h-272q-15 81 -71.5 127.5t-147.5 46.5q-118 0 -181.5 -86t-63.5 -248q0 -164 63.5 -251.5t181.5 -87.5q90 0 146.5 43t72.5 124h272q-16 -167 -122 -273t-282 -128l-37 -88q95 -5 145.5 -50.5t50.5 -126.5 q0 -97 -70 -151t-197 -54q-86 0 -147 18v134q42 -14 116 -14q112 0 112 59q0 30 -30.5 43t-99.5 13h-60v116l44 101q-218 24 -335.5 172t-117.5 401z" />
<glyph unicode="&#xe8;" horiz-adv-x="1231" d="M92 546q0 269 142 425t388 156q244 0 380.5 -147t136.5 -410v-89h-757v-15q3 -123 70.5 -194.5t181.5 -71.5q86 0 144 29.5t81 84.5h271q-33 -157 -167.5 -247.5t-336.5 -90.5q-252 0 -393 150.5t-141 419.5zM225 1634h309l247 -353h-269zM383 667h470 q-5 110 -66.5 173.5t-163.5 63.5q-101 0 -166.5 -65t-73.5 -172z" />
<glyph unicode="&#xe9;" horiz-adv-x="1231" d="M92 546q0 269 142 425t388 156q244 0 380.5 -147t136.5 -410v-89h-757v-15q3 -123 70.5 -194.5t181.5 -71.5q86 0 144 29.5t81 84.5h271q-33 -157 -167.5 -247.5t-336.5 -90.5q-252 0 -393 150.5t-141 419.5zM383 667h470q-5 110 -66.5 173.5t-163.5 63.5 q-101 0 -166.5 -65t-73.5 -172zM467 1281l247 353h309l-287 -353h-269z" />
<glyph unicode="&#xea;" horiz-adv-x="1231" d="M92 546q0 269 142 425t388 156q244 0 380.5 -147t136.5 -410v-89h-757v-15q3 -123 70.5 -194.5t181.5 -71.5q86 0 144 29.5t81 84.5h271q-33 -157 -167.5 -247.5t-336.5 -90.5q-252 0 -393 150.5t-141 419.5zM201 1251l275 354h291l275 -354h-263l-148 209h-18l-149 -209 h-263zM383 667h470q-5 110 -66.5 173.5t-163.5 63.5q-101 0 -166.5 -65t-73.5 -172z" />
<glyph unicode="&#xeb;" horiz-adv-x="1231" d="M92 546q0 269 142 425t388 156q244 0 380.5 -147t136.5 -410v-89h-757v-15q3 -123 70.5 -194.5t181.5 -71.5q86 0 144 29.5t81 84.5h271q-33 -157 -167.5 -247.5t-336.5 -90.5q-252 0 -393 150.5t-141 419.5zM233 1403q0 66 43.5 108.5t111.5 42.5t111.5 -42.5 t43.5 -108.5t-44 -109t-111 -43t-111 43t-44 109zM383 667h470q-5 110 -66.5 173.5t-163.5 63.5q-101 0 -166.5 -65t-73.5 -172zM701 1403q0 66 44 108.5t111 42.5q68 0 112 -42.5t44 -108.5t-44 -109t-112 -43q-67 0 -111 43t-44 109z" />
<glyph unicode="&#xec;" horiz-adv-x="587" d="M-103 1634h309l247 -353h-269zM148 0v1103h291v-1103h-291z" />
<glyph unicode="&#xed;" horiz-adv-x="587" d="M139 1281l247 353h309l-287 -353h-269zM148 0v1103h291v-1103h-291z" />
<glyph unicode="&#xee;" horiz-adv-x="587" d="M-127 1251l275 354h291l275 -354h-263l-148 209h-18l-149 -209h-263zM148 0v1103h291v-1103h-291z" />
<glyph unicode="&#xef;" horiz-adv-x="587" d="M-95 1403q0 66 43.5 108.5t111.5 42.5t111.5 -42.5t43.5 -108.5t-44 -109t-111 -43t-111 43t-44 109zM148 0v1103h291v-1103h-291zM373 1403q0 66 44 108.5t111 42.5q68 0 112 -42.5t44 -108.5t-44 -109t-112 -43q-67 0 -111 43t-44 109z" />
<glyph unicode="&#xf0;" horiz-adv-x="1277" d="M97 536q0 230 127 373.5t331 143.5q90 0 166.5 -34t116.5 -91h17q-20 65 -65.5 140.5t-105.5 140.5l-285 -95l-55 143l228 76q-78 69 -242 183h363q60 -45 119 -100l265 89l57 -143l-205 -68q124 -146 188.5 -322.5t64.5 -367.5q0 -283 -148 -452t-396 -169 q-245 0 -393 151t-148 402zM396 534q0 -142 67 -225t182 -83q116 0 183 83t67 225q0 141 -68 225t-182 84q-115 0 -182 -83.5t-67 -225.5z" />
<glyph unicode="&#xf1;" horiz-adv-x="1285" d="M146 0v1103h282v-177h18q39 95 122.5 148t203.5 53q183 0 280 -107.5t97 -306.5v-713h-291v644q0 232 -203 232q-101 0 -159.5 -65.5t-58.5 -174.5v-636h-291zM253 1256q0 145 71.5 233t189.5 88q42 0 79 -15t62.5 -36t48 -42t45 -36t43.5 -15q87 0 88 138h187 q0 -144 -71.5 -231t-189.5 -87q-42 0 -79 15t-62.5 36t-48 42t-45 36t-43.5 15q-86 0 -88 -141h-187z" />
<glyph unicode="&#xf2;" horiz-adv-x="1269" d="M92 552q0 268 145.5 421.5t397.5 153.5t397.5 -153.5t145.5 -421.5q0 -270 -144.5 -423t-398.5 -153t-398.5 153t-144.5 423zM238 1634h309l247 -353h-269zM391 552q0 -161 63.5 -249.5t180.5 -88.5q116 0 180 88.5t64 249.5q0 159 -64.5 248t-179.5 89q-116 0 -180 -89 t-64 -248z" />
<glyph unicode="&#xf3;" horiz-adv-x="1269" d="M92 552q0 268 145.5 421.5t397.5 153.5t397.5 -153.5t145.5 -421.5q0 -270 -144.5 -423t-398.5 -153t-398.5 153t-144.5 423zM391 552q0 -161 63.5 -249.5t180.5 -88.5q116 0 180 88.5t64 249.5q0 159 -64.5 248t-179.5 89q-116 0 -180 -89t-64 -248zM480 1281l247 353 h309l-287 -353h-269z" />
<glyph unicode="&#xf4;" horiz-adv-x="1269" d="M92 552q0 268 145.5 421.5t397.5 153.5t397.5 -153.5t145.5 -421.5q0 -270 -144.5 -423t-398.5 -153t-398.5 153t-144.5 423zM214 1251l275 354h291l275 -354h-263l-148 209h-18l-149 -209h-263zM391 552q0 -161 63.5 -249.5t180.5 -88.5q116 0 180 88.5t64 249.5 q0 159 -64.5 248t-179.5 89q-116 0 -180 -89t-64 -248z" />
<glyph unicode="&#xf5;" horiz-adv-x="1269" d="M92 552q0 268 145.5 421.5t397.5 153.5t397.5 -153.5t145.5 -421.5q0 -270 -144.5 -423t-398.5 -153t-398.5 153t-144.5 423zM233 1256q0 145 71.5 233t189.5 88q42 0 79 -15t62.5 -36t48 -42t45 -36t43.5 -15q87 0 88 138h187q0 -144 -71.5 -231t-189.5 -87 q-42 0 -79 15t-62.5 36t-48 42t-45 36t-43.5 15q-86 0 -88 -141h-187zM391 552q0 -161 63.5 -249.5t180.5 -88.5q116 0 180 88.5t64 249.5q0 159 -64.5 248t-179.5 89q-116 0 -180 -89t-64 -248z" />
<glyph unicode="&#xf6;" horiz-adv-x="1269" d="M92 552q0 268 145.5 421.5t397.5 153.5t397.5 -153.5t145.5 -421.5q0 -270 -144.5 -423t-398.5 -153t-398.5 153t-144.5 423zM246 1403q0 66 43.5 108.5t111.5 42.5t111.5 -42.5t43.5 -108.5t-44 -109t-111 -43t-111 43t-44 109zM391 552q0 -161 63.5 -249.5t180.5 -88.5 q116 0 180 88.5t64 249.5q0 159 -64.5 248t-179.5 89q-116 0 -180 -89t-64 -248zM714 1403q0 66 44 108.5t111 42.5q68 0 112 -42.5t44 -108.5t-44 -109t-112 -43q-67 0 -111 43t-44 109z" />
<glyph unicode="&#xf7;" horiz-adv-x="1415" d="M168 472v225h1080v-225h-1080zM541 192q0 72 46.5 117t120.5 45t120.5 -45t46.5 -117t-46.5 -117t-120.5 -45t-120.5 45t-46.5 117zM541 977q0 72 46.5 116.5t120.5 44.5t120.5 -44.5t46.5 -116.5t-46.5 -117t-120.5 -45t-120.5 45t-46.5 117z" />
<glyph unicode="&#xf8;" horiz-adv-x="1269" d="M92 552q0 268 145.5 421.5t397.5 153.5q147 0 262 -55l62 100l106 -58l-67 -107q180 -155 180 -455q0 -270 -144.5 -423t-398.5 -153q-139 0 -249 48l-61 -97l-103 63l60 96q-190 153 -190 466zM391 552q0 -136 45 -219l324 520q-53 36 -125 36q-116 0 -180 -89t-64 -248 zM521 242q49 -28 114 -28q116 0 180 88.5t64 249.5q0 121 -38 203z" />
<glyph unicode="&#xf9;" horiz-adv-x="1290" d="M136 384v719h291v-644q0 -230 203 -230q107 0 165 63t58 175v636h291v-1103h-282v177h-18q-82 -201 -322 -201q-179 0 -282.5 108.5t-103.5 299.5zM243 1634h309l247 -353h-269z" />
<glyph unicode="&#xfa;" horiz-adv-x="1290" d="M136 384v719h291v-644q0 -230 203 -230q107 0 165 63t58 175v636h291v-1103h-282v177h-18q-82 -201 -322 -201q-179 0 -282.5 108.5t-103.5 299.5zM485 1281l247 353h309l-287 -353h-269z" />
<glyph unicode="&#xfb;" horiz-adv-x="1290" d="M136 384v719h291v-644q0 -230 203 -230q107 0 165 63t58 175v636h291v-1103h-282v177h-18q-82 -201 -322 -201q-179 0 -282.5 108.5t-103.5 299.5zM219 1251l275 354h291l275 -354h-263l-148 209h-18l-149 -209h-263z" />
<glyph unicode="&#xfc;" horiz-adv-x="1290" d="M136 384v719h291v-644q0 -230 203 -230q107 0 165 63t58 175v636h291v-1103h-282v177h-18q-82 -201 -322 -201q-179 0 -282.5 108.5t-103.5 299.5zM251 1403q0 66 43.5 108.5t111.5 42.5t111.5 -42.5t43.5 -108.5t-44 -109t-111 -43t-111 43t-44 109zM719 1403 q0 66 44 108.5t111 42.5q68 0 112 -42.5t44 -108.5t-44 -109t-112 -43q-67 0 -111 43t-44 109z" />
<glyph unicode="&#xfd;" horiz-adv-x="1223" d="M56 1103h321l232 -836h18l232 836h308l-380 -1120q-70 -212 -183.5 -298t-320.5 -86q-93 0 -111 3v234q10 -2 66 -2q83 0 130 28.5t65 90.5l10 40zM461 1281l247 353h309l-287 -353h-269z" />
<glyph unicode="&#xfe;" horiz-adv-x="1339" d="M151 -345v1852h287v-585h18q45 93 133 146t201 53q210 0 329 -151t119 -418q0 -266 -119 -417.5t-326 -151.5q-118 0 -205 49t-128 137h-18v-514h-291zM439 551q0 -151 67 -238t183 -87q118 0 184 86.5t66 239.5q0 152 -66.5 238.5t-182.5 86.5t-183.5 -87.5 t-67.5 -238.5z" />
<glyph unicode="&#xff;" horiz-adv-x="1223" d="M56 1103h321l232 -836h18l232 836h308l-380 -1120q-70 -212 -183.5 -298t-320.5 -86q-93 0 -111 3v234q10 -2 66 -2q83 0 130 28.5t65 90.5l10 40zM227 1403q0 66 43.5 108.5t111.5 42.5t111.5 -42.5t43.5 -108.5t-44 -109t-111 -43t-111 43t-44 109zM695 1403 q0 66 44 108.5t111 42.5q68 0 112 -42.5t44 -108.5t-44 -109t-112 -43q-67 0 -111 43t-44 109z" />
<glyph unicode="&#x100;" horiz-adv-x="1500" d="M72 0l501 1443h355l501 -1443h-327l-109 344h-507l-111 -344h-303zM377 1632v181h746v-181h-746zM551 577h378l-179 566h-18z" />
<glyph unicode="&#x101;" horiz-adv-x="1208" d="M87 315q0 149 110.5 234.5t316.5 97.5l267 16v90q0 69 -48 106.5t-138 37.5q-162 0 -199 -102h-268q14 153 144.5 242.5t338.5 89.5q218 0 337.5 -98t119.5 -276v-753h-282v144h-18q-43 -76 -128 -118.5t-192 -42.5q-160 0 -260.5 91t-100.5 241zM244 1316v180h735v-180 h-735zM372 334q0 -61 47.5 -96.5t124.5 -35.5q101 0 169 57t68 141v81l-223 -14q-186 -13 -186 -133z" />
<glyph unicode="&#x102;" horiz-adv-x="1500" d="M72 0l501 1443h355l501 -1443h-327l-109 344h-507l-111 -344h-303zM350 1915h208q2 -75 53.5 -119.5t138.5 -44.5t138.5 44.5t53.5 119.5h208q0 -150 -108.5 -243t-291.5 -93t-291.5 93t-108.5 243zM551 577h378l-179 566h-18z" />
<glyph unicode="&#x103;" horiz-adv-x="1208" d="M87 315q0 149 110.5 234.5t316.5 97.5l267 16v90q0 69 -48 106.5t-138 37.5q-162 0 -199 -102h-268q14 153 144.5 242.5t338.5 89.5q218 0 337.5 -98t119.5 -276v-753h-282v144h-18q-43 -76 -128 -118.5t-192 -42.5q-160 0 -260.5 91t-100.5 241zM211 1602h207 q2 -81 53 -129.5t139 -48.5t139 48.5t53 129.5h208q0 -156 -108.5 -253.5t-291.5 -97.5t-291 97.5t-108 253.5zM372 334q0 -61 47.5 -96.5t124.5 -35.5q101 0 169 57t68 141v81l-223 -14q-186 -13 -186 -133z" />
<glyph unicode="&#x104;" horiz-adv-x="1500" d="M72 0l501 1443h355l501 -1443l-50 -6q-81 -18 -144 -69.5t-63 -114.5q0 -45 32 -70.5t86 -25.5q47 0 69 8v-167q-54 -21 -138 -21q-123 0 -199 63t-76 161q0 69 44 133t114 102l-111 351h-507l-111 -344h-303zM551 577h378l-179 566h-18z" />
<glyph unicode="&#x105;" horiz-adv-x="1208" d="M87 315q0 149 110 234.5t317 97.5l267 16v90q0 69 -48.5 106.5t-137.5 37.5q-162 0 -199 -102h-268q14 153 144.5 242.5t338.5 89.5q217 0 337 -98t120 -276v-753l-36 -7q-81 -21 -134 -71.5t-53 -111.5q0 -43 31 -69.5t87 -26.5q50 0 69 8v-167q-57 -21 -138 -21 q-122 0 -198.5 62.5t-76.5 161.5q0 73 47 137.5t120 98.5v150h-18q-43 -76 -128 -118.5t-192 -42.5q-161 0 -261 91.5t-100 240.5zM372 334q0 -60 47 -96t125 -36q101 0 169 57t68 141v81l-223 -14q-186 -13 -186 -133z" />
<glyph unicode="&#x106;" horiz-adv-x="1518" d="M111 722q0 352 181.5 555t495.5 203q256 0 432.5 -152.5t193.5 -388.5h-294q-22 125 -112.5 200t-219.5 75q-170 0 -269 -132t-99 -360t99 -360.5t270 -132.5q130 0 220 71t112 190h294q-19 -234 -192.5 -380.5t-434.5 -146.5q-314 0 -495.5 203.5t-181.5 555.5z M647 1591l277 318h315l-314 -318h-278z" />
<glyph unicode="&#x107;" horiz-adv-x="1203" d="M92 554q0 275 140 424t399 149q216 0 344.5 -111t146.5 -302h-272q-15 81 -71.5 127.5t-147.5 46.5q-118 0 -181.5 -86t-63.5 -248q0 -164 63.5 -251.5t181.5 -87.5q90 0 146.5 43t72.5 124h272q-18 -187 -148 -296.5t-343 -109.5q-258 0 -398.5 150.5t-140.5 427.5z M475 1281l247 353h309l-287 -353h-269z" />
<glyph unicode="&#x108;" horiz-adv-x="1518" d="M111 722q0 352 181.5 555t495.5 203q256 0 432.5 -152.5t193.5 -388.5h-294q-22 125 -112.5 200t-219.5 75q-170 0 -269 -132t-99 -360t99 -360.5t270 -132.5q130 0 220 71t112 190h294q-19 -234 -192.5 -380.5t-434.5 -146.5q-314 0 -495.5 203.5t-181.5 555.5z M368 1591l284 335h272l284 -335h-265l-146 187h-18l-146 -187h-265z" />
<glyph unicode="&#x109;" horiz-adv-x="1203" d="M92 554q0 275 140 424t399 149q216 0 344.5 -111t146.5 -302h-272q-15 81 -71.5 127.5t-147.5 46.5q-118 0 -181.5 -86t-63.5 -248q0 -164 63.5 -251.5t181.5 -87.5q90 0 146.5 43t72.5 124h272q-18 -187 -148 -296.5t-343 -109.5q-258 0 -398.5 150.5t-140.5 427.5z M209 1251l275 354h291l275 -354h-263l-148 209h-18l-149 -209h-263z" />
<glyph unicode="&#x10a;" horiz-adv-x="1518" d="M111 722q0 352 181.5 555t495.5 203q256 0 432.5 -152.5t193.5 -388.5h-294q-22 125 -112.5 200t-219.5 75q-170 0 -269 -132t-99 -360t99 -360.5t270 -132.5q130 0 220 71t112 190h294q-19 -234 -192.5 -380.5t-434.5 -146.5q-314 0 -495.5 203.5t-181.5 555.5z M630 1738q0 68 44.5 113t113.5 45t113 -45t44 -113t-44 -113t-113 -45t-113.5 45t-44.5 113z" />
<glyph unicode="&#x10b;" horiz-adv-x="1203" d="M92 554q0 275 140 424t399 149q216 0 344.5 -111t146.5 -302h-272q-15 81 -71.5 127.5t-147.5 46.5q-118 0 -181.5 -86t-63.5 -248q0 -164 63.5 -251.5t181.5 -87.5q90 0 146.5 43t72.5 124h272q-18 -187 -148 -296.5t-343 -109.5q-258 0 -398.5 150.5t-140.5 427.5z M469 1438q0 69 45.5 115t115.5 46t115.5 -46t45.5 -115t-45.5 -114.5t-115.5 -45.5t-115.5 45.5t-45.5 114.5z" />
<glyph unicode="&#x10c;" horiz-adv-x="1518" d="M111 722q0 352 181.5 555t495.5 203q256 0 432.5 -152.5t193.5 -388.5h-294q-22 125 -112.5 200t-219.5 75q-170 0 -269 -132t-99 -360t99 -360.5t270 -132.5q130 0 220 71t112 190h294q-19 -234 -192.5 -380.5t-434.5 -146.5q-314 0 -495.5 203.5t-181.5 555.5z M380 1909h253l145 -173h20l145 173h253l-281 -318h-254z" />
<glyph unicode="&#x10d;" horiz-adv-x="1203" d="M92 554q0 275 140 424t399 149q216 0 344.5 -111t146.5 -302h-272q-15 81 -71.5 127.5t-147.5 46.5q-118 0 -181.5 -86t-63.5 -248q0 -164 63.5 -251.5t181.5 -87.5q90 0 146.5 43t72.5 124h272q-18 -187 -148 -296.5t-343 -109.5q-258 0 -398.5 150.5t-140.5 427.5z M209 1605h263l149 -209h18l148 209h263l-275 -354h-291z" />
<glyph unicode="&#x10e;" horiz-adv-x="1530" d="M175 0v1444h568q322 0 499.5 -186.5t177.5 -525.5q0 -351 -176.5 -541.5t-500.5 -190.5h-568zM231 1908h253l145 -173h20l145 173h253l-281 -318h-254zM477 258h218q201 0 309 120.5t108 348.5q0 218 -110 338.5t-307 120.5h-218v-928z" />
<glyph unicode="&#x10f;" horiz-adv-x="1535" d="M92 553q0 263 120.5 415.5t328.5 152.5q112 0 199 -51.5t130 -142.5h17v597h291v-1524h-282v173h-18q-44 -89 -133 -139.5t-204 -50.5q-208 0 -328.5 153t-120.5 417zM391 552q0 -153 66 -239.5t183 -86.5t183.5 86.5t66.5 238.5q0 151 -67 238.5t-183 87.5t-182.5 -86.5 t-66.5 -238.5zM1314 1019v505h251l-50 -505h-201z" />
<glyph unicode="&#x110;" horiz-adv-x="1533" d="M50 618v227h128v599h568q322 0 499.5 -186.5t177.5 -525.5q0 -351 -176.5 -541.5t-500.5 -190.5h-568v618h-128zM480 258h218q201 0 309 120.5t108 348.5q0 218 -110 338.5t-307 120.5h-218v-341h225v-227h-225v-360z" />
<glyph unicode="&#x111;" horiz-adv-x="1346" d="M104 553q0 263 120.5 415.5t328.5 152.5q112 0 199 -51.5t130 -142.5h17v328h-233v153h233v116h291v-116h144v-153h-144v-1255h-282v173h-18q-44 -89 -133 -139.5t-204 -50.5q-208 0 -328.5 153t-120.5 417zM403 552q0 -153 66 -239.5t183 -86.5t183.5 86.5t66.5 238.5 q0 151 -67 238.5t-183 87.5t-182.5 -86.5t-66.5 -238.5z" />
<glyph unicode="&#x112;" horiz-adv-x="1274" d="M175 0v1443h956v-258h-654v-337h617v-239h-617v-351h654v-258h-956zM280 1632v181h746v-181h-746z" />
<glyph unicode="&#x113;" horiz-adv-x="1231" d="M92 546q0 269 142 425t388 156q244 0 380.5 -147t136.5 -410v-89h-757v-15q3 -123 70.5 -194.5t181.5 -71.5q86 0 144 29.5t81 84.5h271q-33 -157 -167.5 -247.5t-336.5 -90.5q-252 0 -393 150.5t-141 419.5zM255 1316v180h735v-180h-735zM383 667h470 q-5 110 -66.5 173.5t-163.5 63.5q-101 0 -166.5 -65t-73.5 -172z" />
<glyph unicode="&#x114;" horiz-adv-x="1274" d="M175 0v1443h956v-258h-654v-337h617v-239h-617v-351h654v-258h-956zM253 1915h208q2 -75 53.5 -119.5t138.5 -44.5t138.5 44.5t53.5 119.5h208q0 -150 -108.5 -243t-291.5 -93t-291.5 93t-108.5 243z" />
<glyph unicode="&#x115;" horiz-adv-x="1231" d="M92 546q0 269 142 425t388 156q244 0 380.5 -147t136.5 -410v-89h-757v-15q3 -123 70.5 -194.5t181.5 -71.5q86 0 144 29.5t81 84.5h271q-33 -157 -167.5 -247.5t-336.5 -90.5q-252 0 -393 150.5t-141 419.5zM222 1602h207q2 -81 53 -129.5t139 -48.5t139 48.5t53 129.5 h208q0 -156 -108.5 -253.5t-291.5 -97.5t-291 97.5t-108 253.5zM383 667h470q-5 110 -66.5 173.5t-163.5 63.5q-101 0 -166.5 -65t-73.5 -172z" />
<glyph unicode="&#x116;" horiz-adv-x="1274" d="M175 0v1443h956v-258h-654v-337h617v-239h-617v-351h654v-258h-956zM495 1737q0 68 44.5 113t113.5 45t113 -45t44 -113t-44 -113t-113 -45t-113.5 45t-44.5 113z" />
<glyph unicode="&#x117;" horiz-adv-x="1231" d="M92 546q0 269 142 425t388 156q244 0 380.5 -147t136.5 -410v-89h-757v-15q3 -123 70.5 -194.5t181.5 -71.5q86 0 144 29.5t81 84.5h271q-33 -157 -167.5 -247.5t-336.5 -90.5q-252 0 -393 150.5t-141 419.5zM383 667h470q-5 110 -66.5 173.5t-163.5 63.5 q-101 0 -166.5 -65t-73.5 -172zM461 1438q0 69 45.5 115t115.5 46t115.5 -46t45.5 -115t-45.5 -114.5t-115.5 -45.5t-115.5 45.5t-45.5 114.5z" />
<glyph unicode="&#x118;" horiz-adv-x="1274" d="M175 0v1443h956v-258h-654v-337h617v-239h-617v-351h654v-253l-46 -11q-75 -20 -133.5 -71t-58.5 -113q0 -45 32 -70.5t86 -25.5q49 0 69 8v-167q-54 -21 -138 -21q-122 0 -198 63t-76 161q0 67 39 127.5t102 96.5v18h-634z" />
<glyph unicode="&#x119;" horiz-adv-x="1231" d="M92 546q0 269 142 425t388 156q244 0 380.5 -147t136.5 -410v-89h-757v-15q3 -123 70.5 -194.5t181.5 -71.5q86 0 144 29.5t81 84.5h271q-10 -64 -59 -141.5t-117 -132.5q-82 -66 -120.5 -119.5t-38.5 -105.5q0 -48 32 -74.5t86 -26.5q49 0 69 8v-167q-54 -21 -138 -21 q-122 0 -198 63t-76 161q0 62 35.5 117.5t95.5 90.5v18q-26 -8 -75 -8q-252 0 -393 150.5t-141 419.5zM383 667h470q-5 110 -66.5 173.5t-163.5 63.5q-101 0 -166.5 -65t-73.5 -172z" />
<glyph unicode="&#x11a;" horiz-adv-x="1274" d="M175 0v1443h956v-258h-654v-337h617v-239h-617v-351h654v-258h-956zM245 1908h253l145 -173h20l145 173h253l-281 -318h-254z" />
<glyph unicode="&#x11b;" horiz-adv-x="1231" d="M92 546q0 269 142 425t388 156q244 0 380.5 -147t136.5 -410v-89h-757v-15q3 -123 70.5 -194.5t181.5 -71.5q86 0 144 29.5t81 84.5h271q-33 -157 -167.5 -247.5t-336.5 -90.5q-252 0 -393 150.5t-141 419.5zM201 1605h263l149 -209h18l148 209h263l-275 -354h-291z M383 667h470q-5 110 -66.5 173.5t-163.5 63.5q-101 0 -166.5 -65t-73.5 -172z" />
<glyph unicode="&#x11c;" horiz-adv-x="1557" d="M111 723q0 349 185 553t500 204q256 0 429 -136t205 -361h-300q-34 110 -121 170.5t-213 60.5q-175 0 -275.5 -130.5t-100.5 -357.5q0 -231 104.5 -364t283.5 -133q148 0 242 80t99 211l1 26h-313v227h606v-184q0 -289 -172 -457.5t-468 -168.5q-322 0 -507 203t-185 557 zM376 1591l284 335h272l284 -335h-265l-146 187h-18l-146 -187h-265z" />
<glyph unicode="&#x11d;" horiz-adv-x="1322" d="M89 561q0 257 121.5 408.5t330.5 151.5q112 0 201.5 -52t133.5 -143h18v177h282v-1099q0 -194 -147 -308t-397 -114q-218 0 -354.5 88.5t-150.5 234.5h288q11 -51 70 -81t153 -30q117 0 182 51.5t65 144.5v204h-18q-94 -178 -332 -178q-206 0 -326 147.5t-120 397.5z M223 1251l275 354h291l275 -354h-263l-148 209h-18l-149 -209h-263zM388 562q0 -147 65 -231.5t183 -84.5t185 84.5t67 230.5t-67.5 231t-184.5 85t-182.5 -84.5t-65.5 -230.5z" />
<glyph unicode="&#x11e;" horiz-adv-x="1557" d="M111 723q0 349 185 553t500 204q256 0 429 -136t205 -361h-300q-34 110 -121 170.5t-213 60.5q-175 0 -275.5 -130.5t-100.5 -357.5q0 -231 104.5 -364t283.5 -133q148 0 242 80t99 211l1 26h-313v227h606v-184q0 -289 -172 -457.5t-468 -168.5q-322 0 -507 203t-185 557 zM396 1916h208q2 -75 53.5 -119.5t138.5 -44.5t138.5 44.5t53.5 119.5h208q0 -150 -108.5 -243t-291.5 -93t-291.5 93t-108.5 243z" />
<glyph unicode="&#x11f;" horiz-adv-x="1322" d="M89 561q0 257 121.5 408.5t330.5 151.5q112 0 201.5 -52t133.5 -143h18v177h282v-1099q0 -194 -147 -308t-397 -114q-218 0 -354.5 88.5t-150.5 234.5h288q11 -51 70 -81t153 -30q117 0 182 51.5t65 144.5v204h-18q-94 -178 -332 -178q-206 0 -326 147.5t-120 397.5z M244 1602h207q2 -81 53 -129.5t139 -48.5t139 48.5t53 129.5h208q0 -156 -108.5 -253.5t-291.5 -97.5t-291 97.5t-108 253.5zM388 562q0 -147 65 -231.5t183 -84.5t185 84.5t67 230.5t-67.5 231t-184.5 85t-182.5 -84.5t-65.5 -230.5z" />
<glyph unicode="&#x120;" horiz-adv-x="1557" d="M111 723q0 349 185 553t500 204q256 0 429 -136t205 -361h-300q-34 110 -121 170.5t-213 60.5q-175 0 -275.5 -130.5t-100.5 -357.5q0 -231 104.5 -364t283.5 -133q148 0 242 80t99 211l1 26h-313v227h606v-184q0 -289 -172 -457.5t-468 -168.5q-322 0 -507 203t-185 557 zM638 1738q0 68 44.5 113t113.5 45t113 -45t44 -113t-44 -113t-113 -45t-113.5 45t-44.5 113z" />
<glyph unicode="&#x121;" horiz-adv-x="1322" d="M89 561q0 257 121.5 408.5t330.5 151.5q112 0 201.5 -52t133.5 -143h18v177h282v-1099q0 -194 -147 -308t-397 -114q-218 0 -354.5 88.5t-150.5 234.5h288q11 -51 70 -81t153 -30q117 0 182 51.5t65 144.5v204h-18q-94 -178 -332 -178q-206 0 -326 147.5t-120 397.5z M388 562q0 -147 65 -231.5t183 -84.5t185 84.5t67 230.5t-67.5 231t-184.5 85t-182.5 -84.5t-65.5 -230.5zM483 1438q0 69 45.5 115t115.5 46t115.5 -46t45.5 -115t-45.5 -114.5t-115.5 -45.5t-115.5 45.5t-45.5 114.5z" />
<glyph unicode="&#x122;" horiz-adv-x="1557" d="M111 723q0 349 185 553t500 204q256 0 429 -136t205 -361h-300q-34 110 -121 170.5t-213 60.5q-175 0 -275.5 -130.5t-100.5 -357.5q0 -231 104.5 -364t283.5 -133q148 0 242 80t99 211l1 26h-313v227h606v-184q0 -289 -172 -457.5t-468 -168.5q-322 0 -507 203t-185 557 zM549 -509l132 358h292l-166 -358h-258z" />
<glyph unicode="&#x123;" horiz-adv-x="1322" d="M89 561q0 257 121.5 408.5t330.5 151.5q112 0 201.5 -52t133.5 -143h18v177h282v-1099q0 -194 -147 -308t-397 -114q-218 0 -354.5 88.5t-150.5 234.5h288q11 -51 70 -81t153 -30q117 0 182 51.5t65 144.5v204h-18q-94 -178 -332 -178q-206 0 -326 147.5t-120 397.5z M388 562q0 -147 65 -231.5t183 -84.5t185 84.5t67 230.5t-67.5 231t-184.5 85t-182.5 -84.5t-65.5 -230.5zM503 1291l166 358h258l-132 -358h-292z" />
<glyph unicode="&#x124;" horiz-adv-x="1604" d="M175 0v1443h302v-582h650v582h302v-1443h-302v603h-650v-603h-302zM382 1590l284 335h272l284 -335h-265l-146 187h-18l-146 -187h-265z" />
<glyph unicode="&#x125;" horiz-adv-x="1307" d="M-121 1671l284 335h272l284 -335h-265l-146 187h-18l-146 -187h-265zM156 0v1524h286v-602h18q39 95 125.5 148.5t207.5 53.5q179 0 278.5 -108t99.5 -306v-710h-291v641q0 114 -52 173t-151 59q-108 0 -169 -65.5t-61 -174.5v-633h-291z" />
<glyph unicode="&#x126;" horiz-adv-x="1604" d="M47 1055v206h128v182h302v-182h650v182h302v-182h128v-206h-128v-1055h-302v603h-650v-603h-302v1055h-128zM477 861h650v194h-650v-194z" />
<glyph unicode="&#x127;" horiz-adv-x="1307" d="M12 1255v153h144v116h286v-116h233v-153h-233v-333h18q39 95 125.5 148.5t207.5 53.5q179 0 278.5 -108t99.5 -306v-710h-291v641q0 114 -52 173t-151 59q-108 0 -169 -65.5t-61 -174.5v-633h-291v1255h-144z" />
<glyph unicode="&#x128;" horiz-adv-x="652" d="M-81 1575q0 145 71.5 233t189.5 88q42 0 79 -15t62.5 -36t48 -42t45 -36t43.5 -15q87 0 88 138h187q0 -144 -71.5 -231t-189.5 -87q-42 0 -79 15t-62.5 36t-48 42t-45 36t-43.5 15q-86 0 -88 -141h-187zM175 0v1443h302v-1443h-302z" />
<glyph unicode="&#x129;" horiz-adv-x="587" d="M-108 1256q0 145 71.5 233t189.5 88q42 0 79 -15t62.5 -36t48 -42t45 -36t43.5 -15q87 0 88 138h187q0 -144 -71.5 -231t-189.5 -87q-42 0 -79 15t-62.5 36t-48 42t-45 36t-43.5 15q-86 0 -88 -141h-187zM148 0v1103h291v-1103h-291z" />
<glyph unicode="&#x12a;" horiz-adv-x="652" d="M-47 1632v181h746v-181h-746zM175 0v1443h302v-1443h-302z" />
<glyph unicode="&#x12b;" horiz-adv-x="587" d="M-73 1316v180h735v-180h-735zM148 0v1103h291v-1103h-291z" />
<glyph unicode="&#x12c;" horiz-adv-x="652" d="M-74 1915h208q2 -75 53.5 -119.5t138.5 -44.5t138.5 44.5t53.5 119.5h208q0 -150 -108.5 -243t-291.5 -93t-291.5 93t-108.5 243zM175 0v1443h302v-1443h-302z" />
<glyph unicode="&#x12d;" horiz-adv-x="587" d="M-106 1602h207q2 -81 53 -129.5t139 -48.5t139 48.5t53 129.5h208q0 -156 -108.5 -253.5t-291.5 -97.5t-291 97.5t-108 253.5zM148 0v1103h291v-1103h-291z" />
<glyph unicode="&#x12e;" horiz-adv-x="652" d="M59 -242q0 64 31 119t85 90v1476h302v-1443l-22 -6q-74 -28 -122.5 -75t-48.5 -104q0 -46 32.5 -73.5t90.5 -27.5q42 0 69 8v-167q-56 -21 -143 -21q-121 0 -197.5 62.5t-76.5 161.5z" />
<glyph unicode="&#x12f;" horiz-adv-x="587" d="M21 -237q0 63 33 120t94 97v1123h291v-1103l-32 -6q-72 -25 -116.5 -73t-44.5 -106q0 -47 33.5 -74t89.5 -27q34 0 69 7v-166q-52 -21 -135 -21q-129 0 -205.5 64t-76.5 165zM122 1404q0 66 47 106.5t125 40.5t125 -40.5t47 -106.5q0 -65 -47.5 -106t-124.5 -41 q-78 0 -125 41t-47 106z" />
<glyph unicode="&#x130;" horiz-adv-x="652" d="M168 1737q0 68 44.5 113t113.5 45t113 -45t44 -113t-44 -113t-113 -45t-113.5 45t-44.5 113zM175 0v1443h302v-1443h-302z" />
<glyph unicode="&#x131;" horiz-adv-x="587" d="M148 0v1103h291v-1103h-291z" />
<glyph unicode="&#x132;" horiz-adv-x="1883" d="M175 0v1443h302v-1443h-302zM728 424h292q2 -87 54.5 -139t139.5 -52q93 0 142.5 55.5t49.5 161.5v993h302v-995q0 -232 -129.5 -358.5t-360.5 -126.5q-223 0 -356.5 125t-133.5 336z" />
<glyph unicode="&#x133;" horiz-adv-x="1194" d="M122 1404q0 66 47 106.5t125 40.5t125 -40.5t47 -106.5q0 -65 -47.5 -106t-124.5 -41q-78 0 -125 41t-47 106zM148 0v1103h291v-1103h-291zM568 -149q6 -1 37 -1q76 0 108 29t32 95v1129h291v-1137q0 -169 -99 -255.5t-291 -86.5q-54 0 -78 4v223zM719 1404 q0 66 47 106.5t125 40.5t125 -40.5t47 -106.5q0 -65 -47.5 -106t-124.5 -41q-78 0 -125 41t-47 106z" />
<glyph unicode="&#x134;" horiz-adv-x="1231" d="M76 424h292q2 -87 54.5 -139t139.5 -52q93 0 142.5 55.5t49.5 161.5v993h302v-995q0 -232 -129.5 -358.5t-360.5 -126.5q-223 0 -356.5 125t-133.5 336zM485 1590l284 335h272l284 -335h-265l-146 187h-18l-146 -187h-265z" />
<glyph unicode="&#x135;" horiz-adv-x="587" d="M-126 1251l275 354h291l275 -354h-263l-148 209h-18l-149 -209h-263zM-32 -149q6 -1 37 -1q76 0 108 29t32 95v1129h291v-1137q0 -169 -99 -255.5t-291 -86.5q-54 0 -78 4v223z" />
<glyph unicode="&#x136;" horiz-adv-x="1453" d="M175 0v1443h302v-643h18l533 643h336l-526 -633l563 -810h-362l-419 604l-143 -169v-435h-302zM438 -509l132 358h292l-166 -358h-258z" />
<glyph unicode="&#x137;" horiz-adv-x="1232" d="M156 0v1524h291v-852h18l369 431h331l-420 -473l449 -630h-345l-322 448l-80 -82v-366h-291zM387 -509l132 358h292l-166 -358h-258z" />
<glyph unicode="&#x139;" horiz-adv-x="1218" d="M175 0v1443h302v-1180h642v-263h-944zM185 1590l277 318h315l-314 -318h-278z" />
<glyph unicode="&#x13a;" horiz-adv-x="603" d="M156 0v1524h291v-1524h-291zM161 1671l277 318h315l-314 -318h-278z" />
<glyph unicode="&#x13b;" horiz-adv-x="1218" d="M175 0v1443h302v-1180h642v-263h-944zM378 -509l132 358h292l-166 -358h-258z" />
<glyph unicode="&#x13c;" horiz-adv-x="603" d="M38 -509l132 358h292l-166 -358h-258zM156 0v1524h291v-1524h-291z" />
<glyph unicode="&#x13d;" horiz-adv-x="1218" d="M175 0v1443h302v-1180h642v-263h-944zM675 939v504h246l-50 -504h-196z" />
<glyph unicode="&#x13e;" horiz-adv-x="804" d="M156 0v1524h291v-1524h-291zM583 1019v505h251l-50 -505h-201z" />
<glyph unicode="&#x141;" horiz-adv-x="1218" d="M23 583v205l152 78v577h302v-423l238 122v-205l-238 -122v-552h642v-263h-944v661z" />
<glyph unicode="&#x142;" horiz-adv-x="603" d="M32 602v205l124 66v651h291v-496l124 66v-205l-124 -66v-823h-291v668z" />
<glyph unicode="&#x143;" horiz-adv-x="1573" d="M175 0v1443h252l664 -899h18v899h289v-1443h-250l-666 903h-18v-903h-289zM642 1590l277 318h315l-314 -318h-278z" />
<glyph unicode="&#x144;" horiz-adv-x="1285" d="M146 0v1103h282v-177h18q39 95 122.5 148t203.5 53q183 0 280 -107.5t97 -306.5v-713h-291v644q0 232 -203 232q-101 0 -159.5 -65.5t-58.5 -174.5v-636h-291zM500 1281l247 353h309l-287 -353h-269z" />
<glyph unicode="&#x145;" horiz-adv-x="1573" d="M175 0v1443h252l664 -899h18v899h289v-1443h-250l-666 903h-18v-903h-289zM519 -509l132 358h292l-166 -358h-258z" />
<glyph unicode="&#x146;" horiz-adv-x="1285" d="M146 0v1103h282v-177h18q39 95 122.5 148t203.5 53q183 0 280 -107.5t97 -306.5v-713h-291v644q0 232 -203 232q-101 0 -159.5 -65.5t-58.5 -174.5v-636h-291zM391 -509l132 358h292l-166 -358h-258z" />
<glyph unicode="&#x147;" horiz-adv-x="1573" d="M175 0v1443h252l664 -899h18v899h289v-1443h-250l-666 903h-18v-903h-289zM375 1908h253l145 -173h20l145 173h253l-281 -318h-254z" />
<glyph unicode="&#x148;" horiz-adv-x="1285" d="M146 0v1103h282v-177h18q39 95 122.5 148t203.5 53q183 0 280 -107.5t97 -306.5v-713h-291v644q0 232 -203 232q-101 0 -159.5 -65.5t-58.5 -174.5v-636h-291zM234 1605h263l149 -209h18l148 209h263l-275 -354h-291z" />
<glyph unicode="&#x14c;" horiz-adv-x="1610" d="M111 722q0 350 188 554t507 204q320 0 506.5 -204t186.5 -554q0 -351 -186.5 -555t-506.5 -204q-321 0 -508 204t-187 555zM420 722q0 -226 104.5 -360t281.5 -134q176 0 280.5 134t104.5 360t-104.5 359.5t-280.5 133.5t-281 -133.5t-105 -359.5zM433 1632v181h746v-181 h-746z" />
<glyph unicode="&#x14d;" horiz-adv-x="1269" d="M92 552q0 268 145.5 421.5t397.5 153.5t397.5 -153.5t145.5 -421.5q0 -270 -144.5 -423t-398.5 -153t-398.5 153t-144.5 423zM268 1316v180h735v-180h-735zM391 552q0 -161 63.5 -249.5t180.5 -88.5q116 0 180 88.5t64 249.5q0 159 -64.5 248t-179.5 89q-116 0 -180 -89 t-64 -248z" />
<glyph unicode="&#x14e;" horiz-adv-x="1610" d="M111 722q0 350 188 554t507 204q320 0 506.5 -204t186.5 -554q0 -351 -186.5 -555t-506.5 -204q-321 0 -508 204t-187 555zM406 1915h208q2 -75 53.5 -119.5t138.5 -44.5t138.5 44.5t53.5 119.5h208q0 -150 -108.5 -243t-291.5 -93t-291.5 93t-108.5 243zM420 722 q0 -226 104.5 -360t281.5 -134q176 0 280.5 134t104.5 360t-104.5 359.5t-280.5 133.5t-281 -133.5t-105 -359.5z" />
<glyph unicode="&#x14f;" horiz-adv-x="1269" d="M92 552q0 268 145.5 421.5t397.5 153.5t397.5 -153.5t145.5 -421.5q0 -270 -144.5 -423t-398.5 -153t-398.5 153t-144.5 423zM235 1602h207q2 -81 53 -129.5t139 -48.5t139 48.5t53 129.5h208q0 -156 -108.5 -253.5t-291.5 -97.5t-291 97.5t-108 253.5zM391 552 q0 -161 63.5 -249.5t180.5 -88.5q116 0 180 88.5t64 249.5q0 159 -64.5 248t-179.5 89q-116 0 -180 -89t-64 -248z" />
<glyph unicode="&#x150;" horiz-adv-x="1610" d="M111 722q0 350 188 554t507 204q320 0 506.5 -204t186.5 -554q0 -351 -186.5 -555t-506.5 -204q-321 0 -508 204t-187 555zM420 722q0 -226 104.5 -360t281.5 -134q176 0 280.5 134t104.5 360t-104.5 359.5t-280.5 133.5t-281 -133.5t-105 -359.5zM438 1590l251 318h271 l-278 -318h-244zM875 1590l252 318h270l-278 -318h-244z" />
<glyph unicode="&#x151;" horiz-adv-x="1269" d="M92 552q0 268 145.5 421.5t397.5 153.5t397.5 -153.5t145.5 -421.5q0 -270 -144.5 -423t-398.5 -153t-398.5 153t-144.5 423zM276 1281l212 353h259l-242 -353h-229zM391 552q0 -161 63.5 -249.5t180.5 -88.5q116 0 180 88.5t64 249.5q0 159 -64.5 248t-179.5 89 q-116 0 -180 -89t-64 -248zM712 1281l212 353h259l-242 -353h-229z" />
<glyph unicode="&#x152;" horiz-adv-x="2271" d="M121 722q0 357 172.5 557.5t477.5 200.5q152 0 282.5 -73.5t182.5 -188.5h18v225h916v-258h-663v-337h626v-239h-626v-351h663v-258h-916v232h-18q-55 -121 -183 -195t-282 -74q-305 0 -477.5 201t-172.5 558zM430 722q0 -227 105.5 -360.5t285.5 -133.5q175 0 278 133.5 t103 360.5t-103 360t-278 133q-179 0 -285 -133.5t-106 -359.5z" />
<glyph unicode="&#x153;" horiz-adv-x="2017" d="M97 550q0 269 141.5 423t388.5 154q129 0 229.5 -49t160.5 -141h18q58 90 160 140t231 50q228 0 364.5 -151t136.5 -406v-88h-757v-16q3 -123 71 -194.5t181 -71.5q177 0 225 114h269q-33 -156 -165.5 -247t-323.5 -91q-128 0 -232.5 49.5t-160.5 136.5h-18 q-55 -87 -157.5 -136.5t-232.5 -49.5q-245 0 -387 154t-142 420zM396 551q0 -161 64 -249t180 -88t180 88t64 249q0 160 -64.5 249t-179.5 89t-179.5 -89t-64.5 -249zM1171 667h470q-5 110 -66.5 173.5t-163.5 63.5q-101 0 -167 -64.5t-73 -172.5z" />
<glyph unicode="&#x154;" horiz-adv-x="1422" d="M175 0v1443h606q238 0 375 -124t137 -339q0 -140 -69.5 -250.5t-192.5 -159.5l304 -570h-342l-269 523h-247v-523h-302zM477 755h265q114 0 177.5 58.5t63.5 162.5q0 103 -66 163t-178 60h-262v-444zM511 1590l277 318h315l-314 -318h-278z" />
<glyph unicode="&#x155;" horiz-adv-x="891" d="M146 0v1103h282v-176h18q22 84 100.5 139t182.5 55q75 0 114 -14v-265q-46 18 -138 18q-121 0 -194.5 -67t-73.5 -182v-611h-291zM293 1281l247 353h309l-287 -353h-269z" />
<glyph unicode="&#x156;" horiz-adv-x="1422" d="M175 0v1443h606q238 0 375 -124t137 -339q0 -140 -69.5 -250.5t-192.5 -159.5l304 -570h-342l-269 523h-247v-523h-302zM388 -509l132 358h292l-166 -358h-258zM477 755h265q114 0 177.5 58.5t63.5 162.5q0 103 -66 163t-178 60h-262v-444z" />
<glyph unicode="&#x157;" horiz-adv-x="891" d="M25 -509l132 358h292l-166 -358h-258zM146 0v1103h282v-176h18q22 84 100.5 139t182.5 55q75 0 114 -14v-265q-46 18 -138 18q-121 0 -194.5 -67t-73.5 -182v-611h-291z" />
<glyph unicode="&#x158;" horiz-adv-x="1422" d="M175 0v1443h606q238 0 375 -124t137 -339q0 -140 -69.5 -250.5t-192.5 -159.5l304 -570h-342l-269 523h-247v-523h-302zM244 1908h253l145 -173h20l145 173h253l-281 -318h-254zM477 755h265q114 0 177.5 58.5t63.5 162.5q0 103 -66 163t-178 60h-262v-444z" />
<glyph unicode="&#x159;" horiz-adv-x="891" d="M27 1605h263l149 -209h18l148 209h263l-275 -354h-291zM146 0v1103h282v-176h18q22 84 100.5 139t182.5 55q75 0 114 -14v-265q-46 18 -138 18q-121 0 -194.5 -67t-73.5 -182v-611h-291z" />
<glyph unicode="&#x15a;" horiz-adv-x="1383" d="M110 401h292q10 -88 92 -140t210 -52q118 0 193 51.5t75 133.5q0 69 -58 112t-191 71l-188 40q-392 82 -392 412q0 204 151 327.5t401 123.5q238 0 391.5 -121t160.5 -314h-284q-11 86 -84 138t-182 52q-114 0 -182.5 -49t-68.5 -131q0 -67 55.5 -108t182.5 -68l174 -37 q217 -46 316 -144t99 -266q0 -218 -156.5 -343.5t-428.5 -125.5q-258 0 -414 118t-164 320zM555 1590l277 318h315l-314 -318h-278z" />
<glyph unicode="&#x15b;" horiz-adv-x="1160" d="M94 307h284q35 -118 209 -118q85 0 138 32.5t53 85.5q0 41 -33 66.5t-106 41.5l-200 45q-161 35 -239.5 113.5t-78.5 205.5q0 157 126.5 252.5t332.5 95.5q210 0 329.5 -85t131.5 -243h-269q-11 54 -60.5 84.5t-129.5 30.5q-79 0 -130 -32.5t-51 -84.5q0 -40 36 -66.5 t113 -43.5l207 -45q161 -35 235.5 -107t74.5 -195q0 -164 -134 -264t-352 -100t-345 86t-142 245zM425 1281l247 353h309l-287 -353h-269z" />
<glyph unicode="&#x15c;" horiz-adv-x="1383" d="M110 401h292q10 -88 92 -140t210 -52q118 0 193 51.5t75 133.5q0 69 -58 112t-191 71l-188 40q-392 82 -392 412q0 204 151 327.5t401 123.5q238 0 391.5 -121t160.5 -314h-284q-11 86 -84 138t-182 52q-114 0 -182.5 -49t-68.5 -131q0 -67 55.5 -108t182.5 -68l174 -37 q217 -46 316 -144t99 -266q0 -218 -156.5 -343.5t-428.5 -125.5q-258 0 -414 118t-164 320zM276 1590l284 335h272l284 -335h-265l-146 187h-18l-146 -187h-265z" />
<glyph unicode="&#x15d;" horiz-adv-x="1160" d="M94 307h284q35 -118 209 -118q85 0 138 32.5t53 85.5q0 41 -33 66.5t-106 41.5l-200 45q-161 35 -239.5 113.5t-78.5 205.5q0 157 126.5 252.5t332.5 95.5q210 0 329.5 -85t131.5 -243h-269q-11 54 -60.5 84.5t-129.5 30.5q-79 0 -130 -32.5t-51 -84.5q0 -40 36 -66.5 t113 -43.5l207 -45q161 -35 235.5 -107t74.5 -195q0 -164 -134 -264t-352 -100t-345 86t-142 245zM159 1251l275 354h291l275 -354h-263l-148 209h-18l-149 -209h-263z" />
<glyph unicode="&#x15e;" horiz-adv-x="1383" d="M110 401h292q10 -88 92 -140t210 -52q118 0 193 51.5t75 133.5q0 69 -58 112t-191 71l-188 40q-392 82 -392 412q0 204 151 327.5t401 123.5q238 0 391.5 -121t160.5 -314h-284q-11 86 -84 138t-182 52q-114 0 -182.5 -49t-68.5 -131q0 -67 55.5 -108t182.5 -68l174 -37 q217 -46 316 -144t99 -266q0 -201 -134 -324t-370 -142l-31 -74q95 -5 145.5 -50.5t50.5 -126.5q0 -97 -70 -151t-197 -54q-86 0 -147 18v134q42 -14 116 -14q112 0 112 59q0 30 -30.5 43t-99.5 13h-60v116l38 88q-219 21 -349 136.5t-137 297.5z" />
<glyph unicode="&#x15f;" horiz-adv-x="1160" d="M94 307h284q35 -118 209 -118q85 0 138 32.5t53 85.5q0 41 -33 66.5t-106 41.5l-200 45q-161 35 -239.5 113.5t-78.5 205.5q0 157 126.5 252.5t332.5 95.5q210 0 329.5 -85t131.5 -243h-269q-11 54 -60.5 84.5t-129.5 30.5q-79 0 -130 -32.5t-51 -84.5q0 -40 36 -66.5 t113 -43.5l207 -45q161 -35 235.5 -107t74.5 -195q0 -147 -108.5 -243t-291.5 -116l-36 -88q95 -5 145.5 -50.5t50.5 -126.5q0 -97 -70 -151t-197 -54q-86 0 -147 18v134q42 -14 116 -14q112 0 112 59q0 30 -30.5 43t-99.5 13h-60v116l43 100q-180 17 -283.5 101t-116.5 226 z" />
<glyph unicode="&#x160;" horiz-adv-x="1383" d="M110 401h292q10 -88 92 -140t210 -52q118 0 193 51.5t75 133.5q0 69 -58 112t-191 71l-188 40q-392 82 -392 412q0 204 151 327.5t401 123.5q238 0 391.5 -121t160.5 -314h-284q-11 86 -84 138t-182 52q-114 0 -182.5 -49t-68.5 -131q0 -67 55.5 -108t182.5 -68l174 -37 q217 -46 316 -144t99 -266q0 -218 -156.5 -343.5t-428.5 -125.5q-258 0 -414 118t-164 320zM288 1908h253l145 -173h20l145 173h253l-281 -318h-254z" />
<glyph unicode="&#x161;" horiz-adv-x="1160" d="M94 307h284q35 -118 209 -118q85 0 138 32.5t53 85.5q0 41 -33 66.5t-106 41.5l-200 45q-161 35 -239.5 113.5t-78.5 205.5q0 157 126.5 252.5t332.5 95.5q210 0 329.5 -85t131.5 -243h-269q-11 54 -60.5 84.5t-129.5 30.5q-79 0 -130 -32.5t-51 -84.5q0 -40 36 -66.5 t113 -43.5l207 -45q161 -35 235.5 -107t74.5 -195q0 -164 -134 -264t-352 -100t-345 86t-142 245zM159 1605h263l149 -209h18l148 209h263l-275 -354h-291z" />
<glyph unicode="&#x162;" horiz-adv-x="1352" d="M92 1185v258h1168v-258h-433v-1157v-27v-1l-45 -107q95 -5 145.5 -50.5t50.5 -126.5q0 -97 -70 -151t-197 -54q-86 0 -147 18v134q42 -14 116 -14q112 0 112 59q0 30 -30.5 43t-99.5 13h-60v116l52 120h-129v1185h-433z" />
<glyph unicode="&#x163;" horiz-adv-x="845" d="M57 863v229h172v273h291v-273h229v-229h-229v-496q0 -72 34.5 -106t108.5 -34q49 0 86 4v-222q-67 -13 -146 -13h-29l-43 -103q95 -5 145.5 -50.5t50.5 -126.5q0 -97 -70 -151t-197 -54q-86 0 -147 18v134q42 -14 116 -14q112 0 112 59q0 30 -30.5 43t-99.5 13h-60v116 l60 138q-95 29 -138.5 96.5t-43.5 183.5v565h-172z" />
<glyph unicode="&#x164;" horiz-adv-x="1352" d="M92 1185v258h1168v-258h-433v-1185h-302v1185h-433zM265 1908h253l145 -173h20l145 173h253l-281 -318h-254z" />
<glyph unicode="&#x165;" horiz-adv-x="845" d="M57 863v229h172v273h291v-273h229v-229h-229v-496q0 -72 34.5 -106t108.5 -34q49 0 86 4v-222q-67 -13 -146 -13q-201 0 -287.5 70t-86.5 232v565h-172zM623 1231v504h251l-50 -504h-201z" />
<glyph unicode="&#x166;" horiz-adv-x="1352" d="M92 1185v258h1168v-258h-433v-384h281v-218h-281v-583h-302v583h-286v218h286v384h-433z" />
<glyph unicode="&#x167;" horiz-adv-x="843" d="M56 492v162h173v209h-172v229h172v273h291v-273h229v-229h-229v-209h243v-162h-243v-125q0 -72 34.5 -106t108.5 -34q49 0 86 4v-222q-67 -13 -146 -13q-201 0 -287.5 70t-86.5 232v194h-173z" />
<glyph unicode="&#x168;" horiz-adv-x="1565" d="M178 498v945h302v-914q0 -138 79.5 -218t222.5 -80q144 0 223.5 80t79.5 218v914h302v-945q0 -241 -164.5 -388t-440.5 -147q-275 0 -439.5 147t-164.5 388zM375 1575q0 145 71.5 233t189.5 88q42 0 79 -15t62.5 -36t48 -42t45 -36t43.5 -15q87 0 88 138h187 q0 -144 -71.5 -231t-189.5 -87q-42 0 -79 15t-62.5 36t-48 42t-45 36t-43.5 15q-86 0 -88 -141h-187z" />
<glyph unicode="&#x169;" horiz-adv-x="1290" d="M136 384v719h291v-644q0 -230 203 -230q107 0 165 63t58 175v636h291v-1103h-282v177h-18q-82 -201 -322 -201q-179 0 -282.5 108.5t-103.5 299.5zM238 1256q0 145 71.5 233t189.5 88q42 0 79 -15t62.5 -36t48 -42t45 -36t43.5 -15q87 0 88 138h187q0 -144 -71.5 -231 t-189.5 -87q-42 0 -79 15t-62.5 36t-48 42t-45 36t-43.5 15q-86 0 -88 -141h-187z" />
<glyph unicode="&#x16a;" horiz-adv-x="1565" d="M178 498v945h302v-914q0 -138 79.5 -218t222.5 -80q144 0 223.5 80t79.5 218v914h302v-945q0 -241 -164.5 -388t-440.5 -147q-275 0 -439.5 147t-164.5 388zM409 1632v181h746v-181h-746z" />
<glyph unicode="&#x16b;" horiz-adv-x="1290" d="M136 384v719h291v-644q0 -230 203 -230q107 0 165 63t58 175v636h291v-1103h-282v177h-18q-82 -201 -322 -201q-179 0 -282.5 108.5t-103.5 299.5zM273 1316v180h735v-180h-735z" />
<glyph unicode="&#x16c;" horiz-adv-x="1565" d="M178 498v945h302v-914q0 -138 79.5 -218t222.5 -80q144 0 223.5 80t79.5 218v914h302v-945q0 -241 -164.5 -388t-440.5 -147q-275 0 -439.5 147t-164.5 388zM382 1915h208q2 -75 53.5 -119.5t138.5 -44.5t138.5 44.5t53.5 119.5h208q0 -150 -108.5 -243t-291.5 -93 t-291.5 93t-108.5 243z" />
<glyph unicode="&#x16d;" horiz-adv-x="1290" d="M136 384v719h291v-644q0 -230 203 -230q107 0 165 63t58 175v636h291v-1103h-282v177h-18q-82 -201 -322 -201q-179 0 -282.5 108.5t-103.5 299.5zM240 1602h207q2 -81 53 -129.5t139 -48.5t139 48.5t53 129.5h208q0 -156 -108.5 -253.5t-291.5 -97.5t-291 97.5 t-108 253.5z" />
<glyph unicode="&#x16e;" horiz-adv-x="1565" d="M178 498v945h302v-914q0 -138 79.5 -218t222.5 -80q144 0 223.5 80t79.5 218v914h302v-945q0 -241 -164.5 -388t-440.5 -147q-275 0 -439.5 147t-164.5 388zM577 1746q0 86 58.5 142.5t147.5 56.5q87 0 145.5 -56.5t58.5 -142.5q0 -87 -58.5 -143.5t-145.5 -56.5 q-89 0 -147.5 56.5t-58.5 143.5zM687 1745q0 -40 27 -66.5t68 -26.5q42 0 68.5 26.5t26.5 66.5q0 41 -27 67.5t-68 26.5t-68 -26.5t-27 -67.5z" />
<glyph unicode="&#x16f;" horiz-adv-x="1290" d="M136 384v719h291v-644q0 -230 203 -230q107 0 165 63t58 175v636h291v-1103h-282v177h-18q-82 -201 -322 -201q-179 0 -282.5 108.5t-103.5 299.5zM394 1492q0 102 70.5 170t175.5 68t175 -67.5t70 -170.5q0 -104 -70 -172.5t-175 -68.5t-175.5 68.5t-70.5 172.5z M534 1491q0 -46 30 -75t76 -29t75.5 29.5t29.5 74.5q0 44 -30 73.5t-75 29.5q-46 0 -76 -29.5t-30 -73.5z" />
<glyph unicode="&#x170;" horiz-adv-x="1565" d="M178 498v945h302v-914q0 -138 79.5 -218t222.5 -80q144 0 223.5 80t79.5 218v914h302v-945q0 -241 -164.5 -388t-440.5 -147q-275 0 -439.5 147t-164.5 388zM414 1590l251 318h271l-278 -318h-244zM851 1590l252 318h270l-278 -318h-244z" />
<glyph unicode="&#x171;" horiz-adv-x="1290" d="M136 384v719h291v-644q0 -230 203 -230q107 0 165 63t58 175v636h291v-1103h-282v177h-18q-82 -201 -322 -201q-179 0 -282.5 108.5t-103.5 299.5zM281 1281l212 353h259l-242 -353h-229zM717 1281l212 353h259l-242 -353h-229z" />
<glyph unicode="&#x172;" horiz-adv-x="1564" d="M178 498v945h302v-914q0 -140 80.5 -219t221.5 -79t222 79t81 219v914h302v-945q0 -262 -241 -466q-139 -119 -139 -217q0 -46 32 -73.5t86 -27.5q47 0 69 8v-167q-54 -21 -138 -21q-123 0 -199 61.5t-76 156.5q0 68 38.5 124.5t93.5 88.5v18q-45 -20 -131 -20 q-272 0 -438 146t-166 389z" />
<glyph unicode="&#x173;" horiz-adv-x="1290" d="M136 384v719h291v-644q0 -230 203 -230q107 0 165 63t58 175v636h291v-1103l-36 -7q-81 -21 -134 -71.5t-53 -111.5q0 -43 31 -69.5t87 -26.5q50 0 69 8v-167q-57 -21 -138 -21q-121 0 -197.5 62.5t-76.5 161.5q0 73 47 138t119 97v184h-18q-82 -201 -322 -201 q-179 0 -282.5 108.5t-103.5 299.5z" />
<glyph unicode="&#x174;" horiz-adv-x="2067" d="M88 1443h314l225 -1017h16l263 1017h255l268 -1017h16l223 1017h312l-383 -1443h-283l-273 955h-16l-270 -955h-285zM614 1590l284 335h272l284 -335h-265l-146 187h-18l-146 -187h-265z" />
<glyph unicode="&#x175;" horiz-adv-x="1735" d="M61 1103h295l164 -791h18l193 791h278l194 -791h18l164 791h289l-293 -1103h-310l-197 761h-18l-195 -761h-306zM449 1251l275 354h291l275 -354h-263l-148 209h-18l-149 -209h-263z" />
<glyph unicode="&#x176;" horiz-adv-x="1452" d="M72 1443h327l318 -604h18l317 604h327l-502 -912v-531h-302v531zM306 1590l284 335h272l284 -335h-265l-146 187h-18l-146 -187h-265z" />
<glyph unicode="&#x177;" horiz-adv-x="1223" d="M56 1103h321l232 -836h18l232 836h308l-380 -1120q-70 -212 -183.5 -298t-320.5 -86q-93 0 -111 3v234q10 -2 66 -2q83 0 130 28.5t65 90.5l10 40zM195 1251l275 354h291l275 -354h-263l-148 209h-18l-149 -209h-263z" />
<glyph unicode="&#x178;" horiz-adv-x="1452" d="M72 1443h327l318 -604h18l317 604h327l-502 -912v-531h-302v531zM337 1731q0 66 43.5 108.5t111.5 42.5t111.5 -42.5t43.5 -108.5t-44 -109t-111 -43t-111 43t-44 109zM805 1731q0 66 44 108.5t111 42.5q68 0 112 -42.5t44 -108.5t-44 -109t-112 -43q-67 0 -111 43 t-44 109z" />
<glyph unicode="&#x179;" horiz-adv-x="1384" d="M135 0v204l726 963v18h-709v258h1077v-203l-724 -964v-18h744v-258h-1114zM551 1590l277 318h315l-314 -318h-278z" />
<glyph unicode="&#x17a;" horiz-adv-x="1160" d="M121 0v172l558 681v18h-550v232h898v-192l-526 -661v-18h539v-232h-919zM422 1281l247 353h309l-287 -353h-269z" />
<glyph unicode="&#x17b;" horiz-adv-x="1384" d="M135 0v204l726 963v18h-709v258h1077v-203l-724 -964v-18h744v-258h-1114zM534 1737q0 68 44.5 113t113.5 45t113 -45t44 -113t-44 -113t-113 -45t-113.5 45t-44.5 113z" />
<glyph unicode="&#x17c;" horiz-adv-x="1160" d="M121 0v172l558 681v18h-550v232h898v-192l-526 -661v-18h539v-232h-919zM416 1438q0 69 45.5 115t115.5 46t115.5 -46t45.5 -115t-45.5 -114.5t-115.5 -45.5t-115.5 45.5t-45.5 114.5z" />
<glyph unicode="&#x17d;" horiz-adv-x="1384" d="M135 0v204l726 963v18h-709v258h1077v-203l-724 -964v-18h744v-258h-1114zM284 1908h253l145 -173h20l145 173h253l-281 -318h-254z" />
<glyph unicode="&#x17e;" horiz-adv-x="1160" d="M121 0v172l558 681v18h-550v232h898v-192l-526 -661v-18h539v-232h-919zM156 1605h263l149 -209h18l148 209h263l-275 -354h-291z" />
<glyph unicode="&#x192;" horiz-adv-x="1415" d="M107 -1v246q87 -26 179 -26q90 0 145.5 45t69.5 135l40 256h-316v217h350l29 188q63 399 495 399q121 0 202 -15v-245q-66 18 -168 18q-103 0 -159.5 -47t-71.5 -143l-24 -155h349v-217h-383l-42 -271q-33 -211 -150.5 -309.5t-328.5 -98.5q-121 0 -216 23z" />
<glyph unicode="&#x1a0;" horiz-adv-x="1665" d="M111 722q0 350 188 554t507 204q89 0 221.5 -25.5t210.5 -25.5q57 0 82.5 22t25.5 67v165h231v-235q0 -99 -55 -154t-152 -55h-61v-16q85 -64 137.5 -202t52.5 -299q0 -351 -186.5 -555t-506.5 -204q-321 0 -508 204t-187 555zM420 722q0 -226 104.5 -360t281.5 -134 q176 0 280.5 134t104.5 360t-104.5 359.5t-280.5 133.5t-281 -133.5t-105 -359.5z" />
<glyph unicode="&#x1a1;" horiz-adv-x="1368" d="M92 552q0 267 145.5 421t397.5 154q76 0 161 -18.5t132 -18.5q61 0 85.5 19t24.5 65v146h231v-223q0 -92 -47.5 -142t-132.5 -50h-46v-15q59 -39 97 -133.5t38 -204.5q0 -271 -144 -423.5t-399 -152.5t-399 153t-144 423zM391 552q0 -161 64 -249.5t180 -88.5t180 88.5 t64 249.5q0 159 -64.5 248t-179.5 89t-179.5 -89t-64.5 -248z" />
<glyph unicode="&#x1af;" horiz-adv-x="1750" d="M178 498v945h302v-914q0 -139 80.5 -218.5t221.5 -79.5t222 79t81 219v914h313q79 0 79 76v184h231v-244q0 -103 -61 -159.5t-166 -56.5h-94v-745q0 -243 -165.5 -389t-439.5 -146q-273 0 -438.5 146t-165.5 389z" />
<glyph unicode="&#x1b0;" horiz-adv-x="1508" d="M136 384v719h291v-644q0 -230 203 -230q107 0 165 63t58 175v636h291q79 0 79 76v159h231v-219q0 -103 -61 -159.5t-166 -56.5h-83v-903h-282v177h-18q-82 -201 -322 -201q-181 0 -283.5 109.5t-102.5 298.5z" />
<glyph unicode="&#x1c4;" horiz-adv-x="2924" d="M175 0v1444h568q322 0 499.5 -186.5t177.5 -525.5q0 -351 -176.5 -541.5t-500.5 -190.5h-568zM477 258h218q201 0 309 120.5t108 348.5q0 218 -110 338.5t-307 120.5h-218v-928zM1675 0v204l726 963v18h-709v258h1077v-203l-724 -964v-18h744v-258h-1114zM1824 1908h253 l145 -173h20l145 173h253l-281 -318h-254z" />
<glyph unicode="&#x1c5;" horiz-adv-x="2700" d="M175 0v1444h568q322 0 499.5 -186.5t177.5 -525.5q0 -351 -176.5 -541.5t-500.5 -190.5h-568zM477 258h218q201 0 309 120.5t108 348.5q0 218 -110 338.5t-307 120.5h-218v-928zM1661 0v172l558 681v18h-550v232h898v-192l-526 -661v-18h539v-232h-919zM1696 1605h263 l149 -209h18l148 209h263l-275 -354h-291z" />
<glyph unicode="&#x1c6;" horiz-adv-x="2503" d="M92 553q0 263 120.5 415.5t328.5 152.5q112 0 199 -51.5t130 -142.5h17v597h291v-1524h-282v173h-18q-44 -89 -133 -139.5t-204 -50.5q-208 0 -328.5 153t-120.5 417zM391 552q0 -153 66 -239.5t183 -86.5t183.5 86.5t66.5 238.5q0 151 -67 238.5t-183 87.5t-182.5 -86.5 t-66.5 -238.5zM1464 0v172l558 681v18h-550v232h898v-192l-526 -661v-18h539v-232h-919zM1499 1605h263l149 -209h18l148 209h263l-275 -354h-291z" />
<glyph unicode="&#x1c7;" horiz-adv-x="2444" d="M175 0v1443h302v-1180h642v-263h-944zM1289 424h292q2 -87 54.5 -139t139.5 -52q93 0 142.5 55.5t49.5 161.5v993h302v-995q0 -232 -129.5 -358.5t-360.5 -126.5q-223 0 -356.5 125t-133.5 336z" />
<glyph unicode="&#x1c8;" horiz-adv-x="1810" d="M175 0v1443h302v-1180h642v-263h-944zM1184 -149q6 -1 37 -1q76 0 108 29t32 95v1129h291v-1137q0 -169 -99 -255.5t-291 -86.5q-54 0 -78 4v223zM1335 1404q0 66 47 106.5t125 40.5t125 -40.5t47 -106.5q0 -65 -47.5 -106t-124.5 -41q-78 0 -125 41t-47 106z" />
<glyph unicode="&#x1c9;" horiz-adv-x="1194" d="M156 0v1524h291v-1524h-291zM568 -149q6 -1 37 -1q76 0 108 29t32 95v1129h291v-1137q0 -169 -99 -255.5t-291 -86.5q-54 0 -78 4v223zM719 1404q0 66 47 106.5t125 40.5t125 -40.5t47 -106.5q0 -65 -47.5 -106t-124.5 -41q-78 0 -125 41t-47 106z" />
<glyph unicode="&#x1ca;" horiz-adv-x="2804" d="M175 0v1443h252l664 -899h18v899h289v-1443h-250l-666 903h-18v-903h-289zM1649 424h292q2 -87 54.5 -139t139.5 -52q93 0 142.5 55.5t49.5 161.5v993h302v-995q0 -232 -129.5 -358.5t-360.5 -126.5q-223 0 -356.5 125t-133.5 336z" />
<glyph unicode="&#x1cb;" horiz-adv-x="2170" d="M175 0v1443h252l664 -899h18v899h289v-1443h-250l-666 903h-18v-903h-289zM1544 -149q6 -1 37 -1q76 0 108 29t32 95v1129h291v-1137q0 -169 -99 -255.5t-291 -86.5q-54 0 -78 4v223zM1695 1404q0 66 47 106.5t125 40.5t125 -40.5t47 -106.5q0 -65 -47.5 -106t-124.5 -41 q-78 0 -125 41t-47 106z" />
<glyph unicode="&#x1cc;" horiz-adv-x="1872" d="M146 0v1103h282v-177h18q39 95 122.5 148t203.5 53q183 0 280 -107.5t97 -306.5v-713h-291v644q0 232 -203 232q-101 0 -159.5 -65.5t-58.5 -174.5v-636h-291zM1256 -149q6 -1 37 -1q76 0 108 29t32 95v1129h291v-1137q0 -169 -99 -255.5t-291 -86.5q-54 0 -78 4v223z M1407 1404q0 66 47 106.5t125 40.5t125 -40.5t47 -106.5q0 -65 -47.5 -106t-124.5 -41q-78 0 -125 41t-47 106z" />
<glyph unicode="&#x1cd;" horiz-adv-x="1500" d="M72 0l501 1443h355l501 -1443h-327l-109 344h-507l-111 -344h-303zM342 1908h253l145 -173h20l145 173h253l-281 -318h-254zM551 577h378l-179 566h-18z" />
<glyph unicode="&#x1ce;" horiz-adv-x="1208" d="M87 315q0 149 110.5 234.5t316.5 97.5l267 16v90q0 69 -48 106.5t-138 37.5q-162 0 -199 -102h-268q14 153 144.5 242.5t338.5 89.5q218 0 337.5 -98t119.5 -276v-753h-282v144h-18q-43 -76 -128 -118.5t-192 -42.5q-160 0 -260.5 91t-100.5 241zM190 1605h263l149 -209 h18l148 209h263l-275 -354h-291zM372 334q0 -61 47.5 -96.5t124.5 -35.5q101 0 169 57t68 141v81l-223 -14q-186 -13 -186 -133z" />
<glyph unicode="&#x1cf;" horiz-adv-x="652" d="M-82 1908h253l145 -173h20l145 173h253l-281 -318h-254zM175 0v1443h302v-1443h-302z" />
<glyph unicode="&#x1d0;" horiz-adv-x="587" d="M-127 1605h263l149 -209h18l148 209h263l-275 -354h-291zM148 0v1103h291v-1103h-291z" />
<glyph unicode="&#x1d1;" horiz-adv-x="1610" d="M111 722q0 350 188 554t507 204q320 0 506.5 -204t186.5 -554q0 -351 -186.5 -555t-506.5 -204q-321 0 -508 204t-187 555zM398 1908h253l145 -173h20l145 173h253l-281 -318h-254zM420 722q0 -226 104.5 -360t281.5 -134q176 0 280.5 134t104.5 360t-104.5 359.5 t-280.5 133.5t-281 -133.5t-105 -359.5z" />
<glyph unicode="&#x1d2;" horiz-adv-x="1269" d="M92 552q0 268 145.5 421.5t397.5 153.5t397.5 -153.5t145.5 -421.5q0 -270 -144.5 -423t-398.5 -153t-398.5 153t-144.5 423zM214 1605h263l149 -209h18l148 209h263l-275 -354h-291zM391 552q0 -161 63.5 -249.5t180.5 -88.5q116 0 180 88.5t64 249.5q0 159 -64.5 248 t-179.5 89q-116 0 -180 -89t-64 -248z" />
<glyph unicode="&#x1d3;" horiz-adv-x="1565" d="M178 498v945h302v-914q0 -138 79.5 -218t222.5 -80q144 0 223.5 80t79.5 218v914h302v-945q0 -241 -164.5 -388t-440.5 -147q-275 0 -439.5 147t-164.5 388zM374 1908h253l145 -173h20l145 173h253l-281 -318h-254z" />
<glyph unicode="&#x1d4;" horiz-adv-x="1290" d="M136 384v719h291v-644q0 -230 203 -230q107 0 165 63t58 175v636h291v-1103h-282v177h-18q-82 -201 -322 -201q-179 0 -282.5 108.5t-103.5 299.5zM219 1605h263l149 -209h18l148 209h263l-275 -354h-291z" />
<glyph unicode="&#x1d5;" horiz-adv-x="1565" d="M178 498v945h302v-914q0 -138 79.5 -218t222.5 -80q144 0 223.5 80t79.5 218v914h302v-945q0 -241 -164.5 -388t-440.5 -147q-275 0 -439.5 147t-164.5 388zM394 1729q0 65 43.5 107.5t110.5 42.5q66 0 109.5 -42.5t43.5 -107.5t-43.5 -107.5t-109.5 -42.5 q-67 0 -110.5 42.5t-43.5 107.5zM409 1996v168h746v-168h-746zM863 1729q0 65 43.5 107.5t109.5 42.5q67 0 110.5 -42.5t43.5 -107.5t-43.5 -107.5t-110.5 -42.5q-66 0 -109.5 42.5t-43.5 107.5z" />
<glyph unicode="&#x1d6;" horiz-adv-x="1290" d="M136 384v719h291v-644q0 -230 203 -230q107 0 165 63t58 175v636h291v-1103h-282v177h-18q-82 -201 -322 -201q-179 0 -282.5 108.5t-103.5 299.5zM272 1396q0 62 41.5 103.5t105.5 41.5q63 0 104 -41.5t41 -103.5q0 -61 -41 -103t-104 -42q-64 0 -105.5 42t-41.5 103z M273 1678v180h735v-180h-735zM716 1396q0 62 41 103.5t104 41.5q64 0 105.5 -41.5t41.5 -103.5q0 -61 -41.5 -103t-105.5 -42q-63 0 -104 42t-41 103z" />
<glyph unicode="&#x1d7;" horiz-adv-x="1565" d="M178 498v945h302v-914q0 -138 79.5 -218t222.5 -80q144 0 223.5 80t79.5 218v914h302v-945q0 -241 -164.5 -388t-440.5 -147q-275 0 -439.5 147t-164.5 388zM392 1731q0 66 44 109t112 43q67 0 111 -43t44 -109t-44 -109t-111 -43q-68 0 -112 43t-44 109zM662 1937 l166 242h292l-218 -242h-240zM861 1731q0 66 44 109t111 43q68 0 112 -43t44 -109t-44 -109t-112 -43q-67 0 -111 43t-44 109z" />
<glyph unicode="&#x1d8;" horiz-adv-x="1290" d="M136 384v719h291v-644q0 -230 203 -230q107 0 165 63t58 175v636h291v-1103h-282v177h-18q-82 -201 -322 -201q-179 0 -282.5 108.5t-103.5 299.5zM251 1406q0 66 43.5 108.5t111.5 42.5t111.5 -42.5t43.5 -108.5t-44 -109t-111 -43t-111 43t-44 109zM512 1640l207 319 h281l-247 -319h-241zM719 1406q0 66 44 108.5t111 42.5q68 0 112 -42.5t44 -108.5t-44 -109t-112 -43q-67 0 -111 43t-44 109z" />
<glyph unicode="&#x1d9;" horiz-adv-x="1565" d="M178 498v945h302v-914q0 -138 79.5 -218t222.5 -80q144 0 223.5 80t79.5 218v914h302v-945q0 -241 -164.5 -388t-440.5 -147q-275 0 -439.5 147t-164.5 388zM369 2210h263l140 -166h20l140 166h263l-278 -300h-270zM396 1709q0 62 43 103t109 41t108.5 -41t42.5 -103 q0 -63 -42.5 -104t-108.5 -41t-109 41t-43 104zM865 1709q0 62 42.5 103t108.5 41t109 -41t43 -103q0 -63 -43 -104t-109 -41t-108.5 41t-42.5 104z" />
<glyph unicode="&#x1da;" horiz-adv-x="1290" d="M136 384v719h291v-644q0 -230 203 -230q107 0 165 63t58 175v636h291v-1103h-282v177h-18q-82 -201 -322 -201q-179 0 -282.5 108.5t-103.5 299.5zM231 1969h252l148 -208h18l148 208h252l-272 -347h-274zM272 1396q0 62 41.5 103.5t105.5 41.5q63 0 104 -41.5t41 -103.5 q0 -61 -41 -103t-104 -42q-64 0 -105.5 42t-41.5 103zM716 1396q0 62 41 103.5t104 41.5q64 0 105.5 -41.5t41.5 -103.5q0 -61 -41.5 -103t-105.5 -42q-63 0 -104 42t-41 103z" />
<glyph unicode="&#x1db;" horiz-adv-x="1565" d="M178 498v945h302v-914q0 -138 79.5 -218t222.5 -80q144 0 223.5 80t79.5 218v914h302v-945q0 -241 -164.5 -388t-440.5 -147q-275 0 -439.5 147t-164.5 388zM392 1731q0 66 44 109t112 43q67 0 111 -43t44 -109t-44 -109t-111 -43q-68 0 -112 43t-44 109zM453 2179h292 l166 -242h-240zM861 1731q0 66 44 109t111 43q68 0 112 -43t44 -109t-44 -109t-112 -43q-67 0 -111 43t-44 109z" />
<glyph unicode="&#x1dc;" horiz-adv-x="1290" d="M136 384v719h291v-644q0 -230 203 -230q107 0 165 63t58 175v636h291v-1103h-282v177h-18q-82 -201 -322 -201q-179 0 -282.5 108.5t-103.5 299.5zM251 1410q0 66 43.5 108.5t111.5 42.5t111.5 -42.5t43.5 -108.5t-44 -109t-111 -43t-111 43t-44 109zM280 1959h281 l207 -319h-241zM719 1410q0 66 44 108.5t111 42.5q68 0 112 -42.5t44 -108.5t-44 -109t-112 -43q-67 0 -111 43t-44 109z" />
<glyph unicode="&#x1de;" horiz-adv-x="1500" d="M72 0l501 1443h355l501 -1443h-327l-109 344h-507l-111 -344h-303zM362 1729q0 65 43.5 107.5t110.5 42.5q66 0 109.5 -42.5t43.5 -107.5t-43.5 -107.5t-109.5 -42.5q-67 0 -110.5 42.5t-43.5 107.5zM377 1996v168h746v-168h-746zM551 577h378l-179 566h-18zM831 1729 q0 65 43.5 107.5t109.5 42.5q67 0 110.5 -42.5t43.5 -107.5t-43.5 -107.5t-110.5 -42.5q-66 0 -109.5 42.5t-43.5 107.5z" />
<glyph unicode="&#x1df;" horiz-adv-x="1208" d="M87 315q0 149 110.5 234.5t316.5 97.5l267 16v90q0 69 -48 106.5t-138 37.5q-162 0 -199 -102h-268q14 153 144.5 242.5t338.5 89.5q218 0 337.5 -98t119.5 -276v-753h-282v144h-18q-43 -76 -128 -118.5t-192 -42.5q-160 0 -260.5 91t-100.5 241zM243 1396 q0 62 41.5 103.5t105.5 41.5q63 0 104 -41.5t41 -103.5q0 -61 -41 -103t-104 -42q-64 0 -105.5 42t-41.5 103zM244 1678v180h735v-180h-735zM372 334q0 -61 47.5 -96.5t124.5 -35.5q101 0 169 57t68 141v81l-223 -14q-186 -13 -186 -133zM687 1396q0 62 41 103.5t104 41.5 q64 0 105.5 -41.5t41.5 -103.5q0 -61 -41.5 -103t-105.5 -42q-63 0 -104 42t-41 103z" />
<glyph unicode="&#x1e0;" horiz-adv-x="1500" d="M72 0l501 1443h355l501 -1443h-327l-109 344h-507l-111 -344h-303zM377 1996v168h746v-168h-746zM551 577h378l-179 566h-18zM594 1725q0 64 44 106t112 42t112 -42t44 -106q0 -65 -44 -107.5t-112 -42.5t-112 42.5t-44 107.5z" />
<glyph unicode="&#x1e1;" horiz-adv-x="1208" d="M87 315q0 149 110.5 234.5t316.5 97.5l267 16v90q0 69 -48 106.5t-138 37.5q-162 0 -199 -102h-268q14 153 144.5 242.5t338.5 89.5q218 0 337.5 -98t119.5 -276v-753h-282v144h-18q-43 -76 -128 -118.5t-192 -42.5q-160 0 -260.5 91t-100.5 241zM244 1678v180h735v-180 h-735zM372 334q0 -61 47.5 -96.5t124.5 -35.5q101 0 169 57t68 141v81l-223 -14q-186 -13 -186 -133zM460 1400q0 65 42.5 108t108.5 43t108.5 -43t42.5 -108q0 -64 -42.5 -106.5t-108.5 -42.5t-108.5 42.5t-42.5 106.5z" />
<glyph unicode="&#x1e2;" horiz-adv-x="2059" d="M72 0l595 1443h1250v-258h-651v-341h614v-239h-614v-347h651v-258h-927v364h-465l-154 -364h-299zM612 598h378v604h-129zM1150 1632v181h746v-181h-746z" />
<glyph unicode="&#x1e3;" horiz-adv-x="1902" d="M87 315q0 149 110.5 234.5t316.5 97.5l267 16v73q0 80 -49.5 120.5t-136.5 40.5q-162 0 -199 -102h-268q13 146 139 239t313 93q251 0 357 -158h18q58 72 151.5 115t204.5 43q228 0 360 -148t132 -401v-94h-747v-26q4 -117 74 -187.5t182 -70.5q155 0 212 114h269 q-33 -156 -161 -247t-317 -91q-130 0 -235 53.5t-156 144.5h-18q-64 -93 -169.5 -145.5t-237.5 -52.5q-187 0 -299.5 94t-112.5 245zM372 332q0 -62 48.5 -97.5t128.5 -35.5q103 0 167.5 58t64.5 140v84l-223 -14q-186 -13 -186 -135zM616 1316v180h735v-180h-735zM1056 669 h462q-4 105 -66.5 170t-158.5 65q-102 0 -166.5 -64.5t-70.5 -170.5z" />
<glyph unicode="&#x1e6;" horiz-adv-x="1557" d="M111 723q0 349 185 553t500 204q256 0 429 -136t205 -361h-300q-34 110 -121 170.5t-213 60.5q-175 0 -275.5 -130.5t-100.5 -357.5q0 -231 104.5 -364t283.5 -133q148 0 242 80t99 211l1 26h-313v227h606v-184q0 -289 -172 -457.5t-468 -168.5q-322 0 -507 203t-185 557 zM388 1909h253l145 -173h20l145 173h253l-281 -318h-254z" />
<glyph unicode="&#x1e7;" horiz-adv-x="1322" d="M89 561q0 257 121.5 408.5t330.5 151.5q112 0 201.5 -52t133.5 -143h18v177h282v-1099q0 -194 -147 -308t-397 -114q-218 0 -354.5 88.5t-150.5 234.5h288q11 -51 70 -81t153 -30q117 0 182 51.5t65 144.5v204h-18q-94 -178 -332 -178q-206 0 -326 147.5t-120 397.5z M223 1605h263l149 -209h18l148 209h263l-275 -354h-291zM388 562q0 -147 65 -231.5t183 -84.5t185 84.5t67 230.5t-67.5 231t-184.5 85t-182.5 -84.5t-65.5 -230.5z" />
<glyph unicode="&#x1e8;" horiz-adv-x="1453" d="M175 0v1443h302v-643h18l533 643h336l-526 -633l563 -810h-362l-419 604l-143 -169v-435h-302zM294 1908h253l145 -173h20l145 173h253l-281 -318h-254z" />
<glyph unicode="&#x1e9;" horiz-adv-x="1232" d="M-106 1989h253l145 -173h20l145 173h253l-281 -318h-254zM156 0v1524h291v-852h18l369 431h331l-420 -473l449 -630h-345l-322 448l-80 -82v-366h-291z" />
<glyph unicode="&#x1ea;" horiz-adv-x="1610" d="M111 722q0 349 187.5 553.5t507.5 204.5t506.5 -204t186.5 -554q0 -222 -82.5 -391.5t-257.5 -304.5q-145 -111 -145 -211q0 -45 31 -73t87 -28q50 0 69 8v-167q-57 -21 -138 -21q-121 0 -197.5 61t-76.5 157q0 65 36.5 122t94.5 91v18q-33 -20 -114 -20q-321 0 -508 204 t-187 555zM420 722q0 -227 104.5 -360.5t281.5 -133.5q176 0 280.5 134t104.5 360q0 225 -104.5 359t-280.5 134t-281 -134t-105 -359z" />
<glyph unicode="&#x1eb;" horiz-adv-x="1269" d="M92 552q0 267 145.5 421t397.5 154q253 0 398 -153.5t145 -421.5q0 -158 -61.5 -292t-180.5 -233q-141 -119 -141 -212q0 -48 32 -74.5t86 -26.5q49 0 69 8v-167q-54 -21 -138 -21q-122 0 -198 63t-76 161q0 62 35.5 117.5t95.5 90.5v18q-22 -8 -66 -8q-255 0 -399 153 t-144 423zM391 552q0 -161 64 -249.5t180 -88.5t180 88.5t64 249.5q0 159 -64.5 248t-179.5 89t-179.5 -89t-64.5 -248z" />
<glyph unicode="&#x1ec;" horiz-adv-x="1610" d="M111 722q0 349 187.5 553.5t507.5 204.5t506.5 -204t186.5 -554q0 -222 -82.5 -391.5t-257.5 -304.5q-145 -111 -145 -211q0 -45 31 -73t87 -28q50 0 69 8v-167q-57 -21 -138 -21q-121 0 -197.5 61t-76.5 157q0 65 36.5 122t94.5 91v18q-33 -20 -114 -20q-321 0 -508 204 t-187 555zM420 722q0 -227 104.5 -360.5t281.5 -133.5q176 0 280.5 134t104.5 360q0 225 -104.5 359t-280.5 134t-281 -134t-105 -359zM433 1632v181h746v-181h-746z" />
<glyph unicode="&#x1ed;" horiz-adv-x="1269" d="M92 552q0 267 145.5 421t397.5 154q253 0 398 -153.5t145 -421.5q0 -158 -61.5 -292t-180.5 -233q-141 -119 -141 -212q0 -48 32 -74.5t86 -26.5q49 0 69 8v-167q-54 -21 -138 -21q-122 0 -198 63t-76 161q0 62 35.5 117.5t95.5 90.5v18q-22 -8 -66 -8q-255 0 -399 153 t-144 423zM268 1316v180h735v-180h-735zM391 552q0 -161 64 -249.5t180 -88.5t180 88.5t64 249.5q0 159 -64.5 248t-179.5 89t-179.5 -89t-64.5 -248z" />
<glyph unicode="&#x1f1;" horiz-adv-x="2924" d="M175 0v1444h568q322 0 499.5 -186.5t177.5 -525.5q0 -351 -176.5 -541.5t-500.5 -190.5h-568zM477 258h218q201 0 309 120.5t108 348.5q0 218 -110 338.5t-307 120.5h-218v-928zM1675 0v204l726 963v18h-709v258h1077v-203l-724 -964v-18h744v-258h-1114z" />
<glyph unicode="&#x1f2;" horiz-adv-x="2700" d="M175 0v1444h568q322 0 499.5 -186.5t177.5 -525.5q0 -351 -176.5 -541.5t-500.5 -190.5h-568zM477 258h218q201 0 309 120.5t108 348.5q0 218 -110 338.5t-307 120.5h-218v-928zM1661 0v172l558 681v18h-550v232h898v-192l-526 -661v-18h539v-232h-919z" />
<glyph unicode="&#x1f3;" horiz-adv-x="2503" d="M92 553q0 263 120.5 415.5t328.5 152.5q112 0 199 -51.5t130 -142.5h17v597h291v-1524h-282v173h-18q-44 -89 -133 -139.5t-204 -50.5q-208 0 -328.5 153t-120.5 417zM391 552q0 -153 66 -239.5t183 -86.5t183.5 86.5t66.5 238.5q0 151 -67 238.5t-183 87.5t-182.5 -86.5 t-66.5 -238.5zM1464 0v172l558 681v18h-550v232h898v-192l-526 -661v-18h539v-232h-919z" />
<glyph unicode="&#x1f4;" horiz-adv-x="1557" d="M111 723q0 349 185 553t500 204q256 0 429 -136t205 -361h-300q-34 110 -121 170.5t-213 60.5q-175 0 -275.5 -130.5t-100.5 -357.5q0 -231 104.5 -364t283.5 -133q148 0 242 80t99 211l1 26h-313v227h606v-184q0 -289 -172 -457.5t-468 -168.5q-322 0 -507 203t-185 557 zM655 1591l277 318h315l-314 -318h-278z" />
<glyph unicode="&#x1f5;" horiz-adv-x="1322" d="M89 561q0 257 121.5 408.5t330.5 151.5q112 0 201.5 -52t133.5 -143h18v177h282v-1099q0 -194 -147 -308t-397 -114q-218 0 -354.5 88.5t-150.5 234.5h288q11 -51 70 -81t153 -30q117 0 182 51.5t65 144.5v204h-18q-94 -178 -332 -178q-206 0 -326 147.5t-120 397.5z M388 562q0 -147 65 -231.5t183 -84.5t185 84.5t67 230.5t-67.5 231t-184.5 85t-182.5 -84.5t-65.5 -230.5zM489 1281l247 353h309l-287 -353h-269z" />
<glyph unicode="&#x1f8;" horiz-adv-x="1573" d="M175 0v1443h252l664 -899h18v899h289v-1443h-250l-666 903h-18v-903h-289zM342 1908h315l276 -318h-277z" />
<glyph unicode="&#x1f9;" horiz-adv-x="1285" d="M146 0v1103h282v-177h18q39 95 122.5 148t203.5 53q183 0 280 -107.5t97 -306.5v-713h-291v644q0 232 -203 232q-101 0 -159.5 -65.5t-58.5 -174.5v-636h-291zM258 1634h309l247 -353h-269z" />
<glyph unicode="&#x1fa;" horiz-adv-x="1500" d="M72 0l501 1443h355l501 -1443h-327l-109 344h-507l-111 -344h-303zM534 1742q0 90 62 149t155 59q92 0 153.5 -59t61.5 -149q0 -91 -61.5 -151t-153.5 -60q-93 0 -155 60t-62 151zM551 577h378l-179 566h-18zM633 2023l108 191h264l-135 -191h-237zM664 1740 q0 -36 24.5 -60.5t61.5 -24.5t61.5 24.5t24.5 60.5q0 37 -24.5 61t-61.5 24t-61.5 -24.5t-24.5 -60.5z" />
<glyph unicode="&#x1fb;" horiz-adv-x="1208" d="M87 315q0 149 110.5 234.5t316.5 97.5l267 16v90q0 69 -48 106.5t-138 37.5q-162 0 -199 -102h-268q14 153 144.5 242.5t338.5 89.5q218 0 337.5 -98t119.5 -276v-753h-282v144h-18q-43 -76 -128 -118.5t-192 -42.5q-160 0 -260.5 91t-100.5 241zM372 334 q0 -61 47.5 -96.5t124.5 -35.5q101 0 169 57t68 141v81l-223 -14q-186 -13 -186 -133zM384 1438q0 95 65 158.5t162 63.5t162 -63.5t65 -158.5t-65 -159t-162 -64t-162 64t-65 159zM505 1739l160 236h251l-198 -236h-213zM519 1437q0 -39 26.5 -65t65.5 -26t65.5 26t26.5 65 t-26.5 65t-65.5 26t-65.5 -26t-26.5 -65z" />
<glyph unicode="&#x1fc;" horiz-adv-x="2059" d="M72 0l595 1443h1250v-258h-651v-341h614v-239h-614v-347h651v-258h-927v364h-465l-154 -364h-299zM612 598h378v604h-129zM1382 1590l277 318h315l-314 -318h-278z" />
<glyph unicode="&#x1fd;" horiz-adv-x="1902" d="M87 315q0 149 110.5 234.5t316.5 97.5l267 16v73q0 80 -49.5 120.5t-136.5 40.5q-162 0 -199 -102h-268q13 146 139 239t313 93q251 0 357 -158h18q58 72 151.5 115t204.5 43q228 0 360 -148t132 -401v-94h-747v-26q4 -117 74 -187.5t182 -70.5q155 0 212 114h269 q-33 -156 -161 -247t-317 -91q-130 0 -235 53.5t-156 144.5h-18q-64 -93 -169.5 -145.5t-237.5 -52.5q-187 0 -299.5 94t-112.5 245zM372 332q0 -62 48.5 -97.5t128.5 -35.5q103 0 167.5 58t64.5 140v84l-223 -14q-186 -13 -186 -135zM828 1281l247 353h309l-287 -353h-269z M1056 669h462q-4 105 -66.5 170t-158.5 65q-102 0 -166.5 -64.5t-70.5 -170.5z" />
<glyph unicode="&#x1fe;" horiz-adv-x="1592" d="M111 722q0 350 188 554t507 204q207 0 360 -88l76 115l108 -59l-84 -127q113 -98 173 -251t60 -348q0 -351 -186.5 -555t-506.5 -204q-217 0 -377 97l-85 -128l-102 66l90 135q-107 100 -164 249.5t-57 339.5zM420 722q0 -201 83 -330l506 763q-88 60 -203 60 q-176 0 -281 -133.5t-105 -359.5zM587 299q93 -71 219 -71q176 0 280.5 134t104.5 360q0 216 -94 345zM678 1590l277 318h315l-314 -318h-278z" />
<glyph unicode="&#x1ff;" horiz-adv-x="1269" d="M92 552q0 268 145.5 421.5t397.5 153.5q147 0 262 -55l62 100l106 -58l-67 -107q180 -155 180 -455q0 -270 -144.5 -423t-398.5 -153q-139 0 -249 48l-61 -97l-103 63l60 96q-190 153 -190 466zM391 552q0 -136 45 -219l324 520q-53 36 -125 36q-116 0 -180 -89t-64 -248 zM468 1281l247 353h309l-287 -353h-269zM521 242q49 -28 114 -28q116 0 180 88.5t64 249.5q0 121 -38 203z" />
<glyph unicode="&#x200;" horiz-adv-x="1500" d="M72 0l501 1443h355l501 -1443h-327l-109 344h-507l-111 -344h-303zM139 1908h270l252 -318h-244zM551 577h378l-179 566h-18zM576 1908h271l251 -318h-244z" />
<glyph unicode="&#x201;" horiz-adv-x="1208" d="M55 1634h258l213 -353h-230zM87 315q0 149 110.5 234.5t316.5 97.5l267 16v90q0 69 -48 106.5t-138 37.5q-162 0 -199 -102h-268q14 153 144.5 242.5t338.5 89.5q218 0 337.5 -98t119.5 -276v-753h-282v144h-18q-43 -76 -128 -118.5t-192 -42.5q-160 0 -260.5 91 t-100.5 241zM372 334q0 -61 47.5 -96.5t124.5 -35.5q101 0 169 57t68 141v81l-223 -14q-186 -13 -186 -133zM491 1634h258l213 -353h-230z" />
<glyph unicode="&#x202;" horiz-adv-x="1500" d="M72 0l501 1443h355l501 -1443h-327l-109 344h-507l-111 -344h-303zM350 1579q0 151 108.5 243.5t291.5 92.5t291.5 -92.5t108.5 -243.5h-208q-2 76 -53.5 120.5t-138.5 44.5t-138.5 -44.5t-53.5 -120.5h-208zM551 577h378l-179 566h-18z" />
<glyph unicode="&#x203;" horiz-adv-x="1208" d="M87 315q0 149 110.5 234.5t316.5 97.5l267 16v90q0 69 -48 106.5t-138 37.5q-162 0 -199 -102h-268q14 153 144.5 242.5t338.5 89.5q218 0 337.5 -98t119.5 -276v-753h-282v144h-18q-43 -76 -128 -118.5t-192 -42.5q-160 0 -260.5 91t-100.5 241zM211 1251 q0 156 108.5 253.5t291.5 97.5t291.5 -97.5t108.5 -253.5h-208q-2 81 -53 129.5t-139 48.5t-139 -48.5t-53 -129.5h-208zM372 334q0 -61 47.5 -96.5t124.5 -35.5q101 0 169 57t68 141v81l-223 -14q-186 -13 -186 -133z" />
<glyph unicode="&#x204;" horiz-adv-x="1274" d="M42 1908h270l252 -318h-244zM175 0v1443h956v-258h-654v-337h617v-239h-617v-351h654v-258h-956zM479 1908h271l251 -318h-244z" />
<glyph unicode="&#x205;" horiz-adv-x="1231" d="M66 1634h258l213 -353h-230zM92 546q0 269 142 425t388 156q244 0 380.5 -147t136.5 -410v-89h-757v-15q3 -123 70.5 -194.5t181.5 -71.5q86 0 144 29.5t81 84.5h271q-33 -157 -167.5 -247.5t-336.5 -90.5q-252 0 -393 150.5t-141 419.5zM383 667h470q-5 110 -66.5 173.5 t-163.5 63.5q-101 0 -166.5 -65t-73.5 -172zM502 1634h258l213 -353h-230z" />
<glyph unicode="&#x206;" horiz-adv-x="1274" d="M175 0v1443h956v-258h-654v-337h617v-239h-617v-351h654v-258h-956zM253 1579q0 151 108.5 243.5t291.5 92.5t291.5 -92.5t108.5 -243.5h-208q-2 76 -53.5 120.5t-138.5 44.5t-138.5 -44.5t-53.5 -120.5h-208z" />
<glyph unicode="&#x207;" horiz-adv-x="1231" d="M92 546q0 269 142 425t388 156q244 0 380.5 -147t136.5 -410v-89h-757v-15q3 -123 70.5 -194.5t181.5 -71.5q86 0 144 29.5t81 84.5h271q-33 -157 -167.5 -247.5t-336.5 -90.5q-252 0 -393 150.5t-141 419.5zM222 1251q0 156 108.5 253.5t291.5 97.5t291.5 -97.5 t108.5 -253.5h-208q-2 81 -53 129.5t-139 48.5t-139 -48.5t-53 -129.5h-208zM383 667h470q-5 110 -66.5 173.5t-163.5 63.5q-101 0 -166.5 -65t-73.5 -172z" />
<glyph unicode="&#x208;" horiz-adv-x="652" d="M-285 1908h270l252 -318h-244zM152 1908h271l251 -318h-244zM175 0v1443h302v-1443h-302z" />
<glyph unicode="&#x209;" horiz-adv-x="587" d="M-262 1634h258l213 -353h-230zM148 0v1103h291v-1103h-291zM174 1634h258l213 -353h-230z" />
<glyph unicode="&#x20a;" horiz-adv-x="652" d="M-74 1579q0 151 108.5 243.5t291.5 92.5t291.5 -92.5t108.5 -243.5h-208q-2 76 -53.5 120.5t-138.5 44.5t-138.5 -44.5t-53.5 -120.5h-208zM175 0v1443h302v-1443h-302z" />
<glyph unicode="&#x20b;" horiz-adv-x="587" d="M-106 1251q0 156 108.5 253.5t291.5 97.5t291.5 -97.5t108.5 -253.5h-208q-2 81 -53 129.5t-139 48.5t-139 -48.5t-53 -129.5h-208zM148 0v1103h291v-1103h-291z" />
<glyph unicode="&#x20c;" horiz-adv-x="1610" d="M111 722q0 350 188 554t507 204q320 0 506.5 -204t186.5 -554q0 -351 -186.5 -555t-506.5 -204q-321 0 -508 204t-187 555zM195 1908h270l252 -318h-244zM420 722q0 -226 104.5 -360t281.5 -134q176 0 280.5 134t104.5 360t-104.5 359.5t-280.5 133.5t-281 -133.5 t-105 -359.5zM632 1908h271l251 -318h-244z" />
<glyph unicode="&#x20d;" horiz-adv-x="1269" d="M79 1634h258l213 -353h-230zM92 552q0 268 145.5 421.5t397.5 153.5t397.5 -153.5t145.5 -421.5q0 -270 -144.5 -423t-398.5 -153t-398.5 153t-144.5 423zM391 552q0 -161 63.5 -249.5t180.5 -88.5q116 0 180 88.5t64 249.5q0 159 -64.5 248t-179.5 89q-116 0 -180 -89 t-64 -248zM515 1634h258l213 -353h-230z" />
<glyph unicode="&#x20e;" horiz-adv-x="1610" d="M111 722q0 350 188 554t507 204q320 0 506.5 -204t186.5 -554q0 -351 -186.5 -555t-506.5 -204q-321 0 -508 204t-187 555zM406 1579q0 151 108.5 243.5t291.5 92.5t291.5 -92.5t108.5 -243.5h-208q-2 76 -53.5 120.5t-138.5 44.5t-138.5 -44.5t-53.5 -120.5h-208z M420 722q0 -226 104.5 -360t281.5 -134q176 0 280.5 134t104.5 360t-104.5 359.5t-280.5 133.5t-281 -133.5t-105 -359.5z" />
<glyph unicode="&#x20f;" horiz-adv-x="1269" d="M92 552q0 268 145.5 421.5t397.5 153.5t397.5 -153.5t145.5 -421.5q0 -270 -144.5 -423t-398.5 -153t-398.5 153t-144.5 423zM235 1251q0 156 108.5 253.5t291.5 97.5t291.5 -97.5t108.5 -253.5h-208q-2 81 -53 129.5t-139 48.5t-139 -48.5t-53 -129.5h-208zM391 552 q0 -161 63.5 -249.5t180.5 -88.5q116 0 180 88.5t64 249.5q0 159 -64.5 248t-179.5 89q-116 0 -180 -89t-64 -248z" />
<glyph unicode="&#x210;" horiz-adv-x="1422" d="M41 1908h270l252 -318h-244zM175 0v1443h606q238 0 375 -124t137 -339q0 -140 -69.5 -250.5t-192.5 -159.5l304 -570h-342l-269 523h-247v-523h-302zM477 755h265q114 0 177.5 58.5t63.5 162.5q0 103 -66 163t-178 60h-262v-444zM478 1908h271l251 -318h-244z" />
<glyph unicode="&#x211;" horiz-adv-x="891" d="M-108 1634h258l213 -353h-230zM146 0v1103h282v-176h18q22 84 100.5 139t182.5 55q75 0 114 -14v-265q-46 18 -138 18q-121 0 -194.5 -67t-73.5 -182v-611h-291zM328 1634h258l213 -353h-230z" />
<glyph unicode="&#x212;" horiz-adv-x="1422" d="M175 0v1443h606q238 0 375 -124t137 -339q0 -140 -69.5 -250.5t-192.5 -159.5l304 -570h-342l-269 523h-247v-523h-302zM252 1579q0 151 108.5 243.5t291.5 92.5t291.5 -92.5t108.5 -243.5h-208q-2 76 -53.5 120.5t-138.5 44.5t-138.5 -44.5t-53.5 -120.5h-208zM477 755 h265q114 0 177.5 58.5t63.5 162.5q0 103 -66 163t-178 60h-262v-444z" />
<glyph unicode="&#x213;" horiz-adv-x="891" d="M48 1251q0 156 108.5 253.5t291.5 97.5t291.5 -97.5t108.5 -253.5h-208q-2 81 -53 129.5t-139 48.5t-139 -48.5t-53 -129.5h-208zM146 0v1103h282v-176h18q22 84 100.5 139t182.5 55q75 0 114 -14v-265q-46 18 -138 18q-121 0 -194.5 -67t-73.5 -182v-611h-291z" />
<glyph unicode="&#x214;" horiz-adv-x="1565" d="M171 1908h270l252 -318h-244zM178 498v945h302v-914q0 -138 79.5 -218t222.5 -80q144 0 223.5 80t79.5 218v914h302v-945q0 -241 -164.5 -388t-440.5 -147q-275 0 -439.5 147t-164.5 388zM608 1908h271l251 -318h-244z" />
<glyph unicode="&#x215;" horiz-adv-x="1290" d="M84 1634h258l213 -353h-230zM136 384v719h291v-644q0 -230 203 -230q107 0 165 63t58 175v636h291v-1103h-282v177h-18q-82 -201 -322 -201q-179 0 -282.5 108.5t-103.5 299.5zM520 1634h258l213 -353h-230z" />
<glyph unicode="&#x216;" horiz-adv-x="1565" d="M178 498v945h302v-914q0 -138 79.5 -218t222.5 -80q144 0 223.5 80t79.5 218v914h302v-945q0 -241 -164.5 -388t-440.5 -147q-275 0 -439.5 147t-164.5 388zM382 1579q0 151 108.5 243.5t291.5 92.5t291.5 -92.5t108.5 -243.5h-208q-2 76 -53.5 120.5t-138.5 44.5 t-138.5 -44.5t-53.5 -120.5h-208z" />
<glyph unicode="&#x217;" horiz-adv-x="1290" d="M136 384v719h291v-644q0 -230 203 -230q107 0 165 63t58 175v636h291v-1103h-282v177h-18q-82 -201 -322 -201q-179 0 -282.5 108.5t-103.5 299.5zM240 1251q0 156 108.5 253.5t291.5 97.5t291.5 -97.5t108.5 -253.5h-208q-2 81 -53 129.5t-139 48.5t-139 -48.5 t-53 -129.5h-208z" />
<glyph unicode="&#x218;" horiz-adv-x="1383" d="M110 401h292q10 -88 92 -140t210 -52q118 0 193 51.5t75 133.5q0 69 -58 112t-191 71l-188 40q-392 82 -392 412q0 204 151 327.5t401 123.5q238 0 391.5 -121t160.5 -314h-284q-11 86 -84 138t-182 52q-114 0 -182.5 -49t-68.5 -131q0 -67 55.5 -108t182.5 -68l174 -37 q217 -46 316 -144t99 -266q0 -218 -156.5 -343.5t-428.5 -125.5q-258 0 -414 118t-164 320zM424 -509l132 358h292l-166 -358h-258z" />
<glyph unicode="&#x219;" horiz-adv-x="1160" d="M94 307h284q35 -118 209 -118q85 0 138 32.5t53 85.5q0 41 -33 66.5t-106 41.5l-200 45q-161 35 -239.5 113.5t-78.5 205.5q0 157 126.5 252.5t332.5 95.5q210 0 329.5 -85t131.5 -243h-269q-11 54 -60.5 84.5t-129.5 30.5q-79 0 -130 -32.5t-51 -84.5q0 -40 36 -66.5 t113 -43.5l207 -45q161 -35 235.5 -107t74.5 -195q0 -164 -134 -264t-352 -100t-345 86t-142 245zM317 -509l132 358h292l-166 -358h-258z" />
<glyph unicode="&#x21a;" horiz-adv-x="1352" d="M92 1185v258h1168v-258h-433v-1185h-302v1185h-433zM409 -509l132 358h292l-166 -358h-258z" />
<glyph unicode="&#x21b;" horiz-adv-x="845" d="M57 863v229h172v273h291v-273h229v-229h-229v-496q0 -72 34.5 -106t108.5 -34q49 0 86 4v-222q-67 -13 -146 -13q-201 0 -287.5 70t-86.5 232v565h-172zM220 -509l132 358h292l-166 -358h-258z" />
<glyph unicode="&#x21e;" horiz-adv-x="1604" d="M175 0v1443h302v-582h650v582h302v-1443h-302v603h-650v-603h-302zM394 1908h253l145 -173h20l145 173h253l-281 -318h-254z" />
<glyph unicode="&#x21f;" horiz-adv-x="1307" d="M-109 1989h253l145 -173h20l145 173h253l-281 -318h-254zM156 0v1524h286v-602h18q39 95 125.5 148.5t207.5 53.5q179 0 278.5 -108t99.5 -306v-710h-291v641q0 114 -52 173t-151 59q-108 0 -169 -65.5t-61 -174.5v-633h-291z" />
<glyph unicode="&#x226;" horiz-adv-x="1500" d="M72 0l501 1443h355l501 -1443h-327l-109 344h-507l-111 -344h-303zM551 577h378l-179 566h-18zM592 1737q0 68 44.5 113t113.5 45t113 -45t44 -113t-44 -113t-113 -45t-113.5 45t-44.5 113z" />
<glyph unicode="&#x227;" horiz-adv-x="1208" d="M87 315q0 149 110.5 234.5t316.5 97.5l267 16v90q0 69 -48 106.5t-138 37.5q-162 0 -199 -102h-268q14 153 144.5 242.5t338.5 89.5q218 0 337.5 -98t119.5 -276v-753h-282v144h-18q-43 -76 -128 -118.5t-192 -42.5q-160 0 -260.5 91t-100.5 241zM372 334 q0 -61 47.5 -96.5t124.5 -35.5q101 0 169 57t68 141v81l-223 -14q-186 -13 -186 -133zM450 1438q0 69 45.5 115t115.5 46t115.5 -46t45.5 -115t-45.5 -114.5t-115.5 -45.5t-115.5 45.5t-45.5 114.5z" />
<glyph unicode="&#x228;" horiz-adv-x="1274" d="M175 0v1443h956v-258h-654v-337h617v-239h-617v-351h654v-258h-383l-45 -107q95 -5 145.5 -50.5t50.5 -126.5q0 -97 -70 -151t-197 -54q-86 0 -147 18v134q42 -14 116 -14q112 0 112 59q0 30 -30.5 43t-99.5 13h-60v116l52 120h-400z" />
<glyph unicode="&#x229;" horiz-adv-x="1231" d="M92 546q0 269 142 425t388 156q244 0 380.5 -147t136.5 -410v-89h-757v-15q3 -123 70.5 -194.5t181.5 -71.5q86 0 144 29.5t81 84.5h271q-29 -139 -139.5 -226.5t-277.5 -106.5l-37 -88q95 -5 145.5 -50.5t50.5 -126.5q0 -97 -70 -151t-197 -54q-86 0 -147 18v134 q42 -14 116 -14q112 0 112 59q0 30 -30.5 43t-99.5 13h-60v116l44 101q-213 26 -330.5 173.5t-117.5 391.5zM383 667h470q-5 110 -66.5 173.5t-163.5 63.5q-101 0 -166.5 -65t-73.5 -172z" />
<glyph unicode="&#x22a;" horiz-adv-x="1610" d="M111 722q0 350 188 554t507 204q320 0 506.5 -204t186.5 -554q0 -351 -186.5 -555t-506.5 -204q-321 0 -508 204t-187 555zM418 1729q0 65 43.5 107.5t110.5 42.5q66 0 109.5 -42.5t43.5 -107.5t-43.5 -107.5t-109.5 -42.5q-67 0 -110.5 42.5t-43.5 107.5zM420 722 q0 -226 104.5 -360t281.5 -134q176 0 280.5 134t104.5 360t-104.5 359.5t-280.5 133.5t-281 -133.5t-105 -359.5zM433 1996v168h746v-168h-746zM887 1729q0 65 43.5 107.5t109.5 42.5q67 0 110.5 -42.5t43.5 -107.5t-43.5 -107.5t-110.5 -42.5q-66 0 -109.5 42.5 t-43.5 107.5z" />
<glyph unicode="&#x22b;" horiz-adv-x="1269" d="M92 552q0 268 145.5 421.5t397.5 153.5t397.5 -153.5t145.5 -421.5q0 -270 -144.5 -423t-398.5 -153t-398.5 153t-144.5 423zM267 1396q0 62 41.5 103.5t105.5 41.5q63 0 104 -41.5t41 -103.5q0 -61 -41 -103t-104 -42q-64 0 -105.5 42t-41.5 103zM268 1678v180h735v-180 h-735zM391 552q0 -161 63.5 -249.5t180.5 -88.5q116 0 180 88.5t64 249.5q0 159 -64.5 248t-179.5 89q-116 0 -180 -89t-64 -248zM711 1396q0 62 41 103.5t104 41.5q64 0 105.5 -41.5t41.5 -103.5q0 -61 -41.5 -103t-105.5 -42q-63 0 -104 42t-41 103z" />
<glyph unicode="&#x22c;" horiz-adv-x="1610" d="M111 722q0 350 188 554t507 204q320 0 506.5 -204t186.5 -554q0 -351 -186.5 -555t-506.5 -204q-321 0 -508 204t-187 555zM405 1590q0 132 69 208t178 76q54 0 98.5 -19t68.5 -41t55 -41t63 -19q80 0 87 107h183q0 -130 -69 -206t-178 -76q-54 0 -98.5 19t-68.5 41.5 t-55 41.5t-63 19q-39 0 -61.5 -27.5t-24.5 -82.5h-184zM420 722q0 -226 104.5 -360t281.5 -134q176 0 280.5 134t104.5 360t-104.5 359.5t-280.5 133.5t-281 -133.5t-105 -359.5zM433 1986v178h746v-178h-746z" />
<glyph unicode="&#x22d;" horiz-adv-x="1269" d="M92 552q0 268 145.5 421.5t397.5 153.5t397.5 -153.5t145.5 -421.5q0 -270 -144.5 -423t-398.5 -153t-398.5 153t-144.5 423zM221 1256q0 145 71.5 233t189.5 88q42 0 79 -15t62.5 -36t48 -42t45 -36t43.5 -15q87 0 88 138h187q0 -144 -71.5 -231t-189.5 -87 q-42 0 -79 15t-62.5 36t-48 42t-45 36t-43.5 15q-86 0 -88 -141h-187zM268 1680v180h735v-180h-735zM391 552q0 -161 63.5 -249.5t180.5 -88.5q116 0 180 88.5t64 249.5q0 159 -64.5 248t-179.5 89q-116 0 -180 -89t-64 -248z" />
<glyph unicode="&#x22e;" horiz-adv-x="1610" d="M111 722q0 350 188 554t507 204q320 0 506.5 -204t186.5 -554q0 -351 -186.5 -555t-506.5 -204q-321 0 -508 204t-187 555zM420 722q0 -226 104.5 -360t281.5 -134q176 0 280.5 134t104.5 360t-104.5 359.5t-280.5 133.5t-281 -133.5t-105 -359.5zM648 1737 q0 68 44.5 113t113.5 45t113 -45t44 -113t-44 -113t-113 -45t-113.5 45t-44.5 113z" />
<glyph unicode="&#x22f;" horiz-adv-x="1269" d="M92 552q0 268 145.5 421.5t397.5 153.5t397.5 -153.5t145.5 -421.5q0 -270 -144.5 -423t-398.5 -153t-398.5 153t-144.5 423zM391 552q0 -161 63.5 -249.5t180.5 -88.5q116 0 180 88.5t64 249.5q0 159 -64.5 248t-179.5 89q-116 0 -180 -89t-64 -248zM474 1438 q0 69 45.5 115t115.5 46t115.5 -46t45.5 -115t-45.5 -114.5t-115.5 -45.5t-115.5 45.5t-45.5 114.5z" />
<glyph unicode="&#x230;" horiz-adv-x="1610" d="M111 722q0 350 188 554t507 204q320 0 506.5 -204t186.5 -554q0 -351 -186.5 -555t-506.5 -204q-321 0 -508 204t-187 555zM420 722q0 -226 104.5 -360t281.5 -134q176 0 280.5 134t104.5 360t-104.5 359.5t-280.5 133.5t-281 -133.5t-105 -359.5zM433 1996v168h746v-168 h-746zM650 1725q0 64 44 106t112 42t112 -42t44 -106q0 -65 -44 -107.5t-112 -42.5t-112 42.5t-44 107.5z" />
<glyph unicode="&#x231;" horiz-adv-x="1269" d="M92 552q0 268 145.5 421.5t397.5 153.5t397.5 -153.5t145.5 -421.5q0 -270 -144.5 -423t-398.5 -153t-398.5 153t-144.5 423zM268 1678v180h735v-180h-735zM391 552q0 -161 63.5 -249.5t180.5 -88.5q116 0 180 88.5t64 249.5q0 159 -64.5 248t-179.5 89q-116 0 -180 -89 t-64 -248zM484 1400q0 65 42.5 108t108.5 43t108.5 -43t42.5 -108q0 -64 -42.5 -106.5t-108.5 -42.5t-108.5 42.5t-42.5 106.5z" />
<glyph unicode="&#x232;" horiz-adv-x="1452" d="M72 1443h327l318 -604h18l317 604h327l-502 -912v-531h-302v531zM353 1632v181h746v-181h-746z" />
<glyph unicode="&#x233;" horiz-adv-x="1223" d="M56 1103h321l232 -836h18l232 836h308l-380 -1120q-70 -212 -183.5 -298t-320.5 -86q-93 0 -111 3v234q10 -2 66 -2q83 0 130 28.5t65 90.5l10 40zM249 1316v180h735v-180h-735z" />
<glyph unicode="&#x237;" horiz-adv-x="587" d="M-29 -149q6 -1 37 -1q76 0 108 29t32 95v1129h291v-1137q0 -169 -99 -255.5t-291 -86.5q-54 0 -78 4v223z" />
<glyph unicode="&#x2019;" horiz-adv-x="651" d="M132 831l107 612h280l-142 -612h-245z" />
<glyph unicode="&#x2bc;" horiz-adv-x="651" d="M132 831l107 612h280l-142 -612h-245z" />
<glyph unicode="&#x2c6;" horiz-adv-x="1099" d="M129 1251l275 354h291l275 -354h-263l-148 209h-18l-149 -209h-263z" />
<glyph unicode="&#x2c7;" horiz-adv-x="1099" d="M129 1605h263l149 -209h18l148 209h263l-275 -354h-291z" />
<glyph unicode="&#x2d8;" horiz-adv-x="1048" d="M125 1602h207q2 -81 53 -129.5t139 -48.5t139 48.5t53 129.5h208q0 -156 -108.5 -253.5t-291.5 -97.5t-291 97.5t-108 253.5z" />
<glyph unicode="&#x2d9;" horiz-adv-x="1048" d="M363 1438q0 69 45.5 115t115.5 46t115.5 -46t45.5 -115t-45.5 -114.5t-115.5 -45.5t-115.5 45.5t-45.5 114.5z" />
<glyph unicode="&#x2da;" horiz-adv-x="1099" d="M304 1492q0 102 70.5 170t175.5 68t175 -67.5t70 -170.5q0 -104 -70 -172.5t-175 -68.5t-175.5 68.5t-70.5 172.5zM444 1491q0 -46 30 -75t76 -29t75.5 29.5t29.5 74.5q0 44 -30 73.5t-75 29.5q-46 0 -76 -29.5t-30 -73.5z" />
<glyph unicode="&#x2db;" horiz-adv-x="1048" d="M332 -259q0 76 45 141t146 132h190q-94 -65 -135 -114.5t-41 -97.5q0 -42 31.5 -66.5t86.5 -24.5q43 0 74 9v-162q-61 -24 -144 -24q-116 0 -184.5 56t-68.5 151z" />
<glyph unicode="&#x2dc;" horiz-adv-x="1098" d="M142 1270q0 145 71.5 233t189.5 88q42 0 79 -15t62.5 -36t48 -42t45 -36t43.5 -15q87 0 88 138h187q0 -144 -71.5 -231t-189.5 -87q-42 0 -79 15t-62.5 36t-48 42t-45 36t-43.5 15q-86 0 -88 -141h-187z" />
<glyph unicode="&#x2dd;" horiz-adv-x="1048" d="M67 1281l212 353h259l-242 -353h-229zM503 1281l212 353h259l-242 -353h-229z" />
<glyph unicode="&#x300;" horiz-adv-x="0" d="M-397 1634h309l247 -353h-269z" />
<glyph unicode="&#x301;" horiz-adv-x="0" d="M-155 1281l247 353h309l-287 -353h-269z" />
<glyph unicode="&#x302;" horiz-adv-x="0" d="M-421 1251l275 354h291l275 -354h-263l-148 209h-18l-149 -209h-263z" />
<glyph unicode="&#x303;" horiz-adv-x="0" d="M-402 1256q0 145 71.5 233t189.5 88q42 0 79 -15t62.5 -36t48 -42t45 -36t43.5 -15q87 0 88 138h187q0 -144 -71.5 -231t-189.5 -87q-42 0 -79 15t-62.5 36t-48 42t-45 36t-43.5 15q-86 0 -88 -141h-187z" />
<glyph unicode="&#x304;" horiz-adv-x="0" d="M-367 1316v180h735v-180h-735z" />
<glyph unicode="&#x306;" horiz-adv-x="0" d="M-400 1602h207q2 -81 53 -129.5t139 -48.5t139 48.5t53 129.5h208q0 -156 -108.5 -253.5t-291.5 -97.5t-291 97.5t-108 253.5z" />
<glyph unicode="&#x307;" horiz-adv-x="0" d="M-161 1438q0 69 45.5 115t115.5 46t115.5 -46t45.5 -115t-45.5 -114.5t-115.5 -45.5t-115.5 45.5t-45.5 114.5z" />
<glyph unicode="&#x308;" horiz-adv-x="0" d="M-389 1403q0 66 43.5 108.5t111.5 42.5t111.5 -42.5t43.5 -108.5t-44 -109t-111 -43t-111 43t-44 109zM79 1403q0 66 44 108.5t111 42.5q68 0 112 -42.5t44 -108.5t-44 -109t-112 -43q-67 0 -111 43t-44 109z" />
<glyph unicode="&#x309;" horiz-adv-x="0" d="M-179 1497v155q67 25 157 25q113 0 182.5 -58t69.5 -154q0 -82 -53.5 -147.5t-147.5 -101.5l-94 115q49 18 78.5 46.5t29.5 60.5q0 35 -29.5 56.5t-79.5 21.5q-68 0 -113 -19z" />
<glyph unicode="&#x30a;" horiz-adv-x="0" d="M-246 1492q0 102 70.5 170t175.5 68t175 -67.5t70 -170.5q0 -104 -70 -172.5t-175 -68.5t-175.5 68.5t-70.5 172.5zM-106 1491q0 -46 30 -75t76 -29t75.5 29.5t29.5 74.5q0 44 -30 73.5t-75 29.5q-46 0 -76 -29.5t-30 -73.5z" />
<glyph unicode="&#x30b;" horiz-adv-x="0" d="M-359 1281l212 353h259l-242 -353h-229zM77 1281l212 353h259l-242 -353h-229z" />
<glyph unicode="&#x30c;" horiz-adv-x="0" d="M-421 1605h263l149 -209h18l148 209h263l-275 -354h-291z" />
<glyph unicode="&#x30f;" horiz-adv-x="0" d="M-556 1634h258l213 -353h-230zM-120 1634h258l213 -353h-230z" />
<glyph unicode="&#x311;" horiz-adv-x="0" d="M-400 1251q0 156 108.5 253.5t291.5 97.5t291.5 -97.5t108.5 -253.5h-208q-2 81 -53 129.5t-139 48.5t-139 -48.5t-53 -129.5h-208z" />
<glyph unicode="&#x31b;" horiz-adv-x="0" d="M0 910v208q32 -21 72 -19q44 3 63.5 32t19.5 92v158h231v-215q0 -130 -68.5 -206.5t-183.5 -76.5q-87 0 -134 27z" />
<glyph unicode="&#x323;" horiz-adv-x="0" d="M-158 -277q0 68 44.5 113t113.5 45t113 -45t44 -113t-44 -113t-113 -45t-113.5 45t-44.5 113z" />
<glyph unicode="&#x324;" horiz-adv-x="0" d="M-389 -293q0 66 43.5 108.5t111.5 42.5t111.5 -42.5t43.5 -108.5t-44 -109t-111 -43t-111 43t-44 109zM79 -293q0 66 44 108.5t111 42.5q68 0 112 -42.5t44 -108.5t-44 -109t-112 -43q-67 0 -111 43t-44 109z" />
<glyph unicode="&#x325;" horiz-adv-x="0" d="M-246 -329q0 102 70.5 170t175.5 68t175 -67.5t70 -170.5q0 -104 -70 -172.5t-175 -68.5t-175.5 68.5t-70.5 172.5zM-106 -330q0 -46 30 -75t76 -29t75.5 29.5t29.5 74.5q0 44 -30 73.5t-75 29.5q-46 0 -76 -29.5t-30 -73.5z" />
<glyph unicode="&#x326;" horiz-adv-x="0" d="M-264 -509l132 358h292l-166 -358h-258z" />
<glyph unicode="&#x327;" horiz-adv-x="0" d="M-168 -337q42 -14 116 -14q112 0 112 59q0 30 -30.5 43t-99.5 13h-60v116l64 148h161v-27l-45 -108q95 -5 145.5 -50.5t50.5 -126.5q0 -97 -70 -151t-197 -54q-86 0 -147 18v134z" />
<glyph unicode="&#x328;" horiz-adv-x="0" d="M-247 -262q0 76 45 141t146 132h190q-94 -65 -135 -114.5t-41 -97.5q0 -42 31.5 -66.5t86.5 -24.5q42 0 74 9v-162q-61 -24 -144 -24q-116 0 -184.5 56t-68.5 151z" />
<glyph unicode="&#x32d;" horiz-adv-x="0" d="M-420 -469l284 335h272l284 -335h-265l-146 187h-18l-146 -187h-265z" />
<glyph unicode="&#x32e;" horiz-adv-x="0" d="M-400 -104h208q2 -75 53.5 -119.5t138.5 -44.5t138.5 44.5t53.5 119.5h208q0 -150 -108.5 -243t-291.5 -93t-291.5 93t-108.5 243z" />
<glyph unicode="&#x330;" horiz-adv-x="0" d="M-407 -432q0 145 71.5 233t189.5 88q42 0 79 -15t62.5 -36t48 -42t45 -36t43.5 -15q87 0 88 138h187q0 -144 -71.5 -231t-189.5 -87q-42 0 -79 15t-62.5 36t-48 42t-45 36t-43.5 15q-86 0 -88 -141h-187z" />
<glyph unicode="&#x331;" horiz-adv-x="0" d="M-373 -220h746v-181h-746v181z" />
<glyph unicode="&#x37e;" horiz-adv-x="712" d="M138 -388l79 635h288l-133 -635h-234zM179 885q0 76 48.5 124.5t128.5 48.5t128.5 -48t48.5 -125t-48.5 -125.5t-128.5 -48.5t-128.5 48.5t-48.5 125.5z" />
<glyph unicode="&#x384;" horiz-adv-x="924" d="M260 1267l83 378h299l-145 -378h-237z" />
<glyph unicode="&#x385;" horiz-adv-x="1446" d="M199 1408q0 62 41 102t104 40t104 -40t41 -102q0 -61 -41 -101t-104 -40t-104 40t-41 101zM588 1267l25 378h275l-86 -378h-214zM957 1408q0 62 41 102t104 40t104 -40t41 -102q0 -61 -41 -101t-104 -40t-104 40t-41 101z" />
<glyph unicode="&#x386;" horiz-adv-x="1567" d="M69 1065l83 378h299l-145 -378h-237zM139 0l501 1443h355l501 -1443h-327l-109 344h-507l-111 -344h-303zM618 577h378l-179 566h-18z" />
<glyph unicode="&#x387;" horiz-adv-x="712" d="M179 552q0 76 48.5 124.5t128.5 48.5t128.5 -48t48.5 -125t-48.5 -125.5t-128.5 -48.5t-128.5 49t-48.5 125z" />
<glyph unicode="&#x388;" horiz-adv-x="1713" d="M77 1065l83 378h299l-145 -378h-237zM615 0v1443h956v-258h-654v-337h617v-239h-617v-351h654v-258h-956z" />
<glyph unicode="&#x389;" horiz-adv-x="2044" d="M77 1065l83 378h299l-145 -378h-237zM615 0v1443h302v-582h650v582h302v-1443h-302v603h-650v-603h-302z" />
<glyph unicode="&#x38a;" horiz-adv-x="1092" d="M77 1065l83 378h299l-145 -378h-237zM615 0v1443h302v-1443h-302z" />
<glyph unicode="&#x38c;" horiz-adv-x="1925" d="M77 1065l83 378h299l-145 -378h-237zM426 722q0 350 188 554t507 204q320 0 506.5 -204t186.5 -554q0 -351 -186.5 -555t-506.5 -204q-321 0 -508 204t-187 555zM735 722q0 -226 104.5 -360t281.5 -134q176 0 280.5 134t104.5 360t-104.5 359.5t-280.5 133.5t-281 -133.5 t-105 -359.5z" />
<glyph unicode="&#x38e;" horiz-adv-x="1916" d="M77 1065l83 378h299l-145 -378h-237zM537 1443h327l318 -604h18l317 604h327l-502 -912v-531h-302v531z" />
<glyph unicode="&#x38f;" horiz-adv-x="1953" d="M77 1065l83 378h299l-145 -378h-237zM442 0v247h282v18q-132 78 -207 223.5t-75 322.5q0 297 194 483t504 186t504.5 -186t194.5 -483q0 -177 -75 -322.5t-207 -223.5v-18h282v-247h-577v314q139 80 206 196t67 277q0 197 -106.5 312.5t-288.5 115.5t-288.5 -115.5 t-106.5 -312.5q0 -161 67 -277t207 -196v-314h-577z" />
<glyph unicode="&#x390;" horiz-adv-x="704" d="M-214 1408q0 62 41 102t104 40t104 -40t41 -102q0 -61 -41 -101t-104 -40t-104 40t-41 101zM146 299v804h291v-736q0 -72 33 -106t107 -34q33 0 70 4v-222q-67 -13 -135 -13q-198 0 -282 70.5t-84 232.5zM175 1267l25 378h275l-86 -378h-214zM544 1408q0 62 41 102 t104 40t104 -40t41 -102q0 -61 -41 -101t-104 -40t-104 40t-41 101z" />
<glyph unicode="&#x391;" horiz-adv-x="1500" d="M72 0l501 1443h355l501 -1443h-327l-109 344h-507l-111 -344h-303zM551 577h378l-179 566h-18z" />
<glyph unicode="&#x392;" horiz-adv-x="1420" d="M175 0v1443h631q209 0 328 -96t119 -264q0 -115 -75 -203t-186 -105v-18q143 -11 236.5 -108t93.5 -236q0 -190 -134 -301.5t-365 -111.5h-648zM477 231h269q130 0 199 53.5t69 154.5q0 99 -70.5 150.5t-204.5 51.5h-262v-410zM477 845h227q122 0 187 48t65 135 t-59.5 135.5t-167.5 48.5h-252v-367z" />
<glyph unicode="&#x393;" horiz-adv-x="1204" d="M175 0v1443h925v-258h-623v-1185h-302z" />
<glyph unicode="&#x2206;" horiz-adv-x="1506" d="M114 0v177l462 1266h355l462 -1266v-177h-1279zM430 258h625v18l-302 877h-18l-305 -877v-18z" />
<glyph unicode="&#x394;" horiz-adv-x="1506" d="M114 0v177l462 1266h355l462 -1266v-177h-1279zM430 258h625v18l-302 877h-18l-305 -877v-18z" />
<glyph unicode="&#x395;" horiz-adv-x="1274" d="M175 0v1443h956v-258h-654v-337h617v-239h-617v-351h654v-258h-956z" />
<glyph unicode="&#x396;" horiz-adv-x="1384" d="M135 0v204l726 963v18h-709v258h1077v-203l-724 -964v-18h744v-258h-1114z" />
<glyph unicode="&#x397;" horiz-adv-x="1604" d="M175 0v1443h302v-582h650v582h302v-1443h-302v603h-650v-603h-302z" />
<glyph unicode="&#x398;" horiz-adv-x="1670" d="M111 722q0 361 192.5 559.5t532.5 198.5q341 0 532 -198.5t191 -559.5q0 -358 -192 -558.5t-531 -200.5q-340 0 -532.5 200t-192.5 559zM422 722q0 -236 110 -367.5t304 -131.5q192 0 302.5 131.5t110.5 367.5t-110.5 367t-302.5 131t-303 -131t-111 -367zM579 591v252 h511v-252h-511z" />
<glyph unicode="&#x399;" horiz-adv-x="652" d="M175 0v1443h302v-1443h-302z" />
<glyph unicode="&#x39a;" horiz-adv-x="1453" d="M175 0v1443h302v-643h18l533 643h336l-526 -633l563 -810h-362l-419 604l-143 -169v-435h-302z" />
<glyph unicode="&#x39b;" horiz-adv-x="1474" d="M79 0l481 1443h355l481 -1443h-332l-325 1128h-18l-334 -1128h-308z" />
<glyph unicode="&#x39c;" horiz-adv-x="1879" d="M175 0v1443h356l399 -970h18l400 970h355v-1443h-280v965h-16l-367 -882h-201l-368 882h-16v-965h-280z" />
<glyph unicode="&#x39d;" horiz-adv-x="1573" d="M175 0v1443h252l664 -899h18v899h289v-1443h-250l-666 903h-18v-903h-289z" />
<glyph unicode="&#x39e;" horiz-adv-x="1373" d="M143 0v265h1087v-265h-1087zM143 1178v265h1087v-265h-1087zM230 604v246h913v-246h-913z" />
<glyph unicode="&#x39f;" horiz-adv-x="1610" d="M111 722q0 350 188 554t507 204q320 0 506.5 -204t186.5 -554q0 -351 -186.5 -555t-506.5 -204q-321 0 -508 204t-187 555zM420 722q0 -226 104.5 -360t281.5 -134q176 0 280.5 134t104.5 360t-104.5 359.5t-280.5 133.5t-281 -133.5t-105 -359.5z" />
<glyph unicode="&#x3a0;" horiz-adv-x="1584" d="M175 0v1443h1234v-1443h-302v1185h-630v-1185h-302z" />
<glyph unicode="&#x3a1;" horiz-adv-x="1380" d="M175 0v1443h602q223 0 361.5 -137.5t138.5 -361.5q0 -222 -143 -359t-372 -137h-285v-448h-302zM477 693h219q131 0 202.5 64.5t71.5 185.5q0 122 -71 187t-202 65h-220v-502z" />
<glyph unicode="&#x3a3;" horiz-adv-x="1364" d="M135 0v191l377 532l-356 495v225h1052v-258h-669v-18l292 -415v-36l-315 -440v-18h713v-258h-1094z" />
<glyph unicode="&#x3a4;" horiz-adv-x="1352" d="M92 1185v258h1168v-258h-433v-1185h-302v1185h-433z" />
<glyph unicode="&#x3a5;" horiz-adv-x="1452" d="M72 1443h327l318 -604h18l317 604h327l-502 -912v-531h-302v531z" />
<glyph unicode="&#x3a6;" horiz-adv-x="1865" d="M101 714q0 192 87.5 341.5t244.5 235t361 95.5v153h277v-153q310 -15 501.5 -198.5t191.5 -473.5t-191.5 -474t-501.5 -199v-151h-277v151q-204 10 -361 95.5t-244.5 235.5t-87.5 342zM398 714q0 -190 105.5 -300.5t290.5 -125.5v851q-185 -14 -290.5 -124.5 t-105.5 -300.5zM1071 288q185 15 291 125.5t106 300.5q0 189 -106.5 300t-290.5 125v-851z" />
<glyph unicode="&#x3a7;" horiz-adv-x="1494" d="M88 0l461 727l-458 716h355l301 -505h18l304 505h338l-475 -721l468 -722h-344l-310 489h-18l-314 -489h-326z" />
<glyph unicode="&#x3a8;" horiz-adv-x="1779" d="M148 904v539h287v-543q0 -158 79 -244t232 -97v884h287v-884q312 23 312 341v543h287v-539q0 -271 -161 -432t-438 -166v-306h-287v306q-276 5 -437 166t-161 432z" />
<glyph unicode="&#x2126;" horiz-adv-x="1626" d="M115 0v247h282v18q-132 78 -207 223.5t-75 322.5q0 297 194 483t504 186t504.5 -186t194.5 -483q0 -177 -75 -322.5t-207 -223.5v-18h282v-247h-577v314q139 80 206 196t67 277q0 197 -106.5 312.5t-288.5 115.5t-288.5 -115.5t-106.5 -312.5q0 -161 67 -277t207 -196 v-314h-577z" />
<glyph unicode="&#x3a9;" horiz-adv-x="1626" d="M115 0v247h282v18q-132 78 -207 223.5t-75 322.5q0 297 194 483t504 186t504.5 -186t194.5 -483q0 -177 -75 -322.5t-207 -223.5v-18h282v-247h-577v314q139 80 206 196t67 277q0 197 -106.5 312.5t-288.5 115.5t-288.5 -115.5t-106.5 -312.5q0 -161 67 -277t207 -196 v-314h-577z" />
<glyph unicode="&#x3aa;" horiz-adv-x="652" d="M-63 1731q0 66 43.5 108.5t111.5 42.5t111.5 -42.5t43.5 -108.5t-44 -109t-111 -43t-111 43t-44 109zM175 0v1443h302v-1443h-302zM405 1731q0 66 44 108.5t111 42.5q68 0 112 -42.5t44 -108.5t-44 -109t-112 -43q-67 0 -111 43t-44 109z" />
<glyph unicode="&#x3ab;" horiz-adv-x="1452" d="M72 1443h327l318 -604h18l317 604h327l-502 -912v-531h-302v531zM337 1731q0 66 43.5 108.5t111.5 42.5t111.5 -42.5t43.5 -108.5t-44 -109t-111 -43t-111 43t-44 109zM805 1731q0 66 44 108.5t111 42.5q68 0 112 -42.5t44 -108.5t-44 -109t-112 -43q-67 0 -111 43 t-44 109z" />
<glyph unicode="&#x3ac;" horiz-adv-x="1366" d="M87 553q0 263 120.5 415.5t326.5 152.5q115 0 196.5 -56t121.5 -163h18v201h283v-760q0 -68 22 -95.5t69 -27.5q30 0 52 8v-221q-49 -17 -142 -17q-218 0 -263 174l-9 26h-18q-36 -96 -122.5 -151.5t-200.5 -55.5q-212 0 -333 151.5t-121 418.5zM386 552q0 -150 62 -238 t166 -88q115 0 183 88t68 237q0 147 -65.5 236.5t-174.5 89.5t-174 -87.5t-65 -237.5zM491 1267l83 378h299l-145 -378h-237z" />
<glyph unicode="&#x3ad;" horiz-adv-x="1181" d="M97 297q0 91 49 156.5t142 96.5v18q-87 35 -128 91.5t-41 141.5q0 150 129.5 237.5t346.5 87.5q223 0 357.5 -93t157.5 -270h-285q-37 132 -226 132q-87 0 -140.5 -32.5t-53.5 -88.5q0 -111 187 -111h136v-216h-135q-96 0 -147 -31t-51 -87q0 -58 52 -90.5t145 -32.5 q96 0 161.5 40t86.5 117h298q-24 -173 -178.5 -280.5t-372.5 -107.5q-228 0 -359 87.5t-131 234.5zM476 1267l83 378h299l-145 -378h-237z" />
<glyph unicode="&#x3ae;" horiz-adv-x="1359" d="M88 875v221q58 17 142 17q226 0 277 -188l4 -17h18q39 103 123.5 161t198.5 58q180 0 276 -108.5t96 -308.5v-1076h-291v1007q0 235 -198 235q-96 0 -151.5 -64t-55.5 -179v-633h-291v760q0 65 -23 94t-70 29q-28 0 -55 -8zM500 1267l83 378h299l-145 -378h-237z" />
<glyph unicode="&#x3af;" horiz-adv-x="704" d="M146 299v804h291v-736q0 -72 33 -106t107 -34q33 0 70 4v-222q-67 -13 -135 -13q-198 0 -282 70.5t-84 232.5zM165 1267l83 378h299l-145 -378h-237z" />
<glyph unicode="&#x3b0;" horiz-adv-x="1210" d="M68 1408q0 62 41 102t104 40t104 -40t41 -102q0 -61 -41 -101t-104 -40t-104 40t-41 101zM126 454v649h276v-612q0 -134 50.5 -198t155.5 -64q213 0 213 340q0 159 -23 280t-78 254h281q48 -105 75 -238t27 -268q0 -312 -130.5 -466.5t-367.5 -154.5q-233 0 -356 121 t-123 357zM457 1267l25 378h275l-86 -378h-214zM826 1408q0 62 41 102t104 40t104 -40t41 -102q0 -61 -41 -101t-104 -40t-104 40t-41 101z" />
<glyph unicode="&#x3b1;" horiz-adv-x="1366" d="M87 553q0 263 120.5 415.5t326.5 152.5q115 0 196.5 -56t121.5 -163h18v201h283v-760q0 -68 22 -95.5t69 -27.5q30 0 52 8v-221q-49 -17 -142 -17q-218 0 -263 174l-9 26h-18q-36 -96 -122.5 -151.5t-200.5 -55.5q-212 0 -333 151.5t-121 418.5zM386 552q0 -150 62 -238 t166 -88q115 0 183 88t68 237q0 147 -65.5 236.5t-174.5 89.5t-174 -87.5t-65 -237.5z" />
<glyph unicode="&#x3b2;" horiz-adv-x="1314" d="M146 -366v1365q0 269 127.5 409t368.5 140q214 0 342 -106.5t128 -289.5q0 -103 -54 -186.5t-146 -123.5v-18q310 -76 310 -401q0 -200 -120.5 -320t-322.5 -120q-113 0 -199.5 50t-124.5 136h-18v-535h-291zM436 536q0 -151 70 -230.5t194 -79.5q100 0 162 63t62 164 q0 119 -75 181.5t-217 62.5h-72v222h68q104 0 161 51t57 142q0 92 -54 145t-146 53q-210 0 -210 -269v-505z" />
<glyph unicode="&#x3b3;" horiz-adv-x="1193" d="M46 1103h304l230 -836h18q110 168 157.5 315t47.5 318q0 104 -23 203h285q24 -98 24 -202q0 -210 -92 -439.5t-295 -499.5v-323h-286v299z" />
<glyph unicode="&#x3b4;" horiz-adv-x="1236" d="M79 496q0 183 105 313.5t273 168.5v19q-99 51 -144.5 115t-45.5 150q0 133 110.5 209.5t293.5 76.5q222 0 375 -82v-220q-176 81 -338 81q-65 0 -101 -23.5t-36 -64.5q0 -39 32 -68.5t121 -72.5q228 -127 326.5 -263t98.5 -333q0 -234 -146 -380t-390 -146 q-247 0 -390.5 140t-143.5 380zM371 504q0 -144 66 -227t176 -83q108 0 172.5 83.5t64.5 226.5q0 142 -66.5 228t-173.5 86q-105 0 -172 -84.5t-67 -229.5z" />
<glyph unicode="&#x3b5;" horiz-adv-x="1181" d="M97 298q0 91 49 156.5t142 96.5v18q-87 35 -128 91.5t-41 141.5q0 150 129.5 237.5t346.5 87.5q223 0 357.5 -93t157.5 -270h-285q-37 132 -226 132q-87 0 -140.5 -32.5t-53.5 -88.5q0 -111 187 -111h136v-216h-135q-96 0 -147 -31t-51 -87q0 -58 52 -90.5t145 -32.5 q96 0 161.5 40t86.5 117h298q-24 -173 -178.5 -280.5t-372.5 -107.5q-228 0 -359 87.5t-131 234.5z" />
<glyph unicode="&#x3b6;" horiz-adv-x="1013" d="M84 568q0 177 111 346.5t340 346.5v18h-365v245h799v-200q-326 -232 -458.5 -395.5t-132.5 -327.5q0 -104 59 -165.5t224 -120.5q198 -73 268 -145t70 -203q0 -148 -134 -335l-217 86q77 114 77 186q0 59 -38.5 91.5t-158.5 73.5q-242 84 -343 199.5t-101 299.5z" />
<glyph unicode="&#x3b7;" horiz-adv-x="1359" d="M88 875v221q58 17 142 17q226 0 277 -188l4 -17h18q39 103 123.5 161t198.5 58q180 0 276 -108.5t96 -308.5v-1076h-291v1007q0 235 -198 235q-96 0 -151.5 -64t-55.5 -179v-633h-291v760q0 65 -23 94t-70 29q-28 0 -55 -8z" />
<glyph unicode="&#x3b8;" horiz-adv-x="1258" d="M87 766q0 384 138.5 583t403.5 199t403.5 -198.5t138.5 -584.5q0 -389 -137.5 -589t-404.5 -200q-268 0 -405 200t-137 590zM379 650q4 -235 65 -342.5t185 -107.5t185 107.5t65 342.5h-500zM379 883h500q-6 228 -67.5 334.5t-182.5 106.5t-182.5 -107t-67.5 -334z" />
<glyph unicode="&#x3b9;" horiz-adv-x="704" d="M146 299v804h291v-736q0 -72 33 -106t107 -34q33 0 70 4v-222q-67 -13 -135 -13q-198 0 -282 70.5t-84 232.5z" />
<glyph unicode="&#x3ba;" horiz-adv-x="1269" d="M146 0v1103h277v-469h18l256 293q91 106 160 146t160 40q68 0 124 -17v-221q-26 8 -64 8q-49 0 -85 -21t-91 -81l-133 -152l412 -629h-309l-291 445l-157 -165v-280h-277z" />
<glyph unicode="&#x3bb;" horiz-adv-x="1224" d="M25 0l440 1039l-32 85q-47 119 -89.5 156t-133.5 37q-20 0 -62 -7v220q67 18 113 18q110 0 182 -35t132 -123.5t120 -254.5l290 -799q25 -68 53.5 -92t84.5 -24q12 0 49 8v-221q-53 -17 -132 -17q-123 0 -187.5 47.5t-104.5 168.5l-157 461h-18l-257 -667h-291z" />
<glyph unicode="&#x3bd;" horiz-adv-x="1193" d="M46 1103h304l230 -836h18q110 169 157.5 316t47.5 318q0 98 -23 202h285q24 -99 24 -200q0 -205 -85.5 -424.5t-274.5 -478.5h-331z" />
<glyph unicode="&#x3be;" horiz-adv-x="1050" d="M82 467q0 228 262 297v17q-104 43 -152 102.5t-48 149.5q0 89 54 147.5t152 80.5v18h-202v245h814v-210l-124 -16q-229 -29 -320.5 -78.5t-91.5 -137.5q0 -76 64 -110.5t214 -34.5h181v-234h-204q-153 0 -229 -45t-76 -128q0 -45 19.5 -75t83 -64.5t188.5 -78.5 q193 -70 261.5 -142t68.5 -199q0 -83 -31.5 -161t-102.5 -177l-217 86q43 66 60 105.5t17 80.5q0 59 -39.5 91.5t-174.5 79.5q-238 83 -332.5 171t-94.5 220z" />
<glyph unicode="&#x3bf;" horiz-adv-x="1244" d="M87 552q0 267 145 421t390 154q247 0 391.5 -153.5t144.5 -421.5q0 -270 -143.5 -423t-392.5 -153q-248 0 -391.5 153t-143.5 423zM386 552q0 -160 62.5 -249t173.5 -89t174 89t63 249q0 158 -64 247.5t-173 89.5t-172.5 -89.5t-63.5 -247.5z" />
<glyph unicode="&#x3c0;" horiz-adv-x="1509" d="M83 859v244h1320v-244h-224v-517q0 -70 23.5 -96t82.5 -26q31 0 58 8v-221q-59 -17 -133 -17q-153 0 -228.5 74t-75.5 228v567h-322v-859h-273v859h-228z" />
<glyph unicode="&#x3c1;" horiz-adv-x="1294" d="M131 -366v903q0 277 143.5 433.5t388.5 156.5q261 0 402.5 -155t141.5 -414q0 -270 -122.5 -422.5t-332.5 -152.5q-108 0 -189.5 49t-122.5 137h-18v-535h-291zM414 547q0 -148 67.5 -234.5t177.5 -86.5q117 0 183 88t66 249q0 159 -65.5 242.5t-181.5 83.5t-181.5 -89 t-65.5 -253z" />
<glyph unicode="&#x3c2;" horiz-adv-x="1173" d="M87 596q0 243 141 387t374 144q214 0 342 -108t148 -305h-272q-35 174 -212 174q-101 0 -164 -73.5t-63 -200.5q0 -119 56 -178t229 -121q197 -73 266.5 -144.5t69.5 -203.5q0 -149 -134 -334l-217 86q77 114 77 185q0 58 -38.5 90.5t-159.5 74.5q-249 89 -346 203 t-97 324z" />
<glyph unicode="&#x3c3;" horiz-adv-x="1385" d="M87 530q0 259 157.5 416t418.5 157h636v-244h-267v-19q53 -50 83 -134t30 -182q0 -249 -144.5 -398.5t-384.5 -149.5q-243 0 -386 149t-143 405zM386 537q0 -156 64 -241.5t172 -85.5q111 0 175.5 87t64.5 240q0 143 -67 230.5t-168 87.5q-109 0 -175 -87t-66 -231z" />
<glyph unicode="&#x3c4;" horiz-adv-x="1127" d="M53 859v244h978v-244h-358v-492q0 -72 35 -106t108 -34q58 0 87 4v-222q-67 -13 -147 -13q-200 0 -287 70.5t-87 232.5v560h-329z" />
<glyph unicode="&#x3c5;" horiz-adv-x="1210" d="M126 454v649h276v-612q0 -134 50.5 -198t155.5 -64q213 0 213 340q0 159 -23 280t-78 254h281q48 -105 75 -238t27 -268q0 -312 -130.5 -466.5t-367.5 -154.5q-233 0 -356 121t-123 357z" />
<glyph unicode="&#x3c6;" horiz-adv-x="1597" d="M82 552q0 134 45 241.5t124.5 178.5t185 111t229.5 46v236h266v-236q124 -6 229.5 -46t185 -111t124.5 -179t45 -241q0 -256 -158.5 -409.5t-425.5 -166.5v-342h-266v342q-267 13 -425.5 166.5t-158.5 409.5zM362 552q0 -152 78.5 -240.5t230.5 -105.5v692 q-147 -16 -228 -102.5t-81 -243.5zM927 206q152 17 230.5 105.5t78.5 240.5q0 157 -81.5 243.5t-227.5 102.5v-692z" />
<glyph unicode="&#x3c7;" horiz-adv-x="1219" d="M56 875v221q57 17 119 17q111 0 178 -44t124 -152l148 -280h18l244 466h283l-405 -739l210 -395q33 -63 64 -88.5t84 -25.5q26 0 49 8v-221q-56 -18 -132 -18q-102 0 -166 39.5t-112 135.5l-154 300h-18l-243 -465h-282l402 731l-213 401q-35 68 -67.5 92.5t-83.5 24.5 q-21 0 -47 -8z" />
<glyph unicode="&#x3c8;" horiz-adv-x="1560" d="M126 450v653h276v-588q0 -155 55 -219.5t181 -66.5v1136h276v-1134q123 2 190 89.5t67 249.5q0 292 -101 533h281q47 -93 74.5 -231.5t27.5 -283.5q0 -292 -140.5 -450t-398.5 -162v-342h-276v342q-249 4 -380.5 127.5t-131.5 346.5z" />
<glyph unicode="&#x3c9;" horiz-adv-x="1667" d="M107 513q0 171 45.5 325.5t128.5 264.5h293q-94 -141 -138.5 -283.5t-44.5 -304.5q0 -146 39 -216t121 -70q65 0 107.5 55.5t42.5 148.5v355h266v-355q0 -92 42.5 -148t108.5 -56q159 0 159 286q0 313 -183 588h292q83 -110 129 -264t46 -326q0 -257 -105.5 -397 t-300.5 -140q-218 0 -312 224h-18q-94 -224 -311 -224q-194 0 -300.5 139t-106.5 398z" />
<glyph unicode="&#x3ca;" horiz-adv-x="704" d="M-107 1403q0 66 43.5 108.5t111.5 42.5t111.5 -42.5t43.5 -108.5t-44 -109t-111 -43t-111 43t-44 109zM146 299v804h291v-736q0 -72 33 -106t107 -34q33 0 70 4v-222q-67 -13 -135 -13q-198 0 -282 70.5t-84 232.5zM361 1403q0 66 44 108.5t111 42.5q68 0 112 -42.5 t44 -108.5t-44 -109t-112 -43q-67 0 -111 43t-44 109z" />
<glyph unicode="&#x3cb;" horiz-adv-x="1210" d="M126 454v649h276v-612q0 -134 50.5 -198t155.5 -64q213 0 213 340q0 159 -23 280t-78 254h281q48 -105 75 -238t27 -268q0 -312 -130.5 -466.5t-367.5 -154.5q-233 0 -356 121t-123 357zM191 1403q0 66 43.5 108.5t111.5 42.5t111.5 -42.5t43.5 -108.5t-44 -109t-111 -43 t-111 43t-44 109zM659 1403q0 66 44 108.5t111 42.5q68 0 112 -42.5t44 -108.5t-44 -109t-112 -43q-67 0 -111 43t-44 109z" />
<glyph unicode="&#x3cc;" horiz-adv-x="1244" d="M87 552q0 267 145 421t390 154q247 0 391.5 -153.5t144.5 -421.5q0 -270 -143.5 -423t-392.5 -153q-248 0 -391.5 153t-143.5 423zM386 552q0 -160 62.5 -249t173.5 -89t174 89t63 249q0 158 -64 247.5t-173 89.5t-172.5 -89.5t-63.5 -247.5zM484 1267l83 378h299 l-145 -378h-237z" />
<glyph unicode="&#x3cd;" horiz-adv-x="1210" d="M126 454v649h276v-612q0 -134 50.5 -198t155.5 -64q213 0 213 340q0 159 -23 280t-78 254h281q48 -105 75 -238t27 -268q0 -312 -130.5 -466.5t-367.5 -154.5q-233 0 -356 121t-123 357zM443 1267l83 378h299l-145 -378h-237z" />
<glyph unicode="&#x3ce;" horiz-adv-x="1667" d="M107 513q0 171 45.5 325.5t128.5 264.5h293q-94 -141 -138.5 -283.5t-44.5 -304.5q0 -146 39 -216t121 -70q65 0 107.5 55.5t42.5 148.5v355h266v-355q0 -92 42.5 -148t108.5 -56q159 0 159 286q0 313 -183 588h292q83 -110 129 -264t46 -326q0 -257 -105.5 -397 t-300.5 -140q-218 0 -312 224h-18q-94 -224 -311 -224q-194 0 -300.5 139t-106.5 398zM707 1267l83 378h299l-145 -378h-237z" />
<glyph unicode="&#x400;" horiz-adv-x="1294" d="M185 0v1443h956v-258h-654v-337h617v-239h-617v-351h654v-258h-956zM222 1908h315l276 -318h-277z" />
<glyph unicode="&#x401;" horiz-adv-x="1294" d="M185 0v1443h956v-258h-654v-337h617v-239h-617v-351h654v-258h-956zM274 1731q0 66 43.5 108.5t111.5 42.5t111.5 -42.5t43.5 -108.5t-44 -109t-111 -43t-111 43t-44 109zM742 1731q0 66 44 108.5t111 42.5q68 0 112 -42.5t44 -108.5t-44 -109t-112 -43q-67 0 -111 43 t-44 109z" />
<glyph unicode="&#x402;" horiz-adv-x="1802" d="M102 1185v258h1168v-258h-433v-398h17q129 119 339 119q234 0 367 -133.5t133 -344.5q0 -227 -137 -363.5t-373 -136.5q-95 0 -146 17v244q39 -12 119 -12q109 0 171.5 61t62.5 170q0 107 -69.5 169.5t-187.5 62.5q-97 0 -178.5 -44t-117.5 -114v-482h-302v1185h-433z " />
<glyph unicode="&#x403;" horiz-adv-x="1225" d="M185 0v1443h930v-259h-627v-1184h-303zM477 1573l277 318h315l-314 -318h-278z" />
<glyph unicode="&#x404;" horiz-adv-x="1558" d="M121 722q0 353 184 555.5t501 202.5q260 0 438 -150t195 -380h-294q-22 119 -114.5 191.5t-224.5 72.5q-153 0 -253 -97.5t-117 -265.5h567v-241h-570q14 -173 115.5 -277t258.5 -104q133 0 225 68.5t114 181.5h294q-19 -228 -194 -372t-439 -144q-318 0 -502 203 t-184 556z" />
<glyph unicode="&#x405;" horiz-adv-x="1403" d="M120 401h292q10 -88 92 -140t210 -52q118 0 193 51.5t75 133.5q0 69 -58 112t-191 71l-188 40q-392 82 -392 412q0 204 151 327.5t401 123.5q238 0 391.5 -121t160.5 -314h-284q-11 86 -84 138t-182 52q-114 0 -182.5 -49t-68.5 -131q0 -67 55.5 -108t182.5 -68l174 -37 q217 -46 316 -144t99 -266q0 -218 -156.5 -343.5t-428.5 -125.5q-258 0 -414 118t-164 320z" />
<glyph unicode="&#x406;" horiz-adv-x="672" d="M185 0v1443h302v-1443h-302z" />
<glyph unicode="&#x407;" horiz-adv-x="672" d="M-53 1731q0 66 43.5 108.5t111.5 42.5t111.5 -42.5t43.5 -108.5t-44 -109t-111 -43t-111 43t-44 109zM185 0v1443h302v-1443h-302zM415 1731q0 66 44 108.5t111 42.5q68 0 112 -42.5t44 -108.5t-44 -109t-112 -43q-67 0 -111 43t-44 109z" />
<glyph unicode="&#x408;" horiz-adv-x="1251" d="M86 424h292q2 -87 54.5 -139t139.5 -52q93 0 142.5 55.5t49.5 161.5v993h302v-995q0 -232 -129.5 -358.5t-360.5 -126.5q-223 0 -356.5 125t-133.5 336z" />
<glyph unicode="&#x409;" horiz-adv-x="2256" d="M60 0v275q37 -8 67 -8q43 0 75.5 16.5t52.5 44t33.5 71t20 89t9.5 106.5l43 849h993v-479h279q229 0 372 -133t143 -349q0 -217 -138 -349.5t-361 -132.5h-597v1185h-421l-35 -612q-6 -110 -23 -198t-49.5 -162t-80.5 -123t-117 -76t-157 -27q-68 0 -109 13zM1354 249 h215q129 0 200 60.5t71 173.5q0 114 -71.5 174.5t-201.5 60.5h-213v-469z" />
<glyph unicode="&#x40a;" horiz-adv-x="2317" d="M185 0v1443h302v-571h620v571h302v-571h280q229 0 372 -118.5t143 -311.5q0 -199 -138.5 -320.5t-361.5 -121.5h-597v620h-620v-620h-302zM1409 249h230q124 0 192 50t68 143q0 89 -68.5 136.5t-192.5 47.5h-229v-377z" />
<glyph unicode="&#x40b;" horiz-adv-x="1829" d="M102 1185v258h1168v-258h-433v-397h17q128 118 330 118q161 0 274 -69t166.5 -185t53.5 -267v-385h-302v366q0 126 -64 200t-189 74q-62 0 -113.5 -16t-85 -43t-53.5 -50t-34 -49v-482h-302v1185h-433z" />
<glyph unicode="&#x40c;" horiz-adv-x="1473" d="M190 0v1443h302v-613h46l505 613h336l-586 -706l626 -737h-365l-514 591h-48v-591h-302zM572 1573l277 318h315l-314 -318h-278z" />
<glyph unicode="&#x40d;" horiz-adv-x="1629" d="M185 0v1443h301v-957h18l649 957h291v-1443h-301v956h-18l-649 -956h-291zM392 1908h315l276 -318h-277z" />
<glyph unicode="&#x40e;" horiz-adv-x="1420" d="M77 1443h321l310 -789h18l299 789h318l-442 -1030q-47 -109 -91.5 -182t-104.5 -131t-138 -85.5t-178 -27.5q-82 0 -124 14v255q27 -9 88 -9q69 0 118 23t85 78zM326 1915h218q2 -72 46 -114.5t113 -42.5q70 0 114.5 42.5t46.5 114.5h218q0 -147 -103.5 -234.5 t-275.5 -87.5q-171 0 -274 87.5t-103 234.5z" />
<glyph unicode="&#x40f;" horiz-adv-x="1609" d="M185 0v1443h302v-1185h635v1185h302v-1443h-478v-285h-283v285h-478z" />
<glyph unicode="&#x410;" horiz-adv-x="1520" d="M82 0l501 1443h355l501 -1443h-327l-109 344h-507l-111 -344h-303zM561 577h378l-179 566h-18z" />
<glyph unicode="&#x411;" horiz-adv-x="1392" d="M185 0v1443h959v-258h-657v-281h280q227 0 368.5 -123.5t141.5 -323.5q0 -205 -138.5 -331t-361.5 -126h-592zM487 249h215q127 0 196.5 53.5t69.5 154.5q0 102 -69.5 156t-197.5 54h-214v-418z" />
<glyph unicode="&#x412;" horiz-adv-x="1440" d="M185 0v1443h631q209 0 328 -96t119 -264q0 -115 -75 -203t-186 -105v-18q143 -11 236.5 -108t93.5 -236q0 -190 -134 -301.5t-365 -111.5h-648zM487 231h269q130 0 199 53.5t69 154.5q0 99 -70.5 150.5t-204.5 51.5h-262v-410zM487 845h227q122 0 187 48t65 135 t-59.5 135.5t-167.5 48.5h-252v-367z" />
<glyph unicode="&#x413;" horiz-adv-x="1225" d="M185 0v1443h930v-259h-627v-1184h-303z" />
<glyph unicode="&#x414;" horiz-adv-x="1606" d="M40 258h101q72 51 102 137t40 242l50 806h1023v-1185h180v-543h-273v285h-949v-285h-274v543zM470 258h584v928h-455l-38 -574q-8 -125 -28 -205t-63 -131v-18z" />
<glyph unicode="&#x415;" horiz-adv-x="1294" d="M185 0v1443h956v-258h-654v-337h617v-239h-617v-351h654v-258h-956z" />
<glyph unicode="&#x416;" horiz-adv-x="2160" d="M62 0l571 728l-538 715h331l455 -615h49v615h297v-615h48l455 615h328l-534 -709l575 -734h-358l-464 593h-50v-593h-297v593h-50l-464 -593h-354z" />
<glyph unicode="&#x417;" horiz-adv-x="1363" d="M107 413h289q7 -91 83 -144.5t200 -53.5q119 0 191.5 57.5t72.5 149.5q0 88 -71 138.5t-199 50.5h-194v242h191q107 0 172.5 54t65.5 142q0 87 -63.5 138t-175.5 51t-181 -55t-74 -148h-279q8 205 153.5 325t388.5 120q231 0 375.5 -108.5t144.5 -283.5 q0 -121 -74.5 -212t-192.5 -116v-18q145 -14 234 -106.5t89 -236.5q0 -191 -164 -313.5t-414 -122.5q-248 0 -403 123t-165 327z" />
<glyph unicode="&#x418;" horiz-adv-x="1629" d="M185 0v1443h301v-957h18l649 957h291v-1443h-301v956h-18l-649 -956h-291z" />
<glyph unicode="&#x419;" horiz-adv-x="1629" d="M185 0v1443h301v-957h18l649 957h291v-1443h-301v956h-18l-649 -956h-291zM437 1915h218q2 -72 46 -114.5t113 -42.5q70 0 114.5 42.5t46.5 114.5h218q0 -147 -103.5 -234.5t-275.5 -87.5q-171 0 -274 87.5t-103 234.5z" />
<glyph unicode="&#x41a;" horiz-adv-x="1475" d="M185 0v1443h302v-613h46l505 613h336l-586 -706l626 -737h-365l-514 591h-48v-591h-302z" />
<glyph unicode="&#x41b;" horiz-adv-x="1529" d="M50 0v275q37 -8 67 -8q43 0 75.5 16.5t52.5 44t33.5 71t20 89t9.5 106.5l43 849h993v-1443h-302v1185h-421l-35 -612q-6 -110 -23 -198t-49.5 -162t-80.5 -123t-117 -76t-157 -27q-68 0 -109 13z" />
<glyph unicode="&#x41c;" horiz-adv-x="1898" d="M185 0v1443h356l399 -970h18l400 970h355v-1443h-280v965h-16l-367 -882h-201l-368 882h-16v-965h-280z" />
<glyph unicode="&#x41d;" horiz-adv-x="1624" d="M185 0v1443h302v-582h650v582h302v-1443h-302v603h-650v-603h-302z" />
<glyph unicode="&#x41e;" horiz-adv-x="1630" d="M121 722q0 350 188 554t507 204q320 0 506.5 -204t186.5 -554q0 -351 -186.5 -555t-506.5 -204q-321 0 -508 204t-187 555zM430 722q0 -226 104.5 -360t281.5 -134q176 0 280.5 134t104.5 360t-104.5 359.5t-280.5 133.5t-281 -133.5t-105 -359.5z" />
<glyph unicode="&#x41f;" horiz-adv-x="1609" d="M185 0v1443h1239v-1443h-301v1184h-635v-1184h-303z" />
<glyph unicode="&#x420;" horiz-adv-x="1400" d="M185 0v1443h602q223 0 361.5 -137.5t138.5 -361.5q0 -222 -143 -359t-372 -137h-285v-448h-302zM487 693h219q131 0 202.5 64.5t71.5 185.5q0 122 -71 187t-202 65h-220v-502z" />
<glyph unicode="&#x421;" horiz-adv-x="1538" d="M121 722q0 352 181.5 555t495.5 203q256 0 432.5 -152.5t193.5 -388.5h-294q-22 125 -112.5 200t-219.5 75q-170 0 -269 -132t-99 -360t99 -360.5t270 -132.5q130 0 220 71t112 190h294q-19 -234 -192.5 -380.5t-434.5 -146.5q-314 0 -495.5 203.5t-181.5 555.5z" />
<glyph unicode="&#x422;" horiz-adv-x="1372" d="M102 1185v258h1168v-258h-433v-1185h-302v1185h-433z" />
<glyph unicode="&#x423;" horiz-adv-x="1420" d="M77 1443h321l310 -789h18l299 789h318l-442 -1030q-47 -109 -91.5 -182t-104.5 -131t-138 -85.5t-178 -27.5q-82 0 -124 14v255q27 -9 88 -9q69 0 118 23t85 78z" />
<glyph unicode="&#x424;" horiz-adv-x="1863" d="M119 724q0 273 181 431.5t482 168.5v150h299v-150q302 -9 482.5 -168t180.5 -433q0 -273 -181 -431t-482 -169v-154h-299v154q-302 10 -482.5 168.5t-180.5 432.5zM424 724q0 -156 98 -249t264 -101v700q-165 -8 -263.5 -101t-98.5 -249zM1078 374q164 8 262.5 100.5 t98.5 248.5q0 157 -98 250t-263 101v-700z" />
<glyph unicode="&#x425;" horiz-adv-x="1514" d="M98 0l461 727l-458 716h355l301 -505h18l304 505h338l-475 -721l468 -722h-344l-310 489h-18l-314 -489h-326z" />
<glyph unicode="&#x426;" horiz-adv-x="1674" d="M185 0v1443h302v-1185h635v1185h302v-1185h180v-543h-273v285h-1146z" />
<glyph unicode="&#x427;" horiz-adv-x="1524" d="M140 1029v414h302v-388q0 -139 78 -215.5t223 -76.5q95 0 171 30t123 77v573h302v-1443h-302v591h-18q-129 -97 -336 -97q-252 0 -397.5 147.5t-145.5 387.5z" />
<glyph unicode="&#x428;" horiz-adv-x="2096" d="M185 0v1443h302v-1185h410v1185h302v-1185h410v1185h302v-1443h-1726z" />
<glyph unicode="&#x429;" horiz-adv-x="2161" d="M185 0v1443h302v-1185h410v1185h302v-1185h410v1185h302v-1185h180v-543h-273v285h-1633z" />
<glyph unicode="&#x42a;" horiz-adv-x="1649" d="M109 1186v257h637v-479h280q229 0 372 -133t143 -349q0 -217 -138.5 -349.5t-361.5 -132.5h-597v1186h-335zM746 249h215q130 0 200.5 60.5t70.5 173.5q0 114 -71 174.5t-201 60.5h-214v-469z" />
<glyph unicode="&#x42b;" horiz-adv-x="1932" d="M185 0v1443h302v-479h280q229 0 372 -133t143 -349q0 -217 -138.5 -349.5t-361.5 -132.5h-597zM487 249h215q130 0 200.5 60.5t70.5 173.5q0 114 -71 174.5t-201 60.5h-214v-469zM1445 0v1443h302v-1443h-302z" />
<glyph unicode="&#x42c;" horiz-adv-x="1395" d="M185 0v1443h302v-479h280q229 0 372 -133t143 -349q0 -217 -138.5 -349.5t-361.5 -132.5h-597zM487 249h215q130 0 200.5 60.5t70.5 173.5q0 114 -71 174.5t-201 60.5h-214v-469z" />
</font>
</defs>
</svg>
