<?xml version="1.0" encoding="UTF-8"?>
<svg width="54px" height="54px" viewBox="0 0 54 54" version="1.1" xmlns="http://www.w3.org/2000/svg" xmlns:xlink="http://www.w3.org/1999/xlink">
    <!-- Generator: sketchtool 50.2 (55047) - http://www.bohemiancoding.com/sketch -->
    <title>6328768B-DD43-4655-82DA-459384F704D8</title>
    <desc>Created with sketchtool.</desc>
    <defs></defs>
    <g id="In-Work" stroke="none" stroke-width="1" fill="none" fill-rule="evenodd">
        <g id="B-3" transform="translate(-840.000000, -614.000000)" fill="#222829">
            <g id="Group-11" transform="translate(840.000000, 265.000000)">
                <g id="Group-10" transform="translate(0.000000, 349.000000)">
                    <g id="Group">
                        <polygon id="Fill-2" points="19.40625 48.09375 21.09375 48.09375 21.09375 41.34375 19.40625 41.34375"></polygon>
                        <polygon id="Fill-3" points="19.40625 27.84375 21.09375 27.84375 21.09375 21.09375 19.40625 21.09375"></polygon>
                        <polygon id="Fill-4" points="21.09375 7.59375 19.40625 7.59375 19.40625 3.375 21.09375 3.375 21.09375 1.6875 14.34375 1.6875 14.34375 3.375 16.03125 3.375 16.03125 7.59375 14.34375 7.59375 14.34375 5.0625 12.65625 5.0625 12.65625 0 22.78125 0 22.78125 5.0625 21.09375 5.0625"></polygon>
                        <polygon id="Fill-5" points="14.34375 27.84375 16.03125 27.84375 16.03125 21.09375 14.34375 21.09375"></polygon>
                        <polygon id="Fill-6" points="14.34375 48.09375 16.03125 48.09375 16.03125 41.34375 14.34375 41.34375"></polygon>
                        <polygon id="Fill-7" points="47.25 42.1875 13.1506875 42.1875 10.96875 40.0055625 10.96875 27 24.46875 27 24.46875 32.3114063 35.721 36.3301875 35.154 37.9198125 22.78125 33.5010937 22.78125 28.6875 12.65625 28.6875 12.65625 39.3069375 13.8493125 40.5 45.5625 40.5 45.5625 37.96875 47.25 37.96875"></polygon>
                        <polygon id="Fill-8" points="24.46875 21.9375 10.96875 21.9375 10.96875 8.9319375 13.1506875 6.75 47.25 6.75 47.25 10.96875 45.5625 10.96875 45.5625 8.4375 13.8493125 8.4375 12.65625 9.6305625 12.65625 20.25 22.78125 20.25 22.78125 15.4364063 35.154 11.0176875 35.721 12.6073125 24.46875 16.6260937"></polygon>
                        <path d="M38.8125,13.5 L47.25,13.5 L47.25,11.8125 L38.8125,11.8125 L38.8125,13.5 Z M37.125,15.1875 L48.9375,15.1875 L48.9375,10.125 L37.125,10.125 L37.125,15.1875 Z" id="Fill-9"></path>
                        <path d="M38.8125,37.125 L47.25,37.125 L47.25,35.4375 L38.8125,35.4375 L38.8125,37.125 Z M37.125,38.8125 L48.9375,38.8125 L48.9375,33.75 L37.125,33.75 L37.125,38.8125 Z" id="Fill-10"></path>
                        <path d="M2.53125,50.625 C2.0655,50.625 1.6875,51.0038438 1.6875,51.46875 C1.6875,51.9336562 2.0655,52.3125 2.53125,52.3125 C2.997,52.3125 3.375,51.9336562 3.375,51.46875 C3.375,51.0038438 2.997,50.625 2.53125,50.625 M2.53125,54 C1.1356875,54 0,52.8643125 0,51.46875 C0,50.0731875 1.1356875,48.9375 2.53125,48.9375 C3.9268125,48.9375 5.0625,50.0731875 5.0625,51.46875 C5.0625,52.8643125 3.9268125,54 2.53125,54" id="Fill-11"></path>
                        <path d="M32.90625,50.625 C32.4405,50.625 32.0625,51.0038438 32.0625,51.46875 C32.0625,51.9336562 32.4405,52.3125 32.90625,52.3125 C33.372,52.3125 33.75,51.9336562 33.75,51.46875 C33.75,51.0038438 33.372,50.625 32.90625,50.625 M32.90625,54 C31.5106875,54 30.375,52.8643125 30.375,51.46875 C30.375,50.0731875 31.5106875,48.9375 32.90625,48.9375 C34.3018125,48.9375 35.4375,50.0731875 35.4375,51.46875 C35.4375,52.8643125 34.3018125,54 32.90625,54" id="Fill-13"></path>
                        <polygon id="Fill-15" points="12.65625 25.3125 22.78125 25.3125 22.78125 23.625 12.65625 23.625"></polygon>
                        <polygon id="Fill-17" points="24.46875 54 22.78125 54 22.78125 48.9375 12.65625 48.9375 12.65625 54 10.96875 54 10.96875 47.25 24.46875 47.25"></polygon>
                        <polygon id="Fill-18" points="16.875 32.0625 18.5625 32.0625 18.5625 30.375 16.875 30.375"></polygon>
                        <polygon id="Fill-19" points="16.875 35.4375 18.5625 35.4375 18.5625 33.75 16.875 33.75"></polygon>
                        <polygon id="Fill-20" points="16.875 15.1875 18.5625 15.1875 18.5625 13.5 16.875 13.5"></polygon>
                        <polygon id="Fill-21" points="16.875 18.5625 18.5625 18.5625 18.5625 16.875 16.875 16.875"></polygon>
                        <polygon id="Fill-22" points="16.03125 52.3125 31.21875 52.3125 31.21875 50.625 16.03125 50.625"></polygon>
                        <polygon id="Fill-23" points="4.21875 52.3125 14.34375 52.3125 14.34375 50.625 4.21875 50.625"></polygon>
                        <polygon id="Fill-24" points="12.65625 45.5625 22.78125 45.5625 22.78125 43.875 12.65625 43.875"></polygon>
                        <polygon id="Fill-25" points="15.1875 5.0625 17.71875 5.0625 17.71875 3.375 15.1875 3.375"></polygon>
                        <path d="M50.3440313,32.6442656 L49.2184688,31.3870781 C51.1844063,29.6270156 52.3125,27.1058906 52.3125,24.4691719 C52.3125,19.3509844 48.1485938,15.1879219 43.03125,15.1879219 L43.03125,13.5004219 C49.07925,13.5004219 54,18.4203281 54,24.4691719 C54,27.5851406 52.6677188,30.5652656 50.3440313,32.6442656" id="Fill-28"></path>
                        <path d="M43.03125,35.4375 C36.98325,35.4375 32.0625,30.51675 32.0625,24.46875 C32.0625,21.3527812 33.3947812,18.3726562 35.7184687,16.2936562 L36.8440313,17.5508437 C34.8780937,19.3100625 33.75,21.8320312 33.75,24.46875 C33.75,29.5860937 37.9139062,33.75 43.03125,33.75 L43.03125,35.4375 Z" id="Fill-29"></path>
                    </g>
                    <g id="Group-2" transform="translate(36.281250, 18.562500)">
                        <g id="Group-5">
                            <polygon id="Fill-29" points="0 6.75 1.6875 6.75 1.6875 5.0625 0 5.0625"></polygon>
                            <polygon id="Fill-30" points="11.8125 6.75 13.5 6.75 13.5 5.0625 11.8125 5.0625"></polygon>
                            <polygon id="Fill-31" points="9.28125 10.125 4.21875 10.125 4.21875 8.4375 7.59375 8.4375 7.59375 7.2714375 4.21875 5.5839375 4.21875 1.6875 9.28125 1.6875 9.28125 3.375 5.90625 3.375 5.90625 4.5410625 9.28125 6.2285625"></polygon>
                            <polygon id="Fill-32" points="5.90625 11.8125 7.59375 11.8125 7.59375 9.28125 5.90625 9.28125"></polygon>
                            <polygon id="Fill-33" points="5.90625 2.53125 7.59375 2.53125 7.59375 0 5.90625 0"></polygon>
                        </g>
                    </g>
                </g>
            </g>
        </g>
    </g>
</svg>