<?xml version="1.0" encoding="UTF-8"?>
<svg width="54px" height="54px" viewBox="0 0 54 54" version="1.1" xmlns="http://www.w3.org/2000/svg" xmlns:xlink="http://www.w3.org/1999/xlink">
    <!-- Generator: sketchtool 50.2 (55047) - http://www.bohemiancoding.com/sketch -->
    <title>53E7F3FF-B459-4BB1-8173-9DE9BEA5F711</title>
    <desc>Created with sketchtool.</desc>
    <defs>
        <polygon id="path-1" points="0 54 54 54 54 0 0 0"></polygon>
    </defs>
    <g id="In-Work" stroke="none" stroke-width="1" fill="none" fill-rule="evenodd">
        <g id="B-3" transform="translate(-840.000000, -332.000000)">
            <g id="Group-11" transform="translate(840.000000, 265.000000)">
                <g id="Group-8" transform="translate(0.000000, 67.000000)">
                    <g id="Group">
                        <polygon id="Fill-1" fill="#222829" points="5.90625 27.84375 10.125 27.84375 10.125 26.15625 5.90625 26.15625"></polygon>
                        <g id="Group-45">
                            <path d="M3.375,25.3125 C2.44434375,25.3125 1.6875,26.0693437 1.6875,27 C1.6875,27.9306563 2.44434375,28.6875 3.375,28.6875 C4.30565625,28.6875 5.0625,27.9306563 5.0625,27 C5.0625,26.0693437 4.30565625,25.3125 3.375,25.3125 M3.375,30.375 C1.5136875,30.375 0,28.8613125 0,27 C0,25.1386875 1.5136875,23.625 3.375,23.625 C5.2363125,23.625 6.75,25.1386875 6.75,27 C6.75,28.8613125 5.2363125,30.375 3.375,30.375" id="Fill-2" fill="#222829"></path>
                            <mask id="mask-2" fill="white">
                                <use xlink:href="#path-1"></use>
                            </mask>
                            <g id="Clip-5"></g>
                            <polygon id="Fill-4" fill="#222829" mask="url(#mask-2)" points="43.875 27.84375 48.09375 27.84375 48.09375 26.15625 43.875 26.15625"></polygon>
                            <path d="M50.625,25.3125 C49.6943438,25.3125 48.9375,26.0693437 48.9375,27 C48.9375,27.9306563 49.6943438,28.6875 50.625,28.6875 C51.5556562,28.6875 52.3125,27.9306563 52.3125,27 C52.3125,26.0693437 51.5556562,25.3125 50.625,25.3125 M50.625,30.375 C48.7636875,30.375 47.25,28.8613125 47.25,27 C47.25,25.1386875 48.7636875,23.625 50.625,23.625 C52.4863125,23.625 54,25.1386875 54,27 C54,28.8613125 52.4863125,30.375 50.625,30.375" id="Fill-6" fill="#222829" mask="url(#mask-2)"></path>
                            <path d="M47.25,48.09375 L45.5625,48.09375 L45.5625,36.28125 C45.5625,34.8856875 44.4268125,33.75 43.03125,33.75 L40.5,33.75 L40.5,32.0625 L43.03125,32.0625 C45.3574687,32.0625 47.25,33.9550312 47.25,36.28125 L47.25,48.09375 Z" id="Fill-7" fill="#222829" mask="url(#mask-2)"></path>
                            <path d="M46.40625,48.9375 C45.4755938,48.9375 44.71875,49.6943438 44.71875,50.625 C44.71875,51.5556562 45.4755938,52.3125 46.40625,52.3125 C47.3369062,52.3125 48.09375,51.5556562 48.09375,50.625 C48.09375,49.6943438 47.3369062,48.9375 46.40625,48.9375 M46.40625,54 C44.5449375,54 43.03125,52.4863125 43.03125,50.625 C43.03125,48.7636875 44.5449375,47.25 46.40625,47.25 C48.2675625,47.25 49.78125,48.7636875 49.78125,50.625 C49.78125,52.4863125 48.2675625,54 46.40625,54" id="Fill-8" fill="#222829" mask="url(#mask-2)"></path>
                            <path d="M8.4375,48.09375 L6.75,48.09375 L6.75,36.28125 C6.75,33.9550312 8.64253125,32.0625 10.96875,32.0625 L13.5,32.0625 L13.5,33.75 L10.96875,33.75 C9.5731875,33.75 8.4375,34.8856875 8.4375,36.28125 L8.4375,48.09375 Z" id="Fill-9" fill="#222829" mask="url(#mask-2)"></path>
                            <path d="M7.59375,48.9375 C6.66309375,48.9375 5.90625,49.6943438 5.90625,50.625 C5.90625,51.5556562 6.66309375,52.3125 7.59375,52.3125 C8.52440625,52.3125 9.28125,51.5556562 9.28125,50.625 C9.28125,49.6943438 8.52440625,48.9375 7.59375,48.9375 M7.59375,54 C5.7324375,54 4.21875,52.4863125 4.21875,50.625 C4.21875,48.7636875 5.7324375,47.25 7.59375,47.25 C9.4550625,47.25 10.96875,48.7636875 10.96875,50.625 C10.96875,52.4863125 9.4550625,54 7.59375,54" id="Fill-10" fill="#222829" mask="url(#mask-2)"></path>
                            <path d="M43.03125,21.9375 L40.5,21.9375 L40.5,20.25 L43.03125,20.25 C44.4268125,20.25 45.5625,19.1143125 45.5625,17.71875 L45.5625,5.90625 L47.25,5.90625 L47.25,17.71875 C47.25,20.0449687 45.3574687,21.9375 43.03125,21.9375" id="Fill-11" fill="#222829" mask="url(#mask-2)"></path>
                            <path d="M46.40625,1.6875 C45.4755938,1.6875 44.71875,2.44434375 44.71875,3.375 C44.71875,4.30565625 45.4755938,5.0625 46.40625,5.0625 C47.3369062,5.0625 48.09375,4.30565625 48.09375,3.375 C48.09375,2.44434375 47.3369062,1.6875 46.40625,1.6875 M46.40625,6.75 C44.5449375,6.75 43.03125,5.2363125 43.03125,3.375 C43.03125,1.5136875 44.5449375,0 46.40625,0 C48.2675625,0 49.78125,1.5136875 49.78125,3.375 C49.78125,5.2363125 48.2675625,6.75 46.40625,6.75" id="Fill-12" fill="#222829" mask="url(#mask-2)"></path>
                            <path d="M13.5,21.9375 L10.125,21.9375 C7.79878125,21.9375 5.90625,20.0449687 5.90625,17.71875 L5.90625,5.90625 L7.59375,5.90625 L7.59375,17.71875 C7.59375,19.1143125 8.7294375,20.25 10.125,20.25 L13.5,20.25 L13.5,21.9375 Z" id="Fill-13" fill="#222829" mask="url(#mask-2)"></path>
                            <path d="M6.75,1.6875 C5.81934375,1.6875 5.0625,2.44434375 5.0625,3.375 C5.0625,4.30565625 5.81934375,5.0625 6.75,5.0625 C7.68065625,5.0625 8.4375,4.30565625 8.4375,3.375 C8.4375,2.44434375 7.68065625,1.6875 6.75,1.6875 M6.75,6.75 C4.8886875,6.75 3.375,5.2363125 3.375,3.375 C3.375,1.5136875 4.8886875,0 6.75,0 C8.6113125,0 10.125,1.5136875 10.125,3.375 C10.125,5.2363125 8.6113125,6.75 6.75,6.75" id="Fill-14" fill="#222829" mask="url(#mask-2)"></path>
                            <path d="M22.78125,42.1875 C21.8505937,42.1875 21.09375,42.9443438 21.09375,43.875 C21.09375,44.8056562 21.8505937,45.5625 22.78125,45.5625 C23.7119063,45.5625 24.46875,44.8056562 24.46875,43.875 C24.46875,42.9443438 23.7119063,42.1875 22.78125,42.1875 M22.78125,47.25 C20.9199375,47.25 19.40625,45.7363125 19.40625,43.875 C19.40625,42.0136875 20.9199375,40.5 22.78125,40.5 C24.6425625,40.5 26.15625,42.0136875 26.15625,43.875 C26.15625,45.7363125 24.6425625,47.25 22.78125,47.25" id="Fill-15" fill="#222829" mask="url(#mask-2)"></path>
                            <polygon id="Fill-16" fill="#222829" mask="url(#mask-2)" points="21.9375 54 23.625 54 23.625 46.40625 21.9375 46.40625"></polygon>
                            <polygon id="Fill-17" fill="#222829" mask="url(#mask-2)" points="13.5 54 15.1875 54 15.1875 43.875 13.5 43.875"></polygon>
                            <polygon id="Fill-18" fill="#222829" mask="url(#mask-2)" points="30.375 54 32.0625 54 32.0625 47.25 30.375 47.25"></polygon>
                            <polygon id="Fill-19" fill="#222829" mask="url(#mask-2)" points="38.8125 50.625 40.5 50.625 40.5 40.5 38.8125 40.5"></polygon>
                            <path d="M14.34375,11.8125 C13.4130937,11.8125 12.65625,12.5693437 12.65625,13.5 C12.65625,14.4306563 13.4130937,15.1875 14.34375,15.1875 C15.2744063,15.1875 16.03125,14.4306563 16.03125,13.5 C16.03125,12.5693437 15.2744063,11.8125 14.34375,11.8125 M14.34375,16.875 C12.4824375,16.875 10.96875,15.3613125 10.96875,13.5 C10.96875,11.6386875 12.4824375,10.125 14.34375,10.125 C16.2050625,10.125 17.71875,11.6386875 17.71875,13.5 C17.71875,15.3613125 16.2050625,16.875 14.34375,16.875" id="Fill-20" fill="#222829" mask="url(#mask-2)"></path>
                            <polygon id="Fill-21" fill="#222829" mask="url(#mask-2)" points="21.9375 10.125 23.625 10.125 23.625 0 21.9375 0"></polygon>
                            <polygon id="Fill-22" fill="#222829" mask="url(#mask-2)" points="13.5 10.96875 15.1875 10.96875 15.1875 3.375 13.5 3.375"></polygon>
                            <polygon id="Fill-23" fill="#222829" mask="url(#mask-2)" points="30.375 13.5 32.0625 13.5 32.0625 6.75 30.375 6.75"></polygon>
                            <path d="M39.65625,11.8125 C38.7255938,11.8125 37.96875,12.5693437 37.96875,13.5 C37.96875,14.4306563 38.7255938,15.1875 39.65625,15.1875 C40.5869062,15.1875 41.34375,14.4306563 41.34375,13.5 C41.34375,12.5693437 40.5869062,11.8125 39.65625,11.8125 M39.65625,16.875 C37.7949375,16.875 36.28125,15.3613125 36.28125,13.5 C36.28125,11.6386875 37.7949375,10.125 39.65625,10.125 C41.5175625,10.125 43.03125,11.6386875 43.03125,13.5 C43.03125,15.3613125 41.5175625,16.875 39.65625,16.875" id="Fill-24" fill="#222829" mask="url(#mask-2)"></path>
                            <polygon id="Fill-25" fill="#222829" mask="url(#mask-2)" points="38.8125 10.96875 40.5 10.96875 40.5 3.375 38.8125 3.375"></polygon>
                            <polygon id="Fill-26" fill="#222829" mask="url(#mask-2)" points="40.5 27.84375 42.1875 27.84375 42.1875 26.15625 40.5 26.15625"></polygon>
                            <polygon id="Fill-27" fill="#222829" mask="url(#mask-2)" points="11.8125 27.84375 13.5 27.84375 13.5 26.15625 11.8125 26.15625"></polygon>
                            <path d="M27,16.875 C21.4169063,16.875 16.875,21.4169063 16.875,27 C16.875,32.5830938 21.4169063,37.125 27,37.125 C32.5830937,37.125 37.125,32.5830938 37.125,27 C37.125,21.4169063 32.5830937,16.875 27,16.875 M27,38.8125 C20.48625,38.8125 15.1875,33.51375 15.1875,27 C15.1875,20.48625 20.48625,15.1875 27,15.1875 C33.51375,15.1875 38.8125,20.48625 38.8125,27 C38.8125,33.51375 33.51375,38.8125 27,38.8125" id="Fill-28" fill="#222829" mask="url(#mask-2)"></path>
                            <polygon id="Fill-34" fill="#222829" mask="url(#mask-2)" points="38.8125 54 40.5 54 40.5 52.3125 38.8125 52.3125"></polygon>
                            <polygon id="Fill-35" fill="#222829" mask="url(#mask-2)" points="38.8125 1.6875 40.5 1.6875 40.5 0 38.8125 0"></polygon>
                            <polygon id="Fill-36" fill="#222829" mask="url(#mask-2)" points="30.375 1.6875 32.0625 1.6875 32.0625 0 30.375 0"></polygon>
                            <polygon id="Fill-37" fill="#222829" mask="url(#mask-2)" points="30.375 5.0625 32.0625 5.0625 32.0625 3.375 30.375 3.375"></polygon>
                            <polygon id="Fill-38" fill="#222829" mask="url(#mask-2)" points="13.5 1.6875 15.1875 1.6875 15.1875 0 13.5 0"></polygon>
                            <polygon id="Fill-39" fill="#222829" mask="url(#mask-2)" points="13.5 38.8125 15.1875 38.8125 15.1875 37.125 13.5 37.125"></polygon>
                            <polygon id="Fill-40" fill="#222829" mask="url(#mask-2)" points="13.5 42.1875 15.1875 42.1875 15.1875 40.5 13.5 40.5"></polygon>
                            <polygon id="Fill-41" fill="#222829" mask="url(#mask-2)" points="30.375 45.5625 32.0625 45.5625 32.0625 43.875 30.375 43.875"></polygon>
                            <polygon id="Fill-42" fill="#222829" mask="url(#mask-2)" points="30.375 42.1875 32.0625 42.1875 32.0625 40.5 30.375 40.5"></polygon>
                            <polygon id="Fill-43" fill="#222829" mask="url(#mask-2)" points="38.8125 38.8125 40.5 38.8125 40.5 37.125 38.8125 37.125"></polygon>
                            <polygon id="Fill-44" fill="#222829" mask="url(#mask-2)" points="21.9375 13.5 23.625 13.5 23.625 11.8125 21.9375 11.8125"></polygon>
                        </g>
                    </g>
                    <g id="Group-4" transform="translate(20.250000, 21.093750)" fill="#222829">
                        <g id="Group-3" transform="translate(4.218750, 0.000000)">
                            <path d="M1.6875,8.4375 L3.6973125,8.4375 L4.1191875,7.59375 L3.2754375,5.90625 L4.1191875,4.21875 L3.6973125,3.375 L1.6875,3.375 L1.6875,8.4375 Z M4.7401875,10.125 L0,10.125 L0,1.6875 L4.7401875,1.6875 L6.0058125,4.21875 L5.1620625,5.90625 L6.0058125,7.59375 L4.7401875,10.125 Z" id="Fill-67"></path>
                            <polygon id="Fill-68" points="1.6875 11.8125 3.375 11.8125 3.375 9.28125 1.6875 9.28125"></polygon>
                            <polygon id="Fill-69" points="1.6875 2.53125 3.375 2.53125 3.375 0 1.6875 0"></polygon>
                            <polygon id="Fill-70" points="0.84375 6.75 4.21875 6.75 4.21875 5.0625 0.84375 5.0625"></polygon>
                        </g>
                        <polygon id="Fill-29" points="0 6.75 1.6875 6.75 1.6875 5.0625 0 5.0625"></polygon>
                        <polygon id="Fill-30" points="11.8125 6.75 13.5 6.75 13.5 5.0625 11.8125 5.0625"></polygon>
                    </g>
                </g>
            </g>
        </g>
    </g>
</svg>