<?xml version="1.0" encoding="UTF-8"?>
<svg width="54px" height="54px" viewBox="0 0 54 54" version="1.1" xmlns="http://www.w3.org/2000/svg" xmlns:xlink="http://www.w3.org/1999/xlink">
    <!-- Generator: sketchtool 50.2 (55047) - http://www.bohemiancoding.com/sketch -->
    <title>8E02313A-D121-495D-B25E-FB61F49CF307</title>
    <desc>Created with sketchtool.</desc>
    <defs>
        <polygon id="path-1" points="0 54 54 54 54 0 0 0"></polygon>
    </defs>
    <g id="In-Work" stroke="none" stroke-width="1" fill="none" fill-rule="evenodd">
        <g id="B-3" transform="translate(-840.000000, -520.000000)">
            <g id="Group-11" transform="translate(840.000000, 265.000000)">
                <g id="Group-9" transform="translate(0.000000, 255.000000)">
                    <g id="Group">
                        <polygon id="Fill-1" fill="#2E3D3E" points="8.4375 27.84375 10.125 27.84375 10.125 26.15625 8.4375 26.15625"></polygon>
                        <polygon id="Fill-2" fill="#222829" points="5.0625 4.21875 6.75 4.21875 6.75 0.00084375 5.0625 0.00084375"></polygon>
                        <g id="Group-40">
                            <path d="M16.875,31.21875 L6.75,31.21875 C5.81934375,31.21875 5.0625,30.4619063 5.0625,29.53125 L5.0625,17.71875 L6.75,17.71875 L6.75,29.53125 L16.875,29.53125 L16.875,18.5625 L18.5625,18.5625 L18.5625,29.53125 C18.5625,30.4619063 17.8056563,31.21875 16.875,31.21875" id="Fill-3" fill="#222829"></path>
                            <mask id="mask-2" fill="white">
                                <use xlink:href="#path-1"></use>
                            </mask>
                            <g id="Clip-6"></g>
                            <polygon id="Fill-5" fill="#222829" mask="url(#mask-2)" points="16.875 5.0625 18.5625 5.0625 18.5625 0 16.875 0"></polygon>
                            <path d="M11.8125,18.5625 L4.21875,18.5625 C2.8231875,18.5625 1.6875,17.4268125 1.6875,16.03125 C1.6875,15.7021875 1.75078125,15.3874688 1.86553125,15.0989062 C0.7914375,14.8052812 0,13.8214687 0,12.65625 C0,11.4910313 0.7914375,10.5072188 1.86553125,10.2135938 C1.75078125,9.92503125 1.6875,9.6103125 1.6875,9.28125 C1.6875,8.11603125 2.4789375,7.13221875 3.55303125,6.83859375 C3.43828125,6.55003125 3.375,6.2353125 3.375,5.90625 C3.375,4.5106875 4.5106875,3.375 5.90625,3.375 L13.7421562,3.4104375 L22.0606875,5.90625 L23.625,5.90625 L23.625,7.59375 L21.6953438,7.5583125 L13.3768125,5.0625 L5.90625,5.0625 C5.4405,5.0625 5.0625,5.44134375 5.0625,5.90625 C5.0625,6.37115625 5.4405,6.75 5.90625,6.75 L5.90625,8.4375 L4.21875,8.4375 C3.753,8.4375 3.375,8.81634375 3.375,9.28125 C3.375,9.74615625 3.753,10.125 4.21875,10.125 L4.21875,11.8125 L2.53125,11.8125 C2.0655,11.8125 1.6875,12.1913437 1.6875,12.65625 C1.6875,13.1211563 2.0655,13.5 2.53125,13.5 L4.21875,13.5 L4.21875,15.1875 C3.753,15.1875 3.375,15.5663437 3.375,16.03125 C3.375,16.4961562 3.753,16.875 4.21875,16.875 L11.8125,16.875 L11.8125,18.5625 Z" id="Fill-7" fill="#222829" mask="url(#mask-2)"></path>
                            <polygon id="Fill-8" fill="#222829" mask="url(#mask-2)" points="4.21875 15.1875 9.28125 15.1875 9.28125 13.5 4.21875 13.5"></polygon>
                            <polygon id="Fill-9" fill="#222829" mask="url(#mask-2)" points="4.21875 11.8125 9.28125 11.8125 9.28125 10.125 4.21875 10.125"></polygon>
                            <polygon id="Fill-10" fill="#222829" mask="url(#mask-2)" points="5.90625 8.4375 9.28125 8.4375 9.28125 6.75 5.90625 6.75"></polygon>
                            <path d="M13.6993781,21.9375 L10.1252531,21.9375 C8.72884688,21.9375 7.59400313,20.8018125 7.59400313,19.40625 L9.28150313,19.40625 C9.28150313,19.8711563 9.65950313,20.25 10.1252531,20.25 L13.3002844,20.25 L16.4289094,18.6856875 L19.9692844,16.03125 L23.6252531,16.03125 L23.6252531,17.71875 L20.5312219,17.71875 L17.2524094,20.1614063 L13.6993781,21.9375 Z" id="Fill-11" fill="#222829" mask="url(#mask-2)"></path>
                            <polygon id="Fill-12" fill="#222829" mask="url(#mask-2)" points="26.15625 10.125 27.84375 10.125 27.84375 8.4375 26.15625 8.4375"></polygon>
                            <polygon id="Fill-13" fill="#222829" mask="url(#mask-2)" points="49.78125 6.75 54 6.75 54 5.0625 49.78125 5.0625"></polygon>
                            <path d="M35.4375,18.5625 L24.46875,18.5625 C23.5380937,18.5625 22.78125,17.8056563 22.78125,16.875 L22.78125,6.75 C22.78125,5.81934375 23.5380937,5.0625 24.46875,5.0625 L36.28125,5.0625 L36.28125,6.75 L24.46875,6.75 L24.46875,16.875 L35.4375,16.875 L35.4375,18.5625 Z" id="Fill-14" fill="#222829" mask="url(#mask-2)"></path>
                            <polygon id="Fill-15" fill="#222829" mask="url(#mask-2)" points="48.9375 18.5625 54 18.5625 54 16.875 48.9375 16.875"></polygon>
                            <path d="M48.09375,23.625 L46.40625,23.625 L46.4416875,21.6953438 L48.9375,13.3759688 L48.9375,5.90625 C48.9375,5.44134375 48.5595,5.0625 48.09375,5.0625 C47.628,5.0625 47.25,5.44134375 47.25,5.90625 L45.5625,5.90625 L45.5625,4.21875 C45.5625,3.75384375 45.1845,3.375 44.71875,3.375 C44.253,3.375 43.875,3.75384375 43.875,4.21875 L42.1875,4.21875 L42.1875,2.53125 C42.1875,2.06634375 41.8095,1.6875 41.34375,1.6875 C40.878,1.6875 40.5,2.06634375 40.5,2.53125 L40.5,4.21875 L38.8125,4.21875 C38.8125,3.75384375 38.4345,3.375 37.96875,3.375 C37.503,3.375 37.125,3.75384375 37.125,4.21875 L37.125,11.8125 L35.4375,11.8125 L35.4375,4.21875 C35.4375,2.8231875 36.5731875,1.6875 37.96875,1.6875 C38.2978125,1.6875 38.6125312,1.75078125 38.9010938,1.86553125 C39.193875,0.7914375 40.1785312,0 41.34375,0 C42.5089688,0 43.493625,0.7914375 43.7864062,1.86553125 C44.0749688,1.75078125 44.3896875,1.6875 44.71875,1.6875 C45.8839688,1.6875 46.868625,2.4789375 47.1614062,3.55303125 C47.4499688,3.43828125 47.7646875,3.375 48.09375,3.375 C49.4893125,3.375 50.625,4.5106875 50.625,5.90625 L50.5895625,13.7421562 L48.09375,22.0615312 L48.09375,23.625 Z" id="Fill-16" fill="#222829" mask="url(#mask-2)"></path>
                            <polygon id="Fill-17" fill="#222829" mask="url(#mask-2)" points="38.8125 9.28125 40.5 9.28125 40.5 4.21875 38.8125 4.21875"></polygon>
                            <polygon id="Fill-18" fill="#222829" mask="url(#mask-2)" points="42.1875 9.28125 43.875 9.28125 43.875 4.21875 42.1875 4.21875"></polygon>
                            <polygon id="Fill-19" fill="#222829" mask="url(#mask-2)" points="45.5625 9.28125 47.25 9.28125 47.25 5.90625 45.5625 5.90625"></polygon>
                            <path d="M37.96875,23.625 L36.28125,23.625 L36.28125,20.5309687 L33.8385937,17.2521563 L32.0625,13.699125 L32.0625,10.125 C32.0625,8.7294375 33.1981875,7.59375 34.59375,7.59375 L34.59375,9.28125 C34.128,9.28125 33.75,9.66009375 33.75,10.125 L33.75,13.300875 L35.3143125,16.4295 L37.96875,19.9690313 L37.96875,23.625 Z" id="Fill-20" fill="#222829" mask="url(#mask-2)"></path>
                            <polygon id="Fill-21" fill="#222829" mask="url(#mask-2)" points="43.875 27.84375 45.5625 27.84375 45.5625 26.15625 43.875 26.15625"></polygon>
                            <polygon id="Fill-22" fill="#222829" mask="url(#mask-2)" points="35.4375 54 37.125 54 37.125 48.9375 35.4375 48.9375"></polygon>
                            <path d="M37.125,35.4375 L35.4375,35.4375 L35.4375,24.46875 C35.4375,23.5380937 36.1943438,22.78125 37.125,22.78125 L47.25,22.78125 C48.1806562,22.78125 48.9375,23.5380937 48.9375,24.46875 L48.9375,34.59375 L47.25,34.59375 L47.25,24.46875 L37.125,24.46875 L37.125,35.4375 Z" id="Fill-23" fill="#222829" mask="url(#mask-2)"></path>
                            <polygon id="Fill-24" fill="#222829" mask="url(#mask-2)" points="47.25 54 48.9375 54 48.9375 48.09375 47.25 48.09375"></polygon>
                            <path d="M49.78125,48.9375 L42.1875,48.9375 L42.1875,47.25 L49.78125,47.25 C50.247,47.25 50.625,46.8711562 50.625,46.40625 C50.625,45.9413438 50.247,45.5625 49.78125,45.5625 L49.78125,43.875 L51.46875,43.875 C51.9345,43.875 52.3125,43.4961562 52.3125,43.03125 C52.3125,42.5663438 51.9345,42.1875 51.46875,42.1875 L49.78125,42.1875 L49.78125,40.5 C50.247,40.5 50.625,40.1211562 50.625,39.65625 C50.625,39.1913438 50.247,38.8125 49.78125,38.8125 L48.09375,38.8125 L48.09375,37.125 C48.5595,37.125 48.9375,36.7461562 48.9375,36.28125 C48.9375,35.8163438 48.5595,35.4375 48.09375,35.4375 L40.6231875,35.4375 L32.0625,37.96875 L30.375,37.96875 L30.375,36.28125 L31.9393125,36.28125 L40.5,33.75 L48.09375,33.75 C49.4893125,33.75 50.625,34.8856875 50.625,36.28125 C50.625,36.6103125 50.5617187,36.9250312 50.4469687,37.2135938 C51.5210625,37.5072187 52.3125,38.4910312 52.3125,39.65625 C52.3125,39.9853125 52.2492187,40.3000312 52.1344687,40.5885938 C53.2085625,40.8822187 54,41.8660312 54,43.03125 C54,44.1964688 53.2085625,45.1802813 52.1344687,45.4739062 C52.2492187,45.7624687 52.3125,46.0771875 52.3125,46.40625 C52.3125,47.8018125 51.1768125,48.9375 49.78125,48.9375" id="Fill-25" fill="#222829" mask="url(#mask-2)"></path>
                            <polygon id="Fill-26" fill="#222829" mask="url(#mask-2)" points="44.71875 45.5625 49.78125 45.5625 49.78125 43.875 44.71875 43.875"></polygon>
                            <polygon id="Fill-27" fill="#222829" mask="url(#mask-2)" points="44.71875 42.1875 49.78125 42.1875 49.78125 40.5 44.71875 40.5"></polygon>
                            <polygon id="Fill-28" fill="#222829" mask="url(#mask-2)" points="44.71875 38.8125 48.09375 38.8125 48.09375 37.125 44.71875 37.125"></polygon>
                            <path d="M43.875,52.3125 L40.300875,52.3125 L36.61875,50.45625 L33.4690313,48.09375 L30.375,48.09375 L30.375,46.40625 L34.0309687,46.40625 L37.5705,49.0606875 L40.699125,50.625 L43.875,50.625 C44.34075,50.625 44.71875,50.2461562 44.71875,49.78125 L46.40625,49.78125 C46.40625,51.1768125 45.2705625,52.3125 43.875,52.3125" id="Fill-29" fill="#222829" mask="url(#mask-2)"></path>
                            <polygon id="Fill-30" fill="#222829" mask="url(#mask-2)" points="26.15625 40.5 27.84375 40.5 27.84375 38.8125 26.15625 38.8125"></polygon>
                            <polygon id="Fill-31" fill="#222829" mask="url(#mask-2)" points="0 37.125 5.90625 37.125 5.90625 35.4375 0 35.4375"></polygon>
                            <path d="M29.53125,48.9375 L17.71875,48.9375 L17.71875,47.25 L29.53125,47.25 L29.53125,37.125 L18.5625,37.125 L18.5625,35.4375 L29.53125,35.4375 C30.4619063,35.4375 31.21875,36.1943438 31.21875,37.125 L31.21875,47.25 C31.21875,48.1806562 30.4619063,48.9375 29.53125,48.9375" id="Fill-32" fill="#222829" mask="url(#mask-2)"></path>
                            <polygon id="Fill-33" fill="#222829" mask="url(#mask-2)" points="0 48.9375 4.21875 48.9375 4.21875 47.25 0 47.25"></polygon>
                            <path d="M12.65625,54 C11.4910313,54 10.506375,53.2085625 10.2135938,52.1344687 C9.92503125,52.2492187 9.6103125,52.3125 9.28125,52.3125 C8.11603125,52.3125 7.131375,51.5210625 6.83859375,50.4469687 C6.55003125,50.5617187 6.2353125,50.625 5.90625,50.625 C4.5106875,50.625 3.375,49.4893125 3.375,48.09375 L3.4104375,40.2578437 L5.90625,31.9384687 L5.90625,30.375 L7.59375,30.375 L7.5583125,32.3046563 L5.0625,40.6240313 L5.0625,48.09375 C5.0625,48.5586562 5.4405,48.9375 5.90625,48.9375 C6.372,48.9375 6.75,48.5586562 6.75,48.09375 L8.4375,48.09375 L8.4375,49.78125 C8.4375,50.2461562 8.8155,50.625 9.28125,50.625 C9.747,50.625 10.125,50.2461562 10.125,49.78125 L11.8125,49.78125 L11.8125,51.46875 C11.8125,51.9336562 12.1905,52.3125 12.65625,52.3125 C13.122,52.3125 13.5,51.9336562 13.5,51.46875 L13.5,49.78125 L15.1875,49.78125 C15.1875,50.2461562 15.5655,50.625 16.03125,50.625 C16.497,50.625 16.875,50.2461562 16.875,49.78125 L16.875,42.1875 L18.5625,42.1875 L18.5625,49.78125 C18.5625,51.1768125 17.4268125,52.3125 16.03125,52.3125 C15.7021875,52.3125 15.3874688,52.2492187 15.0989063,52.1344687 C14.806125,53.2085625 13.8214687,54 12.65625,54" id="Fill-34" fill="#222829" mask="url(#mask-2)"></path>
                            <polygon id="Fill-35" fill="#222829" mask="url(#mask-2)" points="13.5 49.78125 15.1875 49.78125 15.1875 44.71875 13.5 44.71875"></polygon>
                            <polygon id="Fill-36" fill="#222829" mask="url(#mask-2)" points="10.125 49.78125 11.8125 49.78125 11.8125 44.71875 10.125 44.71875"></polygon>
                            <polygon id="Fill-37" fill="#222829" mask="url(#mask-2)" points="6.75 48.09375 8.4375 48.09375 8.4375 44.71875 6.75 44.71875"></polygon>
                            <path d="M19.40625,46.40625 L19.40625,44.71875 C19.872,44.71875 20.25,44.3399062 20.25,43.875 L20.25,40.699125 L18.6856875,37.5705 L16.03125,34.0309687 L16.03125,30.375 L17.71875,30.375 L17.71875,33.4690313 L20.1614062,36.7478438 L21.9375,40.300875 L21.9375,43.875 C21.9375,45.2705625 20.8018125,46.40625 19.40625,46.40625" id="Fill-38" fill="#222829" mask="url(#mask-2)"></path>
                            <polygon id="Fill-39" fill="#222829" mask="url(#mask-2)" points="5.90625 31.21875 17.71875 31.21875 17.71875 29.53125 5.90625 29.53125"></polygon>
                        </g>
                    </g>
                </g>
            </g>
        </g>
    </g>
</svg>