<?xml version="1.0" encoding="UTF-8"?>
<svg width="54px" height="54px" viewBox="0 0 54 54" version="1.1" xmlns="http://www.w3.org/2000/svg" xmlns:xlink="http://www.w3.org/1999/xlink">
    <!-- Generator: Sketch 50.2 (55047) - http://www.bohemiancoding.com/sketch -->
    <title>icon_2</title>
    <desc>Created with Sketch.</desc>
    <defs></defs>
    <g id="Page-1" stroke="none" stroke-width="1" fill="none" fill-rule="evenodd">
        <g id="icon_2" fill="#222829">
            <g id="Group">
                <polygon id="Fill-3" points="19.40625 19 21.09375 19 21.09375 14.34375 19.40625 14.34375"></polygon>
                <polygon id="Fill-4" points="22.78125 17.7195938 24.46875 17.7195938 24.46875 14.34375 22.78125 14.34375"></polygon>
                <polygon id="Fill-5" points="26.15625 16.875 27.84375 16.875 27.84375 14.34375 26.15625 14.34375"></polygon>
                <polygon id="Fill-6" points="29.53125 17.7195938 31.21875 17.7195938 31.21875 14.34375 29.53125 14.34375"></polygon>
                <polygon id="Fill-7" points="32.90625 19 34.59375 19 34.59375 14.34375 32.90625 14.34375"></polygon>
                <polygon id="Fill-8" points="19.40625 39.65625 21.09375 39.65625 21.09375 37.125 19.40625 37.125"></polygon>
                <polygon id="Fill-9" points="22.78125 39.65625 24.46875 39.65625 24.46875 35 22.78125 35"></polygon>
                <polygon id="Fill-10" points="26.15625 39.65625 27.84375 39.65625 27.84375 37.125 26.15625 37.125"></polygon>
                <polygon id="Fill-11" points="29.53125 39.65625 31.21875 39.65625 31.21875 35 29.53125 35"></polygon>
                <polygon id="Fill-12" points="32.90625 39.65625 34.59375 39.65625 34.59375 37.125 32.90625 37.125"></polygon>
                <polygon id="Fill-13" points="36.2804062 21.09375 39.65625 21.09375 39.65625 19.40625 36.2804062 19.40625"></polygon>
                <polygon id="Fill-14" points="36.2804062 24.46875 39.65625 24.46875 39.65625 22.78125 36.2804062 22.78125"></polygon>
                <polygon id="Fill-15" points="35 27.84375 39.65625 27.84375 39.65625 26.15625 35 26.15625"></polygon>
                <polygon id="Fill-16" points="33.75 31.21875 39.65625 31.21875 39.65625 29.53125 33.75 29.53125"></polygon>
                <polygon id="Fill-17" points="32 34.59375 39.65625 34.59375 39.65625 32.90625 32 32.90625"></polygon>
                <polygon id="Fill-18" points="14.34375 21.09375 17.7195938 21.09375 17.7195938 19.40625 14.34375 19.40625"></polygon>
                <polygon id="Fill-19" points="14.34375 24.46875 17.7195938 24.46875 17.7195938 22.78125 14.34375 22.78125"></polygon>
                <polygon id="Fill-20" points="14.34375 27.84375 19 27.84375 19 26.15625 14.34375 26.15625"></polygon>
                <polygon id="Fill-21" points="14.34375 31.21875 20.25 31.21875 20.25 29.53125 14.34375 29.53125"></polygon>
                <polygon id="Fill-22" points="14.34375 34.59375 22 34.59375 22 32.90625 14.34375 32.90625"></polygon>
                <polygon id="Fill-23" points="19.4065875 41.3434969 19.4065875 47.7441844 16.0307437 51.1200281 16.0307437 53.9997469 17.7182437 53.9997469 17.7182437 51.8186531 21.0940875 48.4428094 21.0940875 41.3434969"></polygon>
                <polygon id="Fill-24" points="22.78125 47.25 24.46875 47.25 24.46875 41.34375 22.78125 41.34375"></polygon>
                <polygon id="Fill-25" points="26.1559125 41.3434969 26.1559125 48.9372469 22.7809125 48.9372469 22.7809125 53.9997469 24.4684125 53.9997469 24.4684125 50.6255906 27.8442562 50.6255906 27.8442562 41.3434969"></polygon>
                <polygon id="Fill-26" points="43.03125 48.9375 29.53125 48.9375 29.53125 41.34375 31.21875 41.34375 31.21875 47.25 43.03125 47.25"></polygon>
                <polygon id="Fill-27" points="32.90625 54 34.5945938 54 34.5945938 44.71875 32.90625 44.71875"></polygon>
                <polygon id="Fill-28" points="26.15625 12.65625 27.84375 12.65625 27.84375 3.375 26.15625 3.375"></polygon>
                <polygon id="Fill-29" points="34.5940875 8.4375e-05 34.5940875 6.40077187 32.9057437 8.08827187 32.9057437 12.6563344 34.5940875 12.6563344 34.5940875 8.78689687 36.2815875 7.09939687 36.2815875 8.4375e-05"></polygon>
                <polygon id="Fill-30" points="24.46875 12.65625 22.78125 12.65625 22.78125 5.0625 16.03125 5.0625 16.03125 3.375 24.46875 3.375"></polygon>
                <polygon id="Fill-31" points="19.40625 12.65625 21.09375 12.65625 21.09375 10.96875 19.40625 10.96875"></polygon>
                <polygon id="Fill-32" points="41.3434125 32.9060812 41.3434125 34.5935812 46.90035 34.5935812 48.58785 36.281925 53.9996625 36.281925 53.9996625 34.5935812 49.2873187 34.5935812 47.598975 32.9060812"></polygon>
                <polygon id="Fill-33" points="44.7188344 29.5314188 44.7188344 31.2189188 48.5874281 31.2189188 50.2757719 32.9064188 54.0000844 32.9064188 54.0000844 31.2189188 50.9743969 31.2189188 49.2868969 29.5314188"></polygon>
                <polygon id="Fill-34" points="41.34375 27.84375 50.625 27.84375 50.625 26.15625 41.34375 26.15625"></polygon>
                <polygon id="Fill-35" points="50.2759406 17.7185812 48.5875969 19.4060812 41.3431594 19.4060812 41.3431594 21.094425 49.2870656 21.094425 50.9745656 19.4060812 54.0002531 19.4060812 54.0002531 17.7185812"></polygon>
                <polygon id="Fill-36" points="7.2444375 32.9060812 5.5569375 34.5935812 0 34.5935812 0 36.281925 6.2555625 36.281925 7.9430625 34.5935812 12.65625 34.5935812 12.65625 32.9060812"></polygon>
                <polygon id="Fill-37" points="12.65625 27.84375 4.21875 27.84375 4.21875 10.96875 5.90625 10.96875 5.90625 26.15625 12.65625 26.15625"></polygon>
                <polygon id="Fill-38" points="0 24.46875 12.65625 24.46875 12.65625 22.78125 0 22.78125"></polygon>
                <polygon id="Fill-39" points="0 21.09375 12.65625 21.09375 12.65625 19.4054062 0 19.4054062"></polygon>
                <polygon id="Fill-40" points="52.3125 27.84375 54 27.84375 54 26.1554062 52.3125 26.1554062"></polygon>
                <polygon id="Fill-41" points="41.34375 31.21875 43.03125 31.21875 43.03125 29.53125 41.34375 29.53125"></polygon>
                <polygon id="Fill-42" points="48.09375 24.46875 54 24.46875 54 22.78125 48.09375 22.78125"></polygon>
                <polygon id="Fill-43" points="41.34375 8.4375 43.03125 8.4375 43.03125 6.75 41.34375 6.75"></polygon>
                <polygon id="Fill-44" points="29.53125 54 31.21875 54 31.21875 52.3125 29.53125 52.3125"></polygon>
                <polygon id="Fill-45" points="44.71875 48.9375 46.40625 48.9375 46.40625 47.25 44.71875 47.25"></polygon>
                <polygon id="Fill-46" points="26.15625 54 27.8445938 54 27.8445938 52.3125 26.15625 52.3125"></polygon>
                <polygon id="Fill-47" points="19.40625 54 21.09375 54 21.09375 52.3125 19.40625 52.3125"></polygon>
                <polygon id="Fill-48" points="32.90625 43.03125 34.59375 43.03125 34.59375 41.34375 32.90625 41.34375"></polygon>
                <polygon id="Fill-49" points="12.65625 41.34375 14.34375 41.34375 14.34375 39.65625 12.65625 39.65625"></polygon>
                <polygon id="Fill-50" points="9.28125 41.34375 10.96875 41.34375 10.96875 39.65625 9.28125 39.65625"></polygon>
                <polygon id="Fill-51" points="5.90625 41.34375 7.59375 41.34375 7.59375 39.65625 5.90625 39.65625"></polygon>
                <polygon id="Fill-52" points="9.28125 44.71875 10.96875 44.71875 10.96875 43.03125 9.28125 43.03125"></polygon>
                <polygon id="Fill-53" points="12.65625 48.09375 14.34375 48.09375 14.34375 46.40625 12.65625 46.40625"></polygon>
                <polygon id="Fill-54" points="12.65625 44.71875 14.34375 44.71875 14.34375 43.03125 12.65625 43.03125"></polygon>
                <polygon id="Fill-55" points="10.96875 31.21875 12.65625 31.21875 12.65625 29.53125 10.96875 29.53125"></polygon>
                <polygon id="Fill-56" points="7.59375 31.21875 9.28125 31.21875 9.28125 29.53125 7.59375 29.53125"></polygon>
                <polygon id="Fill-57" points="4.21875 31.21875 5.90625 31.21875 5.90625 29.53125 4.21875 29.53125"></polygon>
                <polygon id="Fill-58" points="4.21875 9.28125 5.90625 9.28125 5.90625 7.59375 4.21875 7.59375"></polygon>
                <polygon id="Fill-59" points="46.40625 24.46875 41.34375 24.46875 41.34375 22.78125 44.71875 22.78125 44.71875 5.0625 31.21875 5.0625 31.21875 12.65625 29.53125 12.65625 29.53125 3.375 46.40625 3.375"></polygon>
                <polygon id="Fill-60" points="10.96875 17.71875 12.65625 17.71875 12.65625 16.03125 10.96875 16.03125"></polygon>
                <polygon id="Fill-61" points="10.96875 14.34375 12.65625 14.34375 12.65625 12.65625 10.96875 12.65625"></polygon>
                <polygon id="Fill-62" points="26.15625 1.6875 27.8445938 1.6875 27.8445938 0 26.15625 0"></polygon>
                <polygon id="Fill-63" points="19.40625 1.6875 21.09375 1.6875 21.09375 0 19.40625 0"></polygon>
                <polygon id="Fill-64" points="16.03125 1.6875 17.71875 1.6875 17.71875 0 16.03125 0"></polygon>
                <polygon id="Fill-65" points="29.53125 1.6875 31.21875 1.6875 31.21875 0 29.53125 0"></polygon>
                <path d="M39.65625,41.34375 L41.34375,41.34375 L41.34375,39.65625 L39.65625,39.65625 L39.65625,41.34375 Z M37.96875,43.03125 L43.03125,43.03125 L43.03125,37.96875 L37.96875,37.96875 L37.96875,43.03125 Z" id="Fill-66"></path>
            </g>
            <g id="Group-6" transform="translate(20.250000, 21.093750)">
                <polygon id="Fill-29-Copy" points="0 4.75 1.6875 4.75 1.6875 3.0625 0 3.0625"></polygon>
                <polygon id="Fill-30-Copy-2" points="11.8125 4.75 13.5 4.75 13.5 3.0625 11.8125 3.0625"></polygon>
                <polyline id="Fill-3" points="4.21875 10.125 9.28125 10.125 9.28125 8.4375 5.90625 8.4375 5.90625 6.75 7.59375 6.75 8.4375 5.0625 5.90625 5.0625 5.90625 3.375 9.28125 3.375 9.28125 1.6875 4.21875 1.6875"></polyline>
                <polygon id="Fill-30" points="5.90625 1.6875 7.59375 1.6875 7.59375 0 5.90625 0"></polygon>
                <polygon id="Fill-30-Copy" points="5.90625 11.8125 7.59375 11.8125 7.59375 10.125 5.90625 10.125"></polygon>
            </g>
            <path d="M27.0280735,36.0351997 C32.2971739,33.569342 35.0642115,28.5855852 35.3349578,20.7902254 C34.9781978,20.6682372 30.115879,18.9841008 27.0373929,17.909477 C23.9513531,19.016705 19.0784835,20.7173178 18.7189297,20.837116 C18.9990972,28.6106408 21.7669145,33.5790858 27.0280735,36.0351997 Z M27.0290186,38 C20.273182,35.2308301 16.8952637,29.0631869 16.8952637,19.4970703 C16.8952637,19.5042981 23.017273,17.441113 27.0290186,16 C29.7000838,16.9327277 33.0744174,18.0984178 37.1520193,19.4970703 C37.1569824,29.0570342 33.7809945,35.2246775 27.0290186,38 Z" id="Path-3" fill-rule="nonzero"></path>
        </g>
    </g>
</svg>