<svg xmlns="http://www.w3.org/2000/svg" width="160" height="20" viewBox="0 0 160 20">
    <g fill="#FFF" fill-rule="evenodd">
        <path d="M85.866 14.668L78.406.113h-5.472l4.053 7.908-3.408 6.647L66.12.113h-5.472L70.841 20h5.477l3.405-6.642L83.127 20h5.478L98.799.113h-5.472l-7.46 14.555M0 .113V20h17.21v-3.977H4.918v-3.978h6.38l1.989-3.977H4.917V4.09h12.294V.113H0M147.168 16.023V.113h-4.917V20h15.714l1.966-3.977h-12.763M51.074.113h-5.78L42.347 4.1l2.921 3.868L51.074.113M30.827.113l7.233 9.789L30.598 20h5.78l4.572-6.188L45.523 20h5.78L36.606.113h-5.78M120.535.113h-5.472L104.87 20h5.472l7.461-14.556 3.32 6.477h-4.216l-1.972 3.977h8.226L125.263 20h5.472L120.54.113h-.006"/>
    </g>
</svg>
