<?xml version="1.0" standalone="no"?>
<!DOCTYPE svg PUBLIC "-//W3C//DTD SVG 20010904//EN"
 "http://www.w3.org/TR/2001/REC-SVG-20010904/DTD/svg10.dtd">
<svg version="1.0" xmlns="http://www.w3.org/2000/svg"
 width="70.000000pt" height="70.000000pt" viewBox="0 0 70.000000 70.000000"
 preserveAspectRatio="xMidYMid meet">
<metadata>
Created by potrace 1.11, written by Peter Selinger 2001-2013
</metadata>
<g transform="translate(0.000000,70.000000) scale(0.100000,-0.100000)"
fill="#000000" stroke="none">
<path d="M80 350 l0 -300 260 0 260 0 0 60 0 60 -185 0 -185 0 0 61 0 61 38
-2 c20 -1 64 -2 97 -1 l60 1 27 60 26 60 -124 0 -124 0 0 58 0 58 183 -1 182
0 3 63 3 62 -261 0 -260 0 0 -300z"/>
</g>
</svg>
